M48
;DRILL file {Pcbnew (2013-07-07 BZR 4022)-stable} date 06/07/2014 17:42:29
;FORMAT={-:-/ absolute / metric / decimal}
FMAT,2
METRIC,TZ
T1C0.600
T2C0.635
T3C0.813
T4C1.016
T5C2.000
%
G90
G05
M71
T1
X91.948Y-87.63
X94.488Y-87.63
X97.155Y-87.63
X99.695Y-87.63
X102.362Y-87.63
X104.902Y-87.63
X107.569Y-87.63
X110.109Y-87.63
X112.776Y-87.63
X115.316Y-87.63
X117.983Y-87.63
X120.523Y-87.63
X123.19Y-87.63
X125.73Y-87.63
X128.524Y-87.63
X131.064Y-87.63
T2
X100.203Y-66.421
X101.981Y-62.992
X121.158Y-70.612
T3
X88.9Y-58.42
X90.17Y-83.82
X91.44Y-58.42
X92.71Y-83.82
X93.98Y-58.42
X95.885Y-83.82
X98.425Y-83.82
X101.6Y-83.82
X104.14Y-83.82
X107.315Y-83.82
X108.458Y-57.785
X108.458Y-65.405
X109.855Y-83.82
X110.998Y-57.785
X110.998Y-65.405
X113.03Y-83.82
X113.538Y-57.785
X113.538Y-65.405
X115.57Y-83.82
X116.078Y-57.785
X116.078Y-65.405
X118.618Y-57.785
X118.618Y-65.405
X118.745Y-83.82
X121.158Y-57.785
X121.158Y-65.405
X121.285Y-83.82
X123.698Y-57.785
X123.698Y-65.405
X124.46Y-83.82
X126.238Y-57.785
X126.238Y-65.405
X127.Y-69.85
X127.Y-72.39
X127.Y-74.93
X127.Y-77.47
X127.Y-83.82
X128.778Y-57.785
X128.778Y-65.405
X130.175Y-83.82
X131.318Y-57.785
X131.318Y-65.405
X131.953Y-80.772
X132.207Y-69.85
X132.207Y-72.39
X132.207Y-74.93
X132.207Y-77.47
X132.715Y-83.82
X134.239Y-60.325
X134.239Y-62.865
X134.493Y-80.772
T4
X90.17Y-71.12
X110.49Y-71.12
T5
X88.519Y-61.849
X88.646Y-80.518
T0
M30
