G04 (created by PCBNEW (2013-07-07 BZR 4022)-stable) date 06/07/2014 17:43:10*
%MOIN*%
G04 Gerber Fmt 3.4, Leading zero omitted, Abs format*
%FSLAX34Y34*%
G01*
G70*
G90*
G04 APERTURE LIST*
%ADD10C,0.00590551*%
%ADD11C,0.011811*%
%ADD12C,0.00393701*%
%ADD13C,0.0590551*%
%ADD14C,0.09*%
%ADD15R,0.055X0.055*%
%ADD16C,0.055*%
%ADD17C,0.1*%
G04 APERTURE END LIST*
G54D10*
G54D11*
X42916Y-28748D02*
X42804Y-28748D01*
X42748Y-28776D01*
X42691Y-28832D01*
X42663Y-28945D01*
X42663Y-29142D01*
X42691Y-29254D01*
X42748Y-29310D01*
X42804Y-29339D01*
X42916Y-29339D01*
X42973Y-29310D01*
X43029Y-29254D01*
X43057Y-29142D01*
X43057Y-28945D01*
X43029Y-28832D01*
X42973Y-28776D01*
X42916Y-28748D01*
X42438Y-29310D02*
X42354Y-29339D01*
X42213Y-29339D01*
X42157Y-29310D01*
X42129Y-29282D01*
X42101Y-29226D01*
X42101Y-29170D01*
X42129Y-29114D01*
X42157Y-29085D01*
X42213Y-29057D01*
X42326Y-29029D01*
X42382Y-29001D01*
X42410Y-28973D01*
X42438Y-28917D01*
X42438Y-28860D01*
X42410Y-28804D01*
X42382Y-28776D01*
X42326Y-28748D01*
X42185Y-28748D01*
X42101Y-28776D01*
X41848Y-29339D02*
X41848Y-28748D01*
X41848Y-29029D02*
X41510Y-29029D01*
X41510Y-29339D02*
X41510Y-28748D01*
X40442Y-29282D02*
X40470Y-29310D01*
X40554Y-29339D01*
X40610Y-29339D01*
X40695Y-29310D01*
X40751Y-29254D01*
X40779Y-29198D01*
X40807Y-29085D01*
X40807Y-29001D01*
X40779Y-28889D01*
X40751Y-28832D01*
X40695Y-28776D01*
X40610Y-28748D01*
X40554Y-28748D01*
X40470Y-28776D01*
X40442Y-28804D01*
X39851Y-29282D02*
X39879Y-29310D01*
X39964Y-29339D01*
X40020Y-29339D01*
X40104Y-29310D01*
X40160Y-29254D01*
X40188Y-29198D01*
X40217Y-29085D01*
X40217Y-29001D01*
X40188Y-28889D01*
X40160Y-28832D01*
X40104Y-28776D01*
X40020Y-28748D01*
X39964Y-28748D01*
X39879Y-28776D01*
X39851Y-28804D01*
X39598Y-29339D02*
X39598Y-28748D01*
X39260Y-29339D01*
X39260Y-28748D01*
X38642Y-29282D02*
X38670Y-29310D01*
X38754Y-29339D01*
X38811Y-29339D01*
X38895Y-29310D01*
X38951Y-29254D01*
X38979Y-29198D01*
X39007Y-29085D01*
X39007Y-29001D01*
X38979Y-28889D01*
X38951Y-28832D01*
X38895Y-28776D01*
X38811Y-28748D01*
X38754Y-28748D01*
X38670Y-28776D01*
X38642Y-28804D01*
X37967Y-28804D02*
X37939Y-28776D01*
X37883Y-28748D01*
X37742Y-28748D01*
X37686Y-28776D01*
X37658Y-28804D01*
X37629Y-28860D01*
X37629Y-28917D01*
X37658Y-29001D01*
X37995Y-29339D01*
X37629Y-29339D01*
X37264Y-28748D02*
X37208Y-28748D01*
X37151Y-28776D01*
X37123Y-28804D01*
X37095Y-28860D01*
X37067Y-28973D01*
X37067Y-29114D01*
X37095Y-29226D01*
X37123Y-29282D01*
X37151Y-29310D01*
X37208Y-29339D01*
X37264Y-29339D01*
X37320Y-29310D01*
X37348Y-29282D01*
X37376Y-29226D01*
X37404Y-29114D01*
X37404Y-28973D01*
X37376Y-28860D01*
X37348Y-28804D01*
X37320Y-28776D01*
X37264Y-28748D01*
X36505Y-29339D02*
X36842Y-29339D01*
X36673Y-29339D02*
X36673Y-28748D01*
X36730Y-28832D01*
X36786Y-28889D01*
X36842Y-28917D01*
X35998Y-28945D02*
X35998Y-29339D01*
X36139Y-28720D02*
X36280Y-29142D01*
X35914Y-29142D01*
X47572Y-27039D02*
X47572Y-26448D01*
X47319Y-27039D02*
X47319Y-26729D01*
X47347Y-26673D01*
X47403Y-26645D01*
X47488Y-26645D01*
X47544Y-26673D01*
X47572Y-26701D01*
X47122Y-26645D02*
X46897Y-26645D01*
X47038Y-26448D02*
X47038Y-26954D01*
X47010Y-27010D01*
X46954Y-27039D01*
X46897Y-27039D01*
X46785Y-26645D02*
X46560Y-26645D01*
X46700Y-26448D02*
X46700Y-26954D01*
X46672Y-27010D01*
X46616Y-27039D01*
X46560Y-27039D01*
X46363Y-26645D02*
X46363Y-27235D01*
X46363Y-26673D02*
X46307Y-26645D01*
X46194Y-26645D01*
X46138Y-26673D01*
X46110Y-26701D01*
X46082Y-26757D01*
X46082Y-26926D01*
X46110Y-26982D01*
X46138Y-27010D01*
X46194Y-27039D01*
X46307Y-27039D01*
X46363Y-27010D01*
X45829Y-26982D02*
X45801Y-27010D01*
X45829Y-27039D01*
X45857Y-27010D01*
X45829Y-26982D01*
X45829Y-27039D01*
X45829Y-26673D02*
X45801Y-26701D01*
X45829Y-26729D01*
X45857Y-26701D01*
X45829Y-26673D01*
X45829Y-26729D01*
X45126Y-26420D02*
X45632Y-27179D01*
X44507Y-26420D02*
X45013Y-27179D01*
X44057Y-26645D02*
X44057Y-27123D01*
X44085Y-27179D01*
X44113Y-27207D01*
X44170Y-27235D01*
X44254Y-27235D01*
X44310Y-27207D01*
X44057Y-27010D02*
X44113Y-27039D01*
X44226Y-27039D01*
X44282Y-27010D01*
X44310Y-26982D01*
X44338Y-26926D01*
X44338Y-26757D01*
X44310Y-26701D01*
X44282Y-26673D01*
X44226Y-26645D01*
X44113Y-26645D01*
X44057Y-26673D01*
X43776Y-27039D02*
X43776Y-26645D01*
X43776Y-26448D02*
X43804Y-26476D01*
X43776Y-26504D01*
X43748Y-26476D01*
X43776Y-26448D01*
X43776Y-26504D01*
X43579Y-26645D02*
X43354Y-26645D01*
X43495Y-26448D02*
X43495Y-26954D01*
X43466Y-27010D01*
X43410Y-27039D01*
X43354Y-27039D01*
X43157Y-27039D02*
X43157Y-26448D01*
X42904Y-27039D02*
X42904Y-26729D01*
X42932Y-26673D01*
X42988Y-26645D01*
X43073Y-26645D01*
X43129Y-26673D01*
X43157Y-26701D01*
X42370Y-26645D02*
X42370Y-27039D01*
X42623Y-26645D02*
X42623Y-26954D01*
X42595Y-27010D01*
X42538Y-27039D01*
X42454Y-27039D01*
X42398Y-27010D01*
X42370Y-26982D01*
X42089Y-27039D02*
X42089Y-26448D01*
X42089Y-26673D02*
X42032Y-26645D01*
X41920Y-26645D01*
X41864Y-26673D01*
X41835Y-26701D01*
X41807Y-26757D01*
X41807Y-26926D01*
X41835Y-26982D01*
X41864Y-27010D01*
X41920Y-27039D01*
X42032Y-27039D01*
X42089Y-27010D01*
X41554Y-26982D02*
X41526Y-27010D01*
X41554Y-27039D01*
X41582Y-27010D01*
X41554Y-26982D01*
X41554Y-27039D01*
X41020Y-27010D02*
X41076Y-27039D01*
X41189Y-27039D01*
X41245Y-27010D01*
X41273Y-26982D01*
X41301Y-26926D01*
X41301Y-26757D01*
X41273Y-26701D01*
X41245Y-26673D01*
X41189Y-26645D01*
X41076Y-26645D01*
X41020Y-26673D01*
X40682Y-27039D02*
X40739Y-27010D01*
X40767Y-26982D01*
X40795Y-26926D01*
X40795Y-26757D01*
X40767Y-26701D01*
X40739Y-26673D01*
X40682Y-26645D01*
X40598Y-26645D01*
X40542Y-26673D01*
X40514Y-26701D01*
X40486Y-26757D01*
X40486Y-26926D01*
X40514Y-26982D01*
X40542Y-27010D01*
X40598Y-27039D01*
X40682Y-27039D01*
X40233Y-27039D02*
X40233Y-26645D01*
X40233Y-26701D02*
X40204Y-26673D01*
X40148Y-26645D01*
X40064Y-26645D01*
X40008Y-26673D01*
X39979Y-26729D01*
X39979Y-27039D01*
X39979Y-26729D02*
X39951Y-26673D01*
X39895Y-26645D01*
X39811Y-26645D01*
X39754Y-26673D01*
X39726Y-26729D01*
X39726Y-27039D01*
X39023Y-26420D02*
X39529Y-27179D01*
X38826Y-27039D02*
X38826Y-26645D01*
X38826Y-26701D02*
X38798Y-26673D01*
X38742Y-26645D01*
X38658Y-26645D01*
X38601Y-26673D01*
X38573Y-26729D01*
X38573Y-27039D01*
X38573Y-26729D02*
X38545Y-26673D01*
X38489Y-26645D01*
X38405Y-26645D01*
X38348Y-26673D01*
X38320Y-26729D01*
X38320Y-27039D01*
X37786Y-27039D02*
X37786Y-26729D01*
X37814Y-26673D01*
X37870Y-26645D01*
X37983Y-26645D01*
X38039Y-26673D01*
X37786Y-27010D02*
X37842Y-27039D01*
X37983Y-27039D01*
X38039Y-27010D01*
X38067Y-26954D01*
X38067Y-26898D01*
X38039Y-26842D01*
X37983Y-26814D01*
X37842Y-26814D01*
X37786Y-26785D01*
X37505Y-27039D02*
X37505Y-26645D01*
X37505Y-26757D02*
X37477Y-26701D01*
X37448Y-26673D01*
X37392Y-26645D01*
X37336Y-26645D01*
X37139Y-27039D02*
X37139Y-26448D01*
X37083Y-26814D02*
X36914Y-27039D01*
X36914Y-26645D02*
X37139Y-26870D01*
X36661Y-26645D02*
X36661Y-27151D01*
X36689Y-27207D01*
X36745Y-27235D01*
X36774Y-27235D01*
X36661Y-26448D02*
X36689Y-26476D01*
X36661Y-26504D01*
X36633Y-26476D01*
X36661Y-26448D01*
X36661Y-26504D01*
X36380Y-27039D02*
X36380Y-26448D01*
X36380Y-26673D02*
X36324Y-26645D01*
X36211Y-26645D01*
X36155Y-26673D01*
X36127Y-26701D01*
X36099Y-26757D01*
X36099Y-26926D01*
X36127Y-26982D01*
X36155Y-27010D01*
X36211Y-27039D01*
X36324Y-27039D01*
X36380Y-27010D01*
X47108Y-24589D02*
X47108Y-23998D01*
X46912Y-24420D01*
X46715Y-23998D01*
X46715Y-24589D01*
X46462Y-24560D02*
X46377Y-24589D01*
X46237Y-24589D01*
X46180Y-24560D01*
X46152Y-24532D01*
X46124Y-24476D01*
X46124Y-24420D01*
X46152Y-24364D01*
X46180Y-24335D01*
X46237Y-24307D01*
X46349Y-24279D01*
X46405Y-24251D01*
X46434Y-24223D01*
X46462Y-24167D01*
X46462Y-24110D01*
X46434Y-24054D01*
X46405Y-24026D01*
X46349Y-23998D01*
X46209Y-23998D01*
X46124Y-24026D01*
X45871Y-24589D02*
X45871Y-23998D01*
X45646Y-23998D01*
X45590Y-24026D01*
X45562Y-24054D01*
X45534Y-24110D01*
X45534Y-24195D01*
X45562Y-24251D01*
X45590Y-24279D01*
X45646Y-24307D01*
X45871Y-24307D01*
X45027Y-24195D02*
X45027Y-24589D01*
X45168Y-23970D02*
X45309Y-24392D01*
X44943Y-24392D01*
X44774Y-23998D02*
X44409Y-23998D01*
X44606Y-24223D01*
X44521Y-24223D01*
X44465Y-24251D01*
X44437Y-24279D01*
X44409Y-24335D01*
X44409Y-24476D01*
X44437Y-24532D01*
X44465Y-24560D01*
X44521Y-24589D01*
X44690Y-24589D01*
X44746Y-24560D01*
X44774Y-24532D01*
X44043Y-23998D02*
X43987Y-23998D01*
X43931Y-24026D01*
X43903Y-24054D01*
X43874Y-24110D01*
X43846Y-24223D01*
X43846Y-24364D01*
X43874Y-24476D01*
X43903Y-24532D01*
X43931Y-24560D01*
X43987Y-24589D01*
X44043Y-24589D01*
X44099Y-24560D01*
X44128Y-24532D01*
X44156Y-24476D01*
X44184Y-24364D01*
X44184Y-24223D01*
X44156Y-24110D01*
X44128Y-24054D01*
X44099Y-24026D01*
X44043Y-23998D01*
X43143Y-24589D02*
X43143Y-23998D01*
X42918Y-23998D01*
X42862Y-24026D01*
X42834Y-24054D01*
X42806Y-24110D01*
X42806Y-24195D01*
X42834Y-24251D01*
X42862Y-24279D01*
X42918Y-24307D01*
X43143Y-24307D01*
X42440Y-23998D02*
X42328Y-23998D01*
X42272Y-24026D01*
X42215Y-24082D01*
X42187Y-24195D01*
X42187Y-24392D01*
X42215Y-24504D01*
X42272Y-24560D01*
X42328Y-24589D01*
X42440Y-24589D01*
X42497Y-24560D01*
X42553Y-24504D01*
X42581Y-24392D01*
X42581Y-24195D01*
X42553Y-24082D01*
X42497Y-24026D01*
X42440Y-23998D01*
X42018Y-23998D02*
X41822Y-24589D01*
X41625Y-23998D01*
X41062Y-23998D02*
X40865Y-24589D01*
X40669Y-23998D01*
X40500Y-24054D02*
X40472Y-24026D01*
X40416Y-23998D01*
X40275Y-23998D01*
X40219Y-24026D01*
X40191Y-24054D01*
X40162Y-24110D01*
X40162Y-24167D01*
X40191Y-24251D01*
X40528Y-24589D01*
X40162Y-24589D01*
G54D12*
X34000Y-22000D02*
X34000Y-28000D01*
X53500Y-22000D02*
X34000Y-22000D01*
X53500Y-36000D02*
X53500Y-22000D01*
X34000Y-36000D02*
X53500Y-36000D01*
X34000Y-28000D02*
X34000Y-36000D01*
%LPC*%
G54D13*
X36200Y-34500D03*
X37200Y-34500D03*
G54D14*
X35500Y-28000D03*
X43500Y-28000D03*
G54D15*
X52050Y-30500D03*
G54D16*
X52050Y-29500D03*
X52050Y-28500D03*
X52050Y-27500D03*
G54D15*
X50000Y-30500D03*
G54D16*
X50000Y-29500D03*
X50000Y-28500D03*
X50000Y-27500D03*
G54D15*
X37000Y-23000D03*
G54D16*
X36000Y-23000D03*
X35000Y-23000D03*
X51250Y-33000D03*
X52250Y-33000D03*
X49000Y-33000D03*
X50000Y-33000D03*
X46750Y-33000D03*
X47750Y-33000D03*
X44500Y-33000D03*
X45500Y-33000D03*
X42250Y-33000D03*
X43250Y-33000D03*
X40000Y-33000D03*
X41000Y-33000D03*
X37750Y-33000D03*
X38750Y-33000D03*
X35500Y-33000D03*
X36500Y-33000D03*
G54D13*
X50600Y-34500D03*
X51600Y-34500D03*
X48500Y-34500D03*
X49500Y-34500D03*
X46450Y-34500D03*
X47450Y-34500D03*
X44400Y-34500D03*
X45400Y-34500D03*
X42350Y-34500D03*
X43350Y-34500D03*
X40300Y-34500D03*
X41300Y-34500D03*
X38250Y-34500D03*
X39250Y-34500D03*
G54D15*
X51700Y-22750D03*
G54D16*
X50700Y-22750D03*
X49700Y-22750D03*
X48700Y-22750D03*
X47700Y-22750D03*
X46700Y-22750D03*
X45700Y-22750D03*
X44700Y-22750D03*
X43700Y-22750D03*
X42700Y-22750D03*
X42700Y-25750D03*
X43700Y-25750D03*
X44700Y-25750D03*
X45700Y-25750D03*
X46700Y-25750D03*
X47700Y-25750D03*
X48700Y-25750D03*
X49700Y-25750D03*
X50700Y-25750D03*
X51700Y-25750D03*
X51950Y-31800D03*
X52950Y-31800D03*
X52850Y-23750D03*
X52850Y-24750D03*
G54D17*
X34850Y-24350D03*
X34900Y-31700D03*
M02*
