G04 (created by PCBNEW (2013-07-07 BZR 4022)-stable) date 06/07/2014 17:43:10*
%MOIN*%
G04 Gerber Fmt 3.4, Leading zero omitted, Abs format*
%FSLAX34Y34*%
G01*
G70*
G90*
G04 APERTURE LIST*
%ADD10C,0.00590551*%
%ADD11C,0.00393701*%
%ADD12C,0.0590551*%
%ADD13C,0.09*%
%ADD14R,0.055X0.055*%
%ADD15C,0.055*%
%ADD16C,0.1*%
%ADD17C,0.035*%
%ADD18C,0.01*%
G04 APERTURE END LIST*
G54D10*
G54D11*
X34000Y-22000D02*
X34000Y-28000D01*
X53500Y-22000D02*
X34000Y-22000D01*
X53500Y-36000D02*
X53500Y-22000D01*
X34000Y-36000D02*
X53500Y-36000D01*
X34000Y-28000D02*
X34000Y-36000D01*
G54D12*
X36200Y-34500D03*
X37200Y-34500D03*
G54D13*
X35500Y-28000D03*
X43500Y-28000D03*
G54D14*
X52050Y-30500D03*
G54D15*
X52050Y-29500D03*
X52050Y-28500D03*
X52050Y-27500D03*
G54D14*
X50000Y-30500D03*
G54D15*
X50000Y-29500D03*
X50000Y-28500D03*
X50000Y-27500D03*
G54D14*
X37000Y-23000D03*
G54D15*
X36000Y-23000D03*
X35000Y-23000D03*
X51250Y-33000D03*
X52250Y-33000D03*
X49000Y-33000D03*
X50000Y-33000D03*
X46750Y-33000D03*
X47750Y-33000D03*
X44500Y-33000D03*
X45500Y-33000D03*
X42250Y-33000D03*
X43250Y-33000D03*
X40000Y-33000D03*
X41000Y-33000D03*
X37750Y-33000D03*
X38750Y-33000D03*
X35500Y-33000D03*
X36500Y-33000D03*
G54D12*
X50600Y-34500D03*
X51600Y-34500D03*
X48500Y-34500D03*
X49500Y-34500D03*
X46450Y-34500D03*
X47450Y-34500D03*
X44400Y-34500D03*
X45400Y-34500D03*
X42350Y-34500D03*
X43350Y-34500D03*
X40300Y-34500D03*
X41300Y-34500D03*
X38250Y-34500D03*
X39250Y-34500D03*
G54D14*
X51700Y-22750D03*
G54D15*
X50700Y-22750D03*
X49700Y-22750D03*
X48700Y-22750D03*
X47700Y-22750D03*
X46700Y-22750D03*
X45700Y-22750D03*
X44700Y-22750D03*
X43700Y-22750D03*
X42700Y-22750D03*
X42700Y-25750D03*
X43700Y-25750D03*
X44700Y-25750D03*
X45700Y-25750D03*
X46700Y-25750D03*
X47700Y-25750D03*
X48700Y-25750D03*
X49700Y-25750D03*
X50700Y-25750D03*
X51700Y-25750D03*
X51950Y-31800D03*
X52950Y-31800D03*
X52850Y-23750D03*
X52850Y-24750D03*
G54D16*
X34850Y-24350D03*
X34900Y-31700D03*
G54D17*
X47700Y-27800D03*
X39450Y-26150D03*
X40150Y-24800D03*
G54D18*
X50700Y-25750D02*
X50700Y-25650D01*
X49200Y-32800D02*
X49000Y-33000D01*
X49200Y-25400D02*
X49200Y-32800D01*
X49500Y-25100D02*
X49200Y-25400D01*
X50150Y-25100D02*
X49500Y-25100D01*
X50700Y-25650D02*
X50150Y-25100D01*
X42700Y-25750D02*
X42800Y-25750D01*
X43050Y-32200D02*
X42250Y-33000D01*
X43950Y-32200D02*
X43050Y-32200D01*
X45300Y-30850D02*
X43950Y-32200D01*
X45300Y-28250D02*
X45300Y-30850D01*
X42800Y-25750D02*
X45300Y-28250D01*
X52850Y-23750D02*
X52850Y-23800D01*
X52650Y-30500D02*
X52050Y-30500D01*
X52900Y-30250D02*
X52650Y-30500D01*
X52900Y-26850D02*
X52900Y-30250D01*
X52300Y-26250D02*
X52900Y-26850D01*
X52300Y-24350D02*
X52300Y-26250D01*
X52850Y-23800D02*
X52300Y-24350D01*
X36000Y-23000D02*
X36000Y-23300D01*
X42400Y-28000D02*
X43500Y-28000D01*
X41750Y-27350D02*
X42400Y-28000D01*
X41750Y-25150D02*
X41750Y-27350D01*
X40600Y-24000D02*
X41750Y-25150D01*
X36700Y-24000D02*
X40600Y-24000D01*
X36000Y-23300D02*
X36700Y-24000D01*
X43700Y-25750D02*
X43900Y-25750D01*
X46150Y-31350D02*
X44500Y-33000D01*
X46150Y-28000D02*
X46150Y-31350D01*
X43900Y-25750D02*
X46150Y-28000D01*
X36200Y-34500D02*
X37050Y-33650D01*
X36150Y-28000D02*
X35500Y-28000D01*
X37050Y-28900D02*
X36150Y-28000D01*
X37050Y-33650D02*
X37050Y-28900D01*
X50600Y-34500D02*
X50600Y-34000D01*
X50650Y-24700D02*
X51700Y-25750D01*
X48750Y-24700D02*
X50650Y-24700D01*
X48200Y-25250D02*
X48750Y-24700D01*
X48200Y-33350D02*
X48200Y-25250D01*
X48600Y-33750D02*
X48200Y-33350D01*
X50350Y-33750D02*
X48600Y-33750D01*
X50600Y-34000D02*
X50350Y-33750D01*
X44700Y-25750D02*
X46800Y-27850D01*
X46800Y-32950D02*
X46750Y-33000D01*
X46800Y-27850D02*
X46800Y-32950D01*
X51250Y-33000D02*
X51250Y-27300D01*
X51250Y-27300D02*
X49700Y-25750D01*
X48600Y-23850D02*
X49700Y-22750D01*
X47350Y-23850D02*
X48600Y-23850D01*
X46200Y-25000D02*
X47350Y-23850D01*
X46200Y-26300D02*
X46200Y-25000D01*
X47700Y-27800D02*
X46200Y-26300D01*
X37750Y-27850D02*
X37750Y-33000D01*
X39450Y-26150D02*
X37750Y-27850D01*
X40000Y-24950D02*
X40000Y-33000D01*
X40150Y-24800D02*
X40000Y-24950D01*
M02*
