G04 (created by PCBNEW (2013-07-07 BZR 4022)-stable) date 06/07/2014 17:43:10*
%MOIN*%
G04 Gerber Fmt 3.4, Leading zero omitted, Abs format*
%FSLAX34Y34*%
G01*
G70*
G90*
G04 APERTURE LIST*
%ADD10C,0.00590551*%
%ADD11C,0.011811*%
%ADD12C,0.00393701*%
%ADD13C,0.015748*%
%ADD14C,0.015*%
%ADD15C,0.012*%
%ADD16C,0.0001*%
%ADD17C,0.0107*%
%ADD18C,0.0106*%
%ADD19C,0.008*%
%ADD20C,0.01125*%
%ADD21C,0.0590551*%
%ADD22C,0.09*%
%ADD23R,0.055X0.055*%
%ADD24C,0.055*%
%ADD25C,0.1*%
G04 APERTURE END LIST*
G54D10*
X47374Y-27777D02*
X47374Y-27462D01*
X47494Y-27462D01*
X47524Y-27477D01*
X47539Y-27492D01*
X47554Y-27522D01*
X47554Y-27567D01*
X47539Y-27597D01*
X47524Y-27612D01*
X47494Y-27627D01*
X47374Y-27627D01*
X47674Y-27492D02*
X47689Y-27477D01*
X47719Y-27462D01*
X47794Y-27462D01*
X47824Y-27477D01*
X47839Y-27492D01*
X47854Y-27522D01*
X47854Y-27552D01*
X47839Y-27597D01*
X47659Y-27777D01*
X47854Y-27777D01*
X48229Y-27777D02*
X48229Y-27462D01*
X48349Y-27462D01*
X48379Y-27477D01*
X48394Y-27492D01*
X48409Y-27522D01*
X48409Y-27567D01*
X48394Y-27597D01*
X48379Y-27612D01*
X48349Y-27627D01*
X48229Y-27627D01*
X48544Y-27777D02*
X48544Y-27567D01*
X48544Y-27627D02*
X48559Y-27597D01*
X48574Y-27582D01*
X48604Y-27567D01*
X48634Y-27567D01*
X48784Y-27777D02*
X48754Y-27762D01*
X48739Y-27747D01*
X48724Y-27717D01*
X48724Y-27627D01*
X48739Y-27597D01*
X48754Y-27582D01*
X48784Y-27567D01*
X48829Y-27567D01*
X48859Y-27582D01*
X48874Y-27597D01*
X48889Y-27627D01*
X48889Y-27717D01*
X48874Y-27747D01*
X48859Y-27762D01*
X48829Y-27777D01*
X48784Y-27777D01*
X49159Y-27567D02*
X49159Y-27822D01*
X49144Y-27852D01*
X49129Y-27867D01*
X49099Y-27882D01*
X49054Y-27882D01*
X49024Y-27867D01*
X49159Y-27762D02*
X49129Y-27777D01*
X49069Y-27777D01*
X49039Y-27762D01*
X49024Y-27747D01*
X49009Y-27717D01*
X49009Y-27627D01*
X49024Y-27597D01*
X49039Y-27582D01*
X49069Y-27567D01*
X49129Y-27567D01*
X49159Y-27582D01*
X47539Y-28277D02*
X47359Y-28277D01*
X47449Y-28277D02*
X47449Y-27962D01*
X47419Y-28007D01*
X47389Y-28037D01*
X47359Y-28052D01*
X47674Y-28112D02*
X47914Y-28112D01*
X47914Y-28202D02*
X47674Y-28202D01*
X48034Y-27962D02*
X48229Y-27962D01*
X48124Y-28082D01*
X48169Y-28082D01*
X48199Y-28097D01*
X48214Y-28112D01*
X48229Y-28142D01*
X48229Y-28217D01*
X48214Y-28247D01*
X48199Y-28262D01*
X48169Y-28277D01*
X48079Y-28277D01*
X48049Y-28262D01*
X48034Y-28247D01*
X48334Y-28067D02*
X48409Y-28277D01*
X48484Y-28067D01*
X47359Y-28492D02*
X47374Y-28477D01*
X47404Y-28462D01*
X47479Y-28462D01*
X47509Y-28477D01*
X47524Y-28492D01*
X47539Y-28522D01*
X47539Y-28552D01*
X47524Y-28597D01*
X47344Y-28777D01*
X47539Y-28777D01*
X47674Y-28612D02*
X47914Y-28612D01*
X47914Y-28702D02*
X47674Y-28702D01*
X48019Y-28462D02*
X48199Y-28462D01*
X48109Y-28777D02*
X48109Y-28462D01*
X48304Y-28612D02*
X48409Y-28612D01*
X48454Y-28777D02*
X48304Y-28777D01*
X48304Y-28462D01*
X48454Y-28462D01*
X48574Y-28762D02*
X48619Y-28777D01*
X48694Y-28777D01*
X48724Y-28762D01*
X48739Y-28747D01*
X48754Y-28717D01*
X48754Y-28687D01*
X48739Y-28657D01*
X48724Y-28642D01*
X48694Y-28627D01*
X48634Y-28612D01*
X48604Y-28597D01*
X48589Y-28582D01*
X48574Y-28552D01*
X48574Y-28522D01*
X48589Y-28492D01*
X48604Y-28477D01*
X48634Y-28462D01*
X48709Y-28462D01*
X48754Y-28477D01*
X48844Y-28462D02*
X49024Y-28462D01*
X48934Y-28777D02*
X48934Y-28462D01*
X47344Y-28962D02*
X47539Y-28962D01*
X47434Y-29082D01*
X47479Y-29082D01*
X47509Y-29097D01*
X47524Y-29112D01*
X47539Y-29142D01*
X47539Y-29217D01*
X47524Y-29247D01*
X47509Y-29262D01*
X47479Y-29277D01*
X47389Y-29277D01*
X47359Y-29262D01*
X47344Y-29247D01*
X47674Y-29112D02*
X47914Y-29112D01*
X47914Y-29202D02*
X47674Y-29202D01*
X48244Y-29277D02*
X48139Y-29127D01*
X48064Y-29277D02*
X48064Y-28962D01*
X48184Y-28962D01*
X48214Y-28977D01*
X48229Y-28992D01*
X48244Y-29022D01*
X48244Y-29067D01*
X48229Y-29097D01*
X48214Y-29112D01*
X48184Y-29127D01*
X48064Y-29127D01*
X48364Y-29262D02*
X48409Y-29277D01*
X48484Y-29277D01*
X48514Y-29262D01*
X48529Y-29247D01*
X48544Y-29217D01*
X48544Y-29187D01*
X48529Y-29157D01*
X48514Y-29142D01*
X48484Y-29127D01*
X48424Y-29112D01*
X48394Y-29097D01*
X48379Y-29082D01*
X48364Y-29052D01*
X48364Y-29022D01*
X48379Y-28992D01*
X48394Y-28977D01*
X48424Y-28962D01*
X48499Y-28962D01*
X48544Y-28977D01*
X48634Y-28962D02*
X48814Y-28962D01*
X48724Y-29277D02*
X48724Y-28962D01*
X47989Y-28872D02*
X48844Y-28872D01*
X47509Y-29567D02*
X47509Y-29777D01*
X47434Y-29447D02*
X47359Y-29672D01*
X47554Y-29672D01*
X47674Y-29612D02*
X47914Y-29612D01*
X47914Y-29702D02*
X47674Y-29702D01*
X48229Y-29477D02*
X48199Y-29462D01*
X48154Y-29462D01*
X48109Y-29477D01*
X48079Y-29507D01*
X48064Y-29537D01*
X48049Y-29597D01*
X48049Y-29642D01*
X48064Y-29702D01*
X48079Y-29732D01*
X48109Y-29762D01*
X48154Y-29777D01*
X48184Y-29777D01*
X48229Y-29762D01*
X48244Y-29747D01*
X48244Y-29642D01*
X48184Y-29642D01*
X48379Y-29777D02*
X48379Y-29462D01*
X48559Y-29777D01*
X48559Y-29462D01*
X48709Y-29777D02*
X48709Y-29462D01*
X48784Y-29462D01*
X48829Y-29477D01*
X48859Y-29507D01*
X48874Y-29537D01*
X48889Y-29597D01*
X48889Y-29642D01*
X48874Y-29702D01*
X48859Y-29732D01*
X48829Y-29762D01*
X48784Y-29777D01*
X48709Y-29777D01*
G54D11*
X37836Y-23289D02*
X37836Y-22698D01*
X38061Y-22698D01*
X38117Y-22726D01*
X38145Y-22754D01*
X38173Y-22810D01*
X38173Y-22895D01*
X38145Y-22951D01*
X38117Y-22979D01*
X38061Y-23007D01*
X37836Y-23007D01*
X38539Y-22698D02*
X38651Y-22698D01*
X38707Y-22726D01*
X38764Y-22782D01*
X38792Y-22895D01*
X38792Y-23092D01*
X38764Y-23204D01*
X38707Y-23260D01*
X38651Y-23289D01*
X38539Y-23289D01*
X38482Y-23260D01*
X38426Y-23204D01*
X38398Y-23092D01*
X38398Y-22895D01*
X38426Y-22782D01*
X38482Y-22726D01*
X38539Y-22698D01*
X38989Y-22698D02*
X39129Y-23289D01*
X39242Y-22867D01*
X39354Y-23289D01*
X39495Y-22698D01*
X39720Y-22979D02*
X39917Y-22979D01*
X40001Y-23289D02*
X39720Y-23289D01*
X39720Y-22698D01*
X40001Y-22698D01*
X40592Y-23289D02*
X40395Y-23007D01*
X40254Y-23289D02*
X40254Y-22698D01*
X40479Y-22698D01*
X40535Y-22726D01*
X40563Y-22754D01*
X40592Y-22810D01*
X40592Y-22895D01*
X40563Y-22951D01*
X40535Y-22979D01*
X40479Y-23007D01*
X40254Y-23007D01*
G54D10*
X45274Y-27827D02*
X45274Y-27512D01*
X45394Y-27512D01*
X45424Y-27527D01*
X45439Y-27542D01*
X45454Y-27572D01*
X45454Y-27617D01*
X45439Y-27647D01*
X45424Y-27662D01*
X45394Y-27677D01*
X45274Y-27677D01*
X45754Y-27827D02*
X45574Y-27827D01*
X45664Y-27827D02*
X45664Y-27512D01*
X45634Y-27557D01*
X45604Y-27587D01*
X45574Y-27602D01*
X46309Y-27797D02*
X46294Y-27812D01*
X46249Y-27827D01*
X46219Y-27827D01*
X46174Y-27812D01*
X46144Y-27782D01*
X46129Y-27752D01*
X46114Y-27692D01*
X46114Y-27647D01*
X46129Y-27587D01*
X46144Y-27557D01*
X46174Y-27527D01*
X46219Y-27512D01*
X46249Y-27512D01*
X46294Y-27527D01*
X46309Y-27542D01*
X46489Y-27827D02*
X46459Y-27812D01*
X46444Y-27797D01*
X46429Y-27767D01*
X46429Y-27677D01*
X46444Y-27647D01*
X46459Y-27632D01*
X46489Y-27617D01*
X46534Y-27617D01*
X46564Y-27632D01*
X46579Y-27647D01*
X46594Y-27677D01*
X46594Y-27767D01*
X46579Y-27797D01*
X46564Y-27812D01*
X46534Y-27827D01*
X46489Y-27827D01*
X46729Y-27827D02*
X46729Y-27617D01*
X46729Y-27647D02*
X46744Y-27632D01*
X46774Y-27617D01*
X46819Y-27617D01*
X46849Y-27632D01*
X46864Y-27662D01*
X46864Y-27827D01*
X46864Y-27662D02*
X46879Y-27632D01*
X46909Y-27617D01*
X46954Y-27617D01*
X46984Y-27632D01*
X46999Y-27662D01*
X46999Y-27827D01*
X45439Y-28327D02*
X45259Y-28327D01*
X45349Y-28327D02*
X45349Y-28012D01*
X45319Y-28057D01*
X45289Y-28087D01*
X45259Y-28102D01*
X45574Y-28162D02*
X45814Y-28162D01*
X45814Y-28252D02*
X45574Y-28252D01*
X45934Y-28012D02*
X46129Y-28012D01*
X46024Y-28132D01*
X46069Y-28132D01*
X46099Y-28147D01*
X46114Y-28162D01*
X46129Y-28192D01*
X46129Y-28267D01*
X46114Y-28297D01*
X46099Y-28312D01*
X46069Y-28327D01*
X45979Y-28327D01*
X45949Y-28312D01*
X45934Y-28297D01*
X46234Y-28117D02*
X46309Y-28327D01*
X46384Y-28117D01*
X45259Y-28542D02*
X45274Y-28527D01*
X45304Y-28512D01*
X45379Y-28512D01*
X45409Y-28527D01*
X45424Y-28542D01*
X45439Y-28572D01*
X45439Y-28602D01*
X45424Y-28647D01*
X45244Y-28827D01*
X45439Y-28827D01*
X45574Y-28662D02*
X45814Y-28662D01*
X45814Y-28752D02*
X45574Y-28752D01*
X45919Y-28512D02*
X46099Y-28512D01*
X46009Y-28827D02*
X46009Y-28512D01*
X46174Y-28512D02*
X46384Y-28827D01*
X46384Y-28512D02*
X46174Y-28827D01*
X45244Y-29012D02*
X45439Y-29012D01*
X45334Y-29132D01*
X45379Y-29132D01*
X45409Y-29147D01*
X45424Y-29162D01*
X45439Y-29192D01*
X45439Y-29267D01*
X45424Y-29297D01*
X45409Y-29312D01*
X45379Y-29327D01*
X45289Y-29327D01*
X45259Y-29312D01*
X45244Y-29297D01*
X45574Y-29162D02*
X45814Y-29162D01*
X45814Y-29252D02*
X45574Y-29252D01*
X46144Y-29327D02*
X46039Y-29177D01*
X45964Y-29327D02*
X45964Y-29012D01*
X46084Y-29012D01*
X46114Y-29027D01*
X46129Y-29042D01*
X46144Y-29072D01*
X46144Y-29117D01*
X46129Y-29147D01*
X46114Y-29162D01*
X46084Y-29177D01*
X45964Y-29177D01*
X46249Y-29012D02*
X46459Y-29327D01*
X46459Y-29012D02*
X46249Y-29327D01*
X45409Y-29617D02*
X45409Y-29827D01*
X45334Y-29497D02*
X45259Y-29722D01*
X45454Y-29722D01*
X45574Y-29662D02*
X45814Y-29662D01*
X45814Y-29752D02*
X45574Y-29752D01*
X46129Y-29527D02*
X46099Y-29512D01*
X46054Y-29512D01*
X46009Y-29527D01*
X45979Y-29557D01*
X45964Y-29587D01*
X45949Y-29647D01*
X45949Y-29692D01*
X45964Y-29752D01*
X45979Y-29782D01*
X46009Y-29812D01*
X46054Y-29827D01*
X46084Y-29827D01*
X46129Y-29812D01*
X46144Y-29797D01*
X46144Y-29692D01*
X46084Y-29692D01*
X46279Y-29827D02*
X46279Y-29512D01*
X46459Y-29827D01*
X46459Y-29512D01*
X46609Y-29827D02*
X46609Y-29512D01*
X46684Y-29512D01*
X46729Y-29527D01*
X46759Y-29557D01*
X46774Y-29587D01*
X46789Y-29647D01*
X46789Y-29692D01*
X46774Y-29752D01*
X46759Y-29782D01*
X46729Y-29812D01*
X46684Y-29827D01*
X46609Y-29827D01*
G54D11*
X41961Y-31395D02*
X41961Y-31873D01*
X41933Y-31929D01*
X41905Y-31957D01*
X41848Y-31985D01*
X41764Y-31985D01*
X41708Y-31957D01*
X41961Y-31760D02*
X41905Y-31789D01*
X41792Y-31789D01*
X41736Y-31760D01*
X41708Y-31732D01*
X41680Y-31676D01*
X41680Y-31507D01*
X41708Y-31451D01*
X41736Y-31423D01*
X41792Y-31395D01*
X41905Y-31395D01*
X41961Y-31423D01*
X42242Y-31789D02*
X42242Y-31395D01*
X42242Y-31198D02*
X42214Y-31226D01*
X42242Y-31254D01*
X42270Y-31226D01*
X42242Y-31198D01*
X42242Y-31254D01*
X42439Y-31395D02*
X42664Y-31395D01*
X42523Y-31198D02*
X42523Y-31704D01*
X42551Y-31760D01*
X42608Y-31789D01*
X42664Y-31789D01*
X42861Y-31789D02*
X42861Y-31198D01*
X43114Y-31789D02*
X43114Y-31479D01*
X43086Y-31423D01*
X43030Y-31395D01*
X42945Y-31395D01*
X42889Y-31423D01*
X42861Y-31451D01*
X43648Y-31395D02*
X43648Y-31789D01*
X43395Y-31395D02*
X43395Y-31704D01*
X43423Y-31760D01*
X43479Y-31789D01*
X43564Y-31789D01*
X43620Y-31760D01*
X43648Y-31732D01*
X43929Y-31789D02*
X43929Y-31198D01*
X43929Y-31423D02*
X43986Y-31395D01*
X44098Y-31395D01*
X44154Y-31423D01*
X44183Y-31451D01*
X44211Y-31507D01*
X44211Y-31676D01*
X44183Y-31732D01*
X44154Y-31760D01*
X44098Y-31789D01*
X43986Y-31789D01*
X43929Y-31760D01*
X44464Y-31732D02*
X44492Y-31760D01*
X44464Y-31789D01*
X44436Y-31760D01*
X44464Y-31732D01*
X44464Y-31789D01*
X44998Y-31760D02*
X44942Y-31789D01*
X44829Y-31789D01*
X44773Y-31760D01*
X44745Y-31732D01*
X44717Y-31676D01*
X44717Y-31507D01*
X44745Y-31451D01*
X44773Y-31423D01*
X44829Y-31395D01*
X44942Y-31395D01*
X44998Y-31423D01*
X45335Y-31789D02*
X45279Y-31760D01*
X45251Y-31732D01*
X45223Y-31676D01*
X45223Y-31507D01*
X45251Y-31451D01*
X45279Y-31423D01*
X45335Y-31395D01*
X45420Y-31395D01*
X45476Y-31423D01*
X45504Y-31451D01*
X45532Y-31507D01*
X45532Y-31676D01*
X45504Y-31732D01*
X45476Y-31760D01*
X45420Y-31789D01*
X45335Y-31789D01*
X45785Y-31789D02*
X45785Y-31395D01*
X45785Y-31451D02*
X45814Y-31423D01*
X45870Y-31395D01*
X45954Y-31395D01*
X46010Y-31423D01*
X46039Y-31479D01*
X46039Y-31789D01*
X46039Y-31479D02*
X46067Y-31423D01*
X46123Y-31395D01*
X46207Y-31395D01*
X46264Y-31423D01*
X46292Y-31479D01*
X46292Y-31789D01*
X46995Y-31170D02*
X46488Y-31929D01*
X47192Y-31789D02*
X47192Y-31395D01*
X47192Y-31451D02*
X47220Y-31423D01*
X47276Y-31395D01*
X47360Y-31395D01*
X47416Y-31423D01*
X47445Y-31479D01*
X47445Y-31789D01*
X47445Y-31479D02*
X47473Y-31423D01*
X47529Y-31395D01*
X47613Y-31395D01*
X47670Y-31423D01*
X47698Y-31479D01*
X47698Y-31789D01*
X48232Y-31789D02*
X48232Y-31479D01*
X48204Y-31423D01*
X48148Y-31395D01*
X48035Y-31395D01*
X47979Y-31423D01*
X48232Y-31760D02*
X48176Y-31789D01*
X48035Y-31789D01*
X47979Y-31760D01*
X47951Y-31704D01*
X47951Y-31648D01*
X47979Y-31592D01*
X48035Y-31564D01*
X48176Y-31564D01*
X48232Y-31535D01*
X48513Y-31789D02*
X48513Y-31395D01*
X48513Y-31507D02*
X48541Y-31451D01*
X48569Y-31423D01*
X48626Y-31395D01*
X48682Y-31395D01*
X48879Y-31789D02*
X48879Y-31198D01*
X48935Y-31564D02*
X49104Y-31789D01*
X49104Y-31395D02*
X48879Y-31620D01*
X49357Y-31395D02*
X49357Y-31901D01*
X49329Y-31957D01*
X49273Y-31985D01*
X49244Y-31985D01*
X49357Y-31198D02*
X49329Y-31226D01*
X49357Y-31254D01*
X49385Y-31226D01*
X49357Y-31198D01*
X49357Y-31254D01*
X49638Y-31789D02*
X49638Y-31198D01*
X49638Y-31423D02*
X49694Y-31395D01*
X49807Y-31395D01*
X49863Y-31423D01*
X49891Y-31451D01*
X49919Y-31507D01*
X49919Y-31676D01*
X49891Y-31732D01*
X49863Y-31760D01*
X49807Y-31789D01*
X49694Y-31789D01*
X49638Y-31760D01*
X42319Y-30939D02*
X42319Y-30348D01*
X42516Y-30770D01*
X42712Y-30348D01*
X42712Y-30939D01*
X42965Y-30910D02*
X43050Y-30939D01*
X43190Y-30939D01*
X43247Y-30910D01*
X43275Y-30882D01*
X43303Y-30826D01*
X43303Y-30770D01*
X43275Y-30714D01*
X43247Y-30685D01*
X43190Y-30657D01*
X43078Y-30629D01*
X43022Y-30601D01*
X42994Y-30573D01*
X42965Y-30517D01*
X42965Y-30460D01*
X42994Y-30404D01*
X43022Y-30376D01*
X43078Y-30348D01*
X43219Y-30348D01*
X43303Y-30376D01*
X43556Y-30939D02*
X43556Y-30348D01*
X43781Y-30348D01*
X43837Y-30376D01*
X43865Y-30404D01*
X43893Y-30460D01*
X43893Y-30545D01*
X43865Y-30601D01*
X43837Y-30629D01*
X43781Y-30657D01*
X43556Y-30657D01*
X44400Y-30545D02*
X44400Y-30939D01*
X44259Y-30320D02*
X44118Y-30742D01*
X44484Y-30742D01*
X44653Y-30348D02*
X45018Y-30348D01*
X44821Y-30573D01*
X44906Y-30573D01*
X44962Y-30601D01*
X44990Y-30629D01*
X45018Y-30685D01*
X45018Y-30826D01*
X44990Y-30882D01*
X44962Y-30910D01*
X44906Y-30939D01*
X44737Y-30939D01*
X44681Y-30910D01*
X44653Y-30882D01*
X45384Y-30348D02*
X45440Y-30348D01*
X45496Y-30376D01*
X45525Y-30404D01*
X45553Y-30460D01*
X45581Y-30573D01*
X45581Y-30714D01*
X45553Y-30826D01*
X45525Y-30882D01*
X45496Y-30910D01*
X45440Y-30939D01*
X45384Y-30939D01*
X45328Y-30910D01*
X45300Y-30882D01*
X45271Y-30826D01*
X45243Y-30714D01*
X45243Y-30573D01*
X45271Y-30460D01*
X45300Y-30404D01*
X45328Y-30376D01*
X45384Y-30348D01*
X46284Y-30939D02*
X46284Y-30348D01*
X46509Y-30348D01*
X46565Y-30376D01*
X46593Y-30404D01*
X46621Y-30460D01*
X46621Y-30545D01*
X46593Y-30601D01*
X46565Y-30629D01*
X46509Y-30657D01*
X46284Y-30657D01*
X46987Y-30348D02*
X47099Y-30348D01*
X47156Y-30376D01*
X47212Y-30432D01*
X47240Y-30545D01*
X47240Y-30742D01*
X47212Y-30854D01*
X47156Y-30910D01*
X47099Y-30939D01*
X46987Y-30939D01*
X46931Y-30910D01*
X46874Y-30854D01*
X46846Y-30742D01*
X46846Y-30545D01*
X46874Y-30432D01*
X46931Y-30376D01*
X46987Y-30348D01*
X47409Y-30348D02*
X47606Y-30939D01*
X47802Y-30348D01*
X48393Y-30545D02*
X48534Y-30939D01*
X48674Y-30545D01*
X48871Y-30404D02*
X48899Y-30376D01*
X48955Y-30348D01*
X49096Y-30348D01*
X49152Y-30376D01*
X49180Y-30404D01*
X49208Y-30460D01*
X49208Y-30517D01*
X49180Y-30601D01*
X48843Y-30939D01*
X49208Y-30939D01*
G54D12*
X34000Y-22000D02*
X34000Y-28000D01*
X53500Y-22000D02*
X34000Y-22000D01*
X53500Y-36000D02*
X53500Y-22000D01*
X34000Y-36000D02*
X53500Y-36000D01*
X34000Y-28000D02*
X34000Y-36000D01*
G54D10*
X35700Y-34000D02*
X37700Y-34000D01*
X37700Y-34000D02*
X37700Y-35000D01*
X37700Y-35000D02*
X35700Y-35000D01*
X35700Y-35000D02*
X35700Y-34000D01*
G54D13*
X44250Y-29050D02*
X42700Y-29050D01*
X44500Y-29300D02*
X42600Y-29300D01*
X44500Y-26700D02*
X42600Y-26700D01*
X44250Y-27000D02*
X42750Y-27000D01*
G54D14*
X44500Y-29500D02*
X44500Y-30000D01*
X44250Y-29750D02*
X44750Y-29750D01*
X44250Y-27000D02*
X44250Y-29000D01*
X44500Y-26750D02*
X44500Y-29250D01*
X42035Y-28000D02*
G75*
G03X42035Y-28000I-3535J0D01*
G74*
G01*
X42801Y-28000D02*
G75*
G03X42801Y-28000I-4301J0D01*
G74*
G01*
G54D15*
X51550Y-31000D02*
X51550Y-31000D01*
X52550Y-31000D02*
X51550Y-31000D01*
X51550Y-31000D02*
X51550Y-31000D01*
X51550Y-31000D02*
X51550Y-27000D01*
X51550Y-27000D02*
X52550Y-27000D01*
X52550Y-27000D02*
X52550Y-31000D01*
X52550Y-30000D02*
X51550Y-30000D01*
X49500Y-31000D02*
X49500Y-31000D01*
X50500Y-31000D02*
X49500Y-31000D01*
X49500Y-31000D02*
X49500Y-31000D01*
X49500Y-31000D02*
X49500Y-27000D01*
X49500Y-27000D02*
X50500Y-27000D01*
X50500Y-27000D02*
X50500Y-31000D01*
X50500Y-30000D02*
X49500Y-30000D01*
X37500Y-22500D02*
X37500Y-23500D01*
X37500Y-23500D02*
X34500Y-23500D01*
X34500Y-23500D02*
X34500Y-22500D01*
X34500Y-22500D02*
X37500Y-22500D01*
X36500Y-23500D02*
X36500Y-22500D01*
G54D14*
X51250Y-33000D02*
X52250Y-33000D01*
X51809Y-33000D02*
G75*
G03X51809Y-33000I-559J0D01*
G74*
G01*
X49000Y-33000D02*
X50000Y-33000D01*
X49559Y-33000D02*
G75*
G03X49559Y-33000I-559J0D01*
G74*
G01*
X46750Y-33000D02*
X47750Y-33000D01*
X47309Y-33000D02*
G75*
G03X47309Y-33000I-559J0D01*
G74*
G01*
X44500Y-33000D02*
X45500Y-33000D01*
X45059Y-33000D02*
G75*
G03X45059Y-33000I-559J0D01*
G74*
G01*
X42250Y-33000D02*
X43250Y-33000D01*
X42809Y-33000D02*
G75*
G03X42809Y-33000I-559J0D01*
G74*
G01*
X40000Y-33000D02*
X41000Y-33000D01*
X40559Y-33000D02*
G75*
G03X40559Y-33000I-559J0D01*
G74*
G01*
X37750Y-33000D02*
X38750Y-33000D01*
X38309Y-33000D02*
G75*
G03X38309Y-33000I-559J0D01*
G74*
G01*
X35500Y-33000D02*
X36500Y-33000D01*
X36059Y-33000D02*
G75*
G03X36059Y-33000I-559J0D01*
G74*
G01*
G54D10*
X50100Y-34000D02*
X52100Y-34000D01*
X52100Y-34000D02*
X52100Y-35000D01*
X52100Y-35000D02*
X50100Y-35000D01*
X50100Y-35000D02*
X50100Y-34000D01*
X48000Y-34000D02*
X50000Y-34000D01*
X50000Y-34000D02*
X50000Y-35000D01*
X50000Y-35000D02*
X48000Y-35000D01*
X48000Y-35000D02*
X48000Y-34000D01*
X45950Y-34000D02*
X47950Y-34000D01*
X47950Y-34000D02*
X47950Y-35000D01*
X47950Y-35000D02*
X45950Y-35000D01*
X45950Y-35000D02*
X45950Y-34000D01*
X43900Y-34000D02*
X45900Y-34000D01*
X45900Y-34000D02*
X45900Y-35000D01*
X45900Y-35000D02*
X43900Y-35000D01*
X43900Y-35000D02*
X43900Y-34000D01*
X41850Y-34000D02*
X43850Y-34000D01*
X43850Y-34000D02*
X43850Y-35000D01*
X43850Y-35000D02*
X41850Y-35000D01*
X41850Y-35000D02*
X41850Y-34000D01*
X39800Y-34000D02*
X41800Y-34000D01*
X41800Y-34000D02*
X41800Y-35000D01*
X41800Y-35000D02*
X39800Y-35000D01*
X39800Y-35000D02*
X39800Y-34000D01*
X37750Y-34000D02*
X39750Y-34000D01*
X39750Y-34000D02*
X39750Y-35000D01*
X39750Y-35000D02*
X37750Y-35000D01*
X37750Y-35000D02*
X37750Y-34000D01*
G54D14*
X52700Y-24750D02*
X52200Y-24750D01*
X52200Y-24750D02*
X52200Y-23750D01*
X52200Y-23750D02*
X52700Y-23750D01*
X52700Y-25250D02*
X41700Y-25250D01*
X41700Y-25250D02*
X41700Y-23250D01*
X41700Y-23250D02*
X52700Y-23250D01*
X52700Y-23250D02*
X52700Y-25250D01*
G54D16*
G36*
X39066Y-26811D02*
X39053Y-26804D01*
X39026Y-26787D01*
X38986Y-26761D01*
X38940Y-26730D01*
X38893Y-26698D01*
X38854Y-26672D01*
X38827Y-26655D01*
X38816Y-26649D01*
X38810Y-26651D01*
X38788Y-26662D01*
X38756Y-26679D01*
X38737Y-26688D01*
X38707Y-26701D01*
X38693Y-26704D01*
X38690Y-26700D01*
X38679Y-26677D01*
X38662Y-26638D01*
X38640Y-26587D01*
X38614Y-26527D01*
X38587Y-26462D01*
X38560Y-26396D01*
X38534Y-26334D01*
X38510Y-26277D01*
X38492Y-26231D01*
X38480Y-26199D01*
X38475Y-26185D01*
X38477Y-26182D01*
X38491Y-26168D01*
X38517Y-26149D01*
X38573Y-26103D01*
X38628Y-26034D01*
X38662Y-25956D01*
X38673Y-25869D01*
X38664Y-25789D01*
X38632Y-25712D01*
X38578Y-25642D01*
X38512Y-25590D01*
X38436Y-25558D01*
X38350Y-25547D01*
X38268Y-25556D01*
X38189Y-25587D01*
X38119Y-25640D01*
X38090Y-25674D01*
X38049Y-25745D01*
X38026Y-25820D01*
X38024Y-25839D01*
X38027Y-25922D01*
X38052Y-26002D01*
X38095Y-26073D01*
X38156Y-26131D01*
X38164Y-26137D01*
X38192Y-26158D01*
X38211Y-26172D01*
X38226Y-26184D01*
X38120Y-26439D01*
X38103Y-26479D01*
X38074Y-26548D01*
X38049Y-26608D01*
X38028Y-26656D01*
X38014Y-26688D01*
X38008Y-26701D01*
X38007Y-26701D01*
X37998Y-26703D01*
X37979Y-26696D01*
X37943Y-26679D01*
X37920Y-26667D01*
X37893Y-26654D01*
X37881Y-26649D01*
X37870Y-26654D01*
X37844Y-26671D01*
X37807Y-26697D01*
X37761Y-26727D01*
X37718Y-26757D01*
X37678Y-26783D01*
X37649Y-26802D01*
X37635Y-26809D01*
X37633Y-26809D01*
X37620Y-26802D01*
X37597Y-26783D01*
X37563Y-26750D01*
X37514Y-26702D01*
X37506Y-26695D01*
X37466Y-26654D01*
X37433Y-26619D01*
X37411Y-26595D01*
X37403Y-26584D01*
X37403Y-26584D01*
X37411Y-26570D01*
X37429Y-26541D01*
X37455Y-26501D01*
X37487Y-26453D01*
X37572Y-26331D01*
X37525Y-26216D01*
X37511Y-26180D01*
X37493Y-26137D01*
X37480Y-26107D01*
X37473Y-26093D01*
X37460Y-26089D01*
X37429Y-26081D01*
X37383Y-26072D01*
X37328Y-26062D01*
X37276Y-26052D01*
X37229Y-26043D01*
X37195Y-26037D01*
X37180Y-26034D01*
X37176Y-26031D01*
X37173Y-26024D01*
X37171Y-26008D01*
X37170Y-25979D01*
X37169Y-25934D01*
X37169Y-25869D01*
X37169Y-25862D01*
X37170Y-25800D01*
X37171Y-25751D01*
X37173Y-25719D01*
X37175Y-25706D01*
X37175Y-25706D01*
X37190Y-25702D01*
X37223Y-25695D01*
X37270Y-25686D01*
X37326Y-25675D01*
X37330Y-25675D01*
X37386Y-25664D01*
X37432Y-25654D01*
X37465Y-25647D01*
X37479Y-25642D01*
X37482Y-25638D01*
X37493Y-25616D01*
X37509Y-25582D01*
X37528Y-25540D01*
X37546Y-25496D01*
X37562Y-25456D01*
X37572Y-25427D01*
X37575Y-25413D01*
X37575Y-25413D01*
X37567Y-25400D01*
X37548Y-25371D01*
X37520Y-25331D01*
X37488Y-25283D01*
X37485Y-25279D01*
X37453Y-25232D01*
X37427Y-25192D01*
X37410Y-25164D01*
X37403Y-25151D01*
X37403Y-25150D01*
X37414Y-25136D01*
X37438Y-25109D01*
X37473Y-25073D01*
X37514Y-25032D01*
X37527Y-25019D01*
X37573Y-24974D01*
X37605Y-24945D01*
X37625Y-24929D01*
X37634Y-24925D01*
X37635Y-24926D01*
X37649Y-24934D01*
X37679Y-24954D01*
X37719Y-24981D01*
X37767Y-25014D01*
X37770Y-25016D01*
X37818Y-25048D01*
X37857Y-25075D01*
X37885Y-25093D01*
X37897Y-25100D01*
X37899Y-25100D01*
X37918Y-25095D01*
X37952Y-25083D01*
X37993Y-25067D01*
X38037Y-25050D01*
X38077Y-25033D01*
X38106Y-25019D01*
X38120Y-25011D01*
X38121Y-25011D01*
X38126Y-24994D01*
X38134Y-24958D01*
X38144Y-24910D01*
X38155Y-24852D01*
X38157Y-24843D01*
X38167Y-24786D01*
X38176Y-24740D01*
X38183Y-24708D01*
X38186Y-24694D01*
X38194Y-24693D01*
X38222Y-24691D01*
X38264Y-24689D01*
X38315Y-24689D01*
X38368Y-24689D01*
X38420Y-24690D01*
X38464Y-24692D01*
X38496Y-24694D01*
X38510Y-24697D01*
X38510Y-24698D01*
X38515Y-24715D01*
X38523Y-24750D01*
X38533Y-24799D01*
X38544Y-24857D01*
X38546Y-24868D01*
X38556Y-24924D01*
X38566Y-24970D01*
X38573Y-25001D01*
X38576Y-25014D01*
X38581Y-25016D01*
X38604Y-25027D01*
X38642Y-25042D01*
X38689Y-25061D01*
X38797Y-25105D01*
X38929Y-25014D01*
X38941Y-25006D01*
X38989Y-24973D01*
X39028Y-24947D01*
X39056Y-24930D01*
X39067Y-24923D01*
X39068Y-24924D01*
X39081Y-24935D01*
X39107Y-24960D01*
X39143Y-24995D01*
X39185Y-25036D01*
X39216Y-25067D01*
X39252Y-25104D01*
X39275Y-25129D01*
X39288Y-25145D01*
X39293Y-25155D01*
X39291Y-25162D01*
X39283Y-25175D01*
X39263Y-25204D01*
X39236Y-25245D01*
X39204Y-25291D01*
X39177Y-25331D01*
X39148Y-25375D01*
X39130Y-25407D01*
X39123Y-25422D01*
X39125Y-25429D01*
X39134Y-25455D01*
X39150Y-25494D01*
X39170Y-25541D01*
X39216Y-25646D01*
X39285Y-25659D01*
X39326Y-25667D01*
X39385Y-25678D01*
X39441Y-25689D01*
X39528Y-25706D01*
X39531Y-26025D01*
X39517Y-26031D01*
X39504Y-26035D01*
X39472Y-26042D01*
X39426Y-26051D01*
X39372Y-26061D01*
X39325Y-26070D01*
X39279Y-26079D01*
X39245Y-26085D01*
X39230Y-26088D01*
X39227Y-26093D01*
X39215Y-26116D01*
X39198Y-26152D01*
X39180Y-26195D01*
X39161Y-26240D01*
X39145Y-26281D01*
X39133Y-26313D01*
X39129Y-26329D01*
X39135Y-26341D01*
X39153Y-26369D01*
X39179Y-26408D01*
X39210Y-26454D01*
X39242Y-26501D01*
X39269Y-26540D01*
X39288Y-26569D01*
X39295Y-26582D01*
X39291Y-26591D01*
X39273Y-26613D01*
X39238Y-26649D01*
X39186Y-26701D01*
X39177Y-26709D01*
X39136Y-26749D01*
X39101Y-26781D01*
X39077Y-26803D01*
X39066Y-26811D01*
X39066Y-26811D01*
G37*
G36*
X46642Y-27330D02*
X46649Y-27327D01*
X46662Y-27318D01*
X46682Y-27305D01*
X46705Y-27290D01*
X46729Y-27274D01*
X46748Y-27261D01*
X46762Y-27252D01*
X46767Y-27249D01*
X46770Y-27250D01*
X46781Y-27256D01*
X46797Y-27264D01*
X46807Y-27269D01*
X46822Y-27275D01*
X46829Y-27277D01*
X46830Y-27275D01*
X46836Y-27263D01*
X46844Y-27244D01*
X46855Y-27218D01*
X46868Y-27188D01*
X46882Y-27156D01*
X46895Y-27123D01*
X46908Y-27092D01*
X46920Y-27063D01*
X46929Y-27040D01*
X46935Y-27024D01*
X46938Y-27017D01*
X46937Y-27016D01*
X46930Y-27009D01*
X46917Y-26999D01*
X46889Y-26976D01*
X46861Y-26942D01*
X46844Y-26903D01*
X46839Y-26859D01*
X46843Y-26819D01*
X46859Y-26781D01*
X46886Y-26746D01*
X46919Y-26720D01*
X46957Y-26704D01*
X47000Y-26699D01*
X47041Y-26703D01*
X47080Y-26719D01*
X47115Y-26745D01*
X47130Y-26762D01*
X47150Y-26798D01*
X47162Y-26835D01*
X47163Y-26844D01*
X47161Y-26886D01*
X47149Y-26926D01*
X47127Y-26961D01*
X47097Y-26990D01*
X47093Y-26993D01*
X47079Y-27004D01*
X47069Y-27011D01*
X47062Y-27017D01*
X47115Y-27144D01*
X47123Y-27164D01*
X47138Y-27199D01*
X47150Y-27229D01*
X47161Y-27253D01*
X47168Y-27269D01*
X47171Y-27275D01*
X47171Y-27275D01*
X47176Y-27276D01*
X47185Y-27273D01*
X47203Y-27264D01*
X47215Y-27258D01*
X47228Y-27252D01*
X47234Y-27249D01*
X47240Y-27252D01*
X47253Y-27260D01*
X47271Y-27273D01*
X47294Y-27288D01*
X47316Y-27303D01*
X47336Y-27316D01*
X47350Y-27326D01*
X47357Y-27329D01*
X47358Y-27329D01*
X47365Y-27326D01*
X47376Y-27316D01*
X47393Y-27300D01*
X47418Y-27276D01*
X47422Y-27272D01*
X47442Y-27252D01*
X47458Y-27234D01*
X47469Y-27222D01*
X47473Y-27217D01*
X47473Y-27217D01*
X47469Y-27210D01*
X47460Y-27195D01*
X47447Y-27175D01*
X47431Y-27151D01*
X47389Y-27090D01*
X47412Y-27033D01*
X47419Y-27015D01*
X47428Y-26993D01*
X47435Y-26978D01*
X47438Y-26971D01*
X47445Y-26969D01*
X47460Y-26965D01*
X47483Y-26961D01*
X47511Y-26956D01*
X47537Y-26951D01*
X47560Y-26946D01*
X47577Y-26943D01*
X47585Y-26942D01*
X47587Y-26940D01*
X47588Y-26937D01*
X47589Y-26929D01*
X47590Y-26914D01*
X47590Y-26892D01*
X47590Y-26859D01*
X47590Y-26856D01*
X47590Y-26825D01*
X47589Y-26800D01*
X47588Y-26785D01*
X47587Y-26778D01*
X47587Y-26778D01*
X47580Y-26776D01*
X47563Y-26773D01*
X47540Y-26768D01*
X47512Y-26763D01*
X47510Y-26763D01*
X47482Y-26757D01*
X47459Y-26752D01*
X47442Y-26749D01*
X47435Y-26746D01*
X47434Y-26744D01*
X47428Y-26733D01*
X47420Y-26716D01*
X47411Y-26695D01*
X47402Y-26673D01*
X47394Y-26653D01*
X47389Y-26639D01*
X47387Y-26632D01*
X47387Y-26632D01*
X47391Y-26625D01*
X47401Y-26611D01*
X47415Y-26591D01*
X47431Y-26567D01*
X47432Y-26565D01*
X47448Y-26541D01*
X47461Y-26521D01*
X47470Y-26507D01*
X47473Y-26501D01*
X47473Y-26500D01*
X47468Y-26493D01*
X47456Y-26480D01*
X47438Y-26462D01*
X47418Y-26441D01*
X47411Y-26435D01*
X47388Y-26412D01*
X47372Y-26398D01*
X47362Y-26390D01*
X47358Y-26388D01*
X47357Y-26388D01*
X47350Y-26392D01*
X47335Y-26402D01*
X47315Y-26416D01*
X47291Y-26432D01*
X47290Y-26433D01*
X47266Y-26449D01*
X47246Y-26463D01*
X47232Y-26472D01*
X47226Y-26475D01*
X47225Y-26475D01*
X47216Y-26473D01*
X47199Y-26467D01*
X47178Y-26459D01*
X47156Y-26450D01*
X47136Y-26442D01*
X47122Y-26435D01*
X47115Y-26431D01*
X47114Y-26431D01*
X47112Y-26422D01*
X47108Y-26404D01*
X47103Y-26380D01*
X47097Y-26351D01*
X47096Y-26347D01*
X47091Y-26318D01*
X47087Y-26295D01*
X47083Y-26279D01*
X47082Y-26272D01*
X47078Y-26272D01*
X47064Y-26271D01*
X47043Y-26270D01*
X47017Y-26270D01*
X46991Y-26270D01*
X46965Y-26270D01*
X46943Y-26271D01*
X46927Y-26272D01*
X46920Y-26274D01*
X46920Y-26274D01*
X46918Y-26283D01*
X46914Y-26300D01*
X46909Y-26325D01*
X46903Y-26354D01*
X46902Y-26359D01*
X46897Y-26387D01*
X46892Y-26410D01*
X46889Y-26426D01*
X46887Y-26432D01*
X46885Y-26433D01*
X46873Y-26439D01*
X46854Y-26446D01*
X46831Y-26456D01*
X46777Y-26478D01*
X46711Y-26432D01*
X46705Y-26428D01*
X46681Y-26412D01*
X46661Y-26399D01*
X46647Y-26390D01*
X46642Y-26387D01*
X46641Y-26387D01*
X46635Y-26393D01*
X46622Y-26405D01*
X46604Y-26423D01*
X46583Y-26443D01*
X46567Y-26459D01*
X46549Y-26477D01*
X46538Y-26490D01*
X46531Y-26498D01*
X46529Y-26503D01*
X46530Y-26506D01*
X46534Y-26513D01*
X46544Y-26527D01*
X46557Y-26548D01*
X46573Y-26571D01*
X46587Y-26591D01*
X46601Y-26613D01*
X46610Y-26629D01*
X46614Y-26636D01*
X46613Y-26640D01*
X46608Y-26653D01*
X46600Y-26672D01*
X46590Y-26696D01*
X46567Y-26748D01*
X46533Y-26755D01*
X46512Y-26759D01*
X46483Y-26764D01*
X46455Y-26770D01*
X46411Y-26778D01*
X46410Y-26937D01*
X46417Y-26940D01*
X46423Y-26942D01*
X46439Y-26946D01*
X46462Y-26950D01*
X46489Y-26955D01*
X46513Y-26960D01*
X46536Y-26964D01*
X46553Y-26967D01*
X46560Y-26969D01*
X46562Y-26971D01*
X46568Y-26983D01*
X46576Y-27001D01*
X46585Y-27022D01*
X46595Y-27045D01*
X46603Y-27065D01*
X46609Y-27081D01*
X46611Y-27089D01*
X46608Y-27095D01*
X46599Y-27109D01*
X46586Y-27129D01*
X46570Y-27152D01*
X46554Y-27175D01*
X46541Y-27195D01*
X46531Y-27209D01*
X46528Y-27216D01*
X46530Y-27220D01*
X46539Y-27231D01*
X46556Y-27249D01*
X46582Y-27275D01*
X46587Y-27279D01*
X46607Y-27299D01*
X46625Y-27315D01*
X46637Y-27326D01*
X46642Y-27330D01*
X46642Y-27330D01*
G37*
G54D14*
X51950Y-31800D02*
X52950Y-31800D01*
X52509Y-31800D02*
G75*
G03X52509Y-31800I-559J0D01*
G74*
G01*
G54D15*
X53350Y-23270D02*
X53350Y-25250D01*
X53350Y-25250D02*
X52350Y-25250D01*
X52350Y-25250D02*
X52350Y-23250D01*
X52350Y-23250D02*
X53350Y-23250D01*
X53100Y-23250D02*
X53350Y-23500D01*
G54D14*
X35558Y-24350D02*
G75*
G03X35558Y-24350I-708J0D01*
G74*
G01*
X35608Y-31700D02*
G75*
G03X35608Y-31700I-708J0D01*
G74*
G01*
G54D10*
X35859Y-35659D02*
X35859Y-35265D01*
X35953Y-35265D01*
X36009Y-35284D01*
X36046Y-35321D01*
X36065Y-35359D01*
X36084Y-35434D01*
X36084Y-35490D01*
X36065Y-35565D01*
X36046Y-35603D01*
X36009Y-35640D01*
X35953Y-35659D01*
X35859Y-35659D01*
X36459Y-35659D02*
X36234Y-35659D01*
X36346Y-35659D02*
X36346Y-35265D01*
X36309Y-35321D01*
X36271Y-35359D01*
X36234Y-35378D01*
X36946Y-35659D02*
X36759Y-35659D01*
X36759Y-35265D01*
X37078Y-35453D02*
X37209Y-35453D01*
X37265Y-35659D02*
X37078Y-35659D01*
X37078Y-35265D01*
X37265Y-35265D01*
X37434Y-35659D02*
X37434Y-35265D01*
X37528Y-35265D01*
X37584Y-35284D01*
X37621Y-35321D01*
X37640Y-35359D01*
X37659Y-35434D01*
X37659Y-35490D01*
X37640Y-35565D01*
X37621Y-35603D01*
X37584Y-35640D01*
X37528Y-35659D01*
X37434Y-35659D01*
G54D15*
X38128Y-27428D02*
X38214Y-27457D01*
X38242Y-27485D01*
X38271Y-27542D01*
X38271Y-27628D01*
X38242Y-27685D01*
X38214Y-27714D01*
X38157Y-27742D01*
X37928Y-27742D01*
X37928Y-27142D01*
X38128Y-27142D01*
X38185Y-27171D01*
X38214Y-27200D01*
X38242Y-27257D01*
X38242Y-27314D01*
X38214Y-27371D01*
X38185Y-27400D01*
X38128Y-27428D01*
X37928Y-27428D01*
X38442Y-27142D02*
X38785Y-27142D01*
X38614Y-27742D02*
X38614Y-27142D01*
X39300Y-27742D02*
X38957Y-27742D01*
X39128Y-27742D02*
X39128Y-27142D01*
X39071Y-27228D01*
X39014Y-27285D01*
X38957Y-27314D01*
X38142Y-28392D02*
X38514Y-28392D01*
X38314Y-28621D01*
X38400Y-28621D01*
X38457Y-28650D01*
X38485Y-28678D01*
X38514Y-28735D01*
X38514Y-28878D01*
X38485Y-28935D01*
X38457Y-28964D01*
X38400Y-28992D01*
X38228Y-28992D01*
X38171Y-28964D01*
X38142Y-28935D01*
X38685Y-28392D02*
X38885Y-28992D01*
X39085Y-28392D01*
G54D17*
X53376Y-30915D02*
X52693Y-30915D01*
X52693Y-30752D01*
X52725Y-30712D01*
X52758Y-30691D01*
X52823Y-30671D01*
X52921Y-30671D01*
X52986Y-30691D01*
X53018Y-30712D01*
X53051Y-30752D01*
X53051Y-30915D01*
X52758Y-30508D02*
X52725Y-30487D01*
X52693Y-30447D01*
X52693Y-30345D01*
X52725Y-30304D01*
X52758Y-30284D01*
X52823Y-30263D01*
X52888Y-30263D01*
X52986Y-30284D01*
X53376Y-30528D01*
X53376Y-30263D01*
G54D15*
G54D17*
X51376Y-30815D02*
X50693Y-30815D01*
X50693Y-30652D01*
X50725Y-30612D01*
X50758Y-30591D01*
X50823Y-30571D01*
X50921Y-30571D01*
X50986Y-30591D01*
X51018Y-30612D01*
X51051Y-30652D01*
X51051Y-30815D01*
X51376Y-30163D02*
X51376Y-30408D01*
X51376Y-30286D02*
X50693Y-30286D01*
X50791Y-30326D01*
X50856Y-30367D01*
X50888Y-30408D01*
G54D15*
G54D18*
X36984Y-24301D02*
X37045Y-24335D01*
X37146Y-24335D01*
X37186Y-24301D01*
X37206Y-24268D01*
X37226Y-24201D01*
X37226Y-24133D01*
X37206Y-24066D01*
X37186Y-24033D01*
X37146Y-23999D01*
X37065Y-23966D01*
X37025Y-23932D01*
X37004Y-23898D01*
X36984Y-23831D01*
X36984Y-23764D01*
X37004Y-23697D01*
X37025Y-23663D01*
X37065Y-23630D01*
X37166Y-23630D01*
X37226Y-23663D01*
X37368Y-23630D02*
X37469Y-24335D01*
X37550Y-23831D01*
X37630Y-24335D01*
X37731Y-23630D01*
X38115Y-24335D02*
X37873Y-24335D01*
X37994Y-24335D02*
X37994Y-23630D01*
X37953Y-23731D01*
X37913Y-23798D01*
X37873Y-23831D01*
G54D15*
G54D19*
X52266Y-32472D02*
X52100Y-32210D01*
X51980Y-32472D02*
X51980Y-31922D01*
X52171Y-31922D01*
X52219Y-31948D01*
X52242Y-31975D01*
X52266Y-32027D01*
X52266Y-32105D01*
X52242Y-32158D01*
X52219Y-32184D01*
X52171Y-32210D01*
X51980Y-32210D01*
X52552Y-32158D02*
X52504Y-32132D01*
X52480Y-32105D01*
X52457Y-32053D01*
X52457Y-32027D01*
X52480Y-31975D01*
X52504Y-31948D01*
X52552Y-31922D01*
X52647Y-31922D01*
X52695Y-31948D01*
X52719Y-31975D01*
X52742Y-32027D01*
X52742Y-32053D01*
X52719Y-32105D01*
X52695Y-32132D01*
X52647Y-32158D01*
X52552Y-32158D01*
X52504Y-32184D01*
X52480Y-32210D01*
X52457Y-32263D01*
X52457Y-32367D01*
X52480Y-32420D01*
X52504Y-32446D01*
X52552Y-32472D01*
X52647Y-32472D01*
X52695Y-32446D01*
X52719Y-32420D01*
X52742Y-32367D01*
X52742Y-32263D01*
X52719Y-32210D01*
X52695Y-32184D01*
X52647Y-32158D01*
X49916Y-32522D02*
X49750Y-32260D01*
X49630Y-32522D02*
X49630Y-31972D01*
X49821Y-31972D01*
X49869Y-31998D01*
X49892Y-32025D01*
X49916Y-32077D01*
X49916Y-32155D01*
X49892Y-32208D01*
X49869Y-32234D01*
X49821Y-32260D01*
X49630Y-32260D01*
X50083Y-31972D02*
X50416Y-31972D01*
X50202Y-32522D01*
X47766Y-32522D02*
X47600Y-32260D01*
X47480Y-32522D02*
X47480Y-31972D01*
X47671Y-31972D01*
X47719Y-31998D01*
X47742Y-32025D01*
X47766Y-32077D01*
X47766Y-32155D01*
X47742Y-32208D01*
X47719Y-32234D01*
X47671Y-32260D01*
X47480Y-32260D01*
X48195Y-31972D02*
X48100Y-31972D01*
X48052Y-31998D01*
X48028Y-32025D01*
X47980Y-32103D01*
X47957Y-32208D01*
X47957Y-32417D01*
X47980Y-32470D01*
X48004Y-32496D01*
X48052Y-32522D01*
X48147Y-32522D01*
X48195Y-32496D01*
X48219Y-32470D01*
X48242Y-32417D01*
X48242Y-32286D01*
X48219Y-32234D01*
X48195Y-32208D01*
X48147Y-32182D01*
X48052Y-32182D01*
X48004Y-32208D01*
X47980Y-32234D01*
X47957Y-32286D01*
X45516Y-32522D02*
X45350Y-32260D01*
X45230Y-32522D02*
X45230Y-31972D01*
X45421Y-31972D01*
X45469Y-31998D01*
X45492Y-32025D01*
X45516Y-32077D01*
X45516Y-32155D01*
X45492Y-32208D01*
X45469Y-32234D01*
X45421Y-32260D01*
X45230Y-32260D01*
X45969Y-31972D02*
X45730Y-31972D01*
X45707Y-32234D01*
X45730Y-32208D01*
X45778Y-32182D01*
X45897Y-32182D01*
X45945Y-32208D01*
X45969Y-32234D01*
X45992Y-32286D01*
X45992Y-32417D01*
X45969Y-32470D01*
X45945Y-32496D01*
X45897Y-32522D01*
X45778Y-32522D01*
X45730Y-32496D01*
X45707Y-32470D01*
X43216Y-32522D02*
X43050Y-32260D01*
X42930Y-32522D02*
X42930Y-31972D01*
X43121Y-31972D01*
X43169Y-31998D01*
X43192Y-32025D01*
X43216Y-32077D01*
X43216Y-32155D01*
X43192Y-32208D01*
X43169Y-32234D01*
X43121Y-32260D01*
X42930Y-32260D01*
X43645Y-32155D02*
X43645Y-32522D01*
X43526Y-31946D02*
X43407Y-32339D01*
X43716Y-32339D01*
X41016Y-32522D02*
X40850Y-32260D01*
X40730Y-32522D02*
X40730Y-31972D01*
X40921Y-31972D01*
X40969Y-31998D01*
X40992Y-32025D01*
X41016Y-32077D01*
X41016Y-32155D01*
X40992Y-32208D01*
X40969Y-32234D01*
X40921Y-32260D01*
X40730Y-32260D01*
X41183Y-31972D02*
X41492Y-31972D01*
X41326Y-32182D01*
X41397Y-32182D01*
X41445Y-32208D01*
X41469Y-32234D01*
X41492Y-32286D01*
X41492Y-32417D01*
X41469Y-32470D01*
X41445Y-32496D01*
X41397Y-32522D01*
X41254Y-32522D01*
X41207Y-32496D01*
X41183Y-32470D01*
X38766Y-32522D02*
X38600Y-32260D01*
X38480Y-32522D02*
X38480Y-31972D01*
X38671Y-31972D01*
X38719Y-31998D01*
X38742Y-32025D01*
X38766Y-32077D01*
X38766Y-32155D01*
X38742Y-32208D01*
X38719Y-32234D01*
X38671Y-32260D01*
X38480Y-32260D01*
X38957Y-32025D02*
X38980Y-31998D01*
X39028Y-31972D01*
X39147Y-31972D01*
X39195Y-31998D01*
X39219Y-32025D01*
X39242Y-32077D01*
X39242Y-32129D01*
X39219Y-32208D01*
X38933Y-32522D01*
X39242Y-32522D01*
X36516Y-32522D02*
X36350Y-32260D01*
X36230Y-32522D02*
X36230Y-31972D01*
X36421Y-31972D01*
X36469Y-31998D01*
X36492Y-32025D01*
X36516Y-32077D01*
X36516Y-32155D01*
X36492Y-32208D01*
X36469Y-32234D01*
X36421Y-32260D01*
X36230Y-32260D01*
X36992Y-32522D02*
X36707Y-32522D01*
X36850Y-32522D02*
X36850Y-31972D01*
X36802Y-32051D01*
X36754Y-32103D01*
X36707Y-32129D01*
G54D10*
X50259Y-35659D02*
X50259Y-35265D01*
X50353Y-35265D01*
X50409Y-35284D01*
X50446Y-35321D01*
X50465Y-35359D01*
X50484Y-35434D01*
X50484Y-35490D01*
X50465Y-35565D01*
X50446Y-35603D01*
X50409Y-35640D01*
X50353Y-35659D01*
X50259Y-35659D01*
X50709Y-35434D02*
X50671Y-35415D01*
X50653Y-35396D01*
X50634Y-35359D01*
X50634Y-35340D01*
X50653Y-35303D01*
X50671Y-35284D01*
X50709Y-35265D01*
X50784Y-35265D01*
X50821Y-35284D01*
X50840Y-35303D01*
X50859Y-35340D01*
X50859Y-35359D01*
X50840Y-35396D01*
X50821Y-35415D01*
X50784Y-35434D01*
X50709Y-35434D01*
X50671Y-35453D01*
X50653Y-35471D01*
X50634Y-35509D01*
X50634Y-35584D01*
X50653Y-35621D01*
X50671Y-35640D01*
X50709Y-35659D01*
X50784Y-35659D01*
X50821Y-35640D01*
X50840Y-35621D01*
X50859Y-35584D01*
X50859Y-35509D01*
X50840Y-35471D01*
X50821Y-35453D01*
X50784Y-35434D01*
X51346Y-35659D02*
X51159Y-35659D01*
X51159Y-35265D01*
X51478Y-35453D02*
X51609Y-35453D01*
X51665Y-35659D02*
X51478Y-35659D01*
X51478Y-35265D01*
X51665Y-35265D01*
X51834Y-35659D02*
X51834Y-35265D01*
X51928Y-35265D01*
X51984Y-35284D01*
X52021Y-35321D01*
X52040Y-35359D01*
X52059Y-35434D01*
X52059Y-35490D01*
X52040Y-35565D01*
X52021Y-35603D01*
X51984Y-35640D01*
X51928Y-35659D01*
X51834Y-35659D01*
X48159Y-35659D02*
X48159Y-35265D01*
X48253Y-35265D01*
X48309Y-35284D01*
X48346Y-35321D01*
X48365Y-35359D01*
X48384Y-35434D01*
X48384Y-35490D01*
X48365Y-35565D01*
X48346Y-35603D01*
X48309Y-35640D01*
X48253Y-35659D01*
X48159Y-35659D01*
X48515Y-35265D02*
X48778Y-35265D01*
X48609Y-35659D01*
X49246Y-35659D02*
X49059Y-35659D01*
X49059Y-35265D01*
X49378Y-35453D02*
X49509Y-35453D01*
X49565Y-35659D02*
X49378Y-35659D01*
X49378Y-35265D01*
X49565Y-35265D01*
X49734Y-35659D02*
X49734Y-35265D01*
X49828Y-35265D01*
X49884Y-35284D01*
X49921Y-35321D01*
X49940Y-35359D01*
X49959Y-35434D01*
X49959Y-35490D01*
X49940Y-35565D01*
X49921Y-35603D01*
X49884Y-35640D01*
X49828Y-35659D01*
X49734Y-35659D01*
X46159Y-35659D02*
X46159Y-35265D01*
X46253Y-35265D01*
X46309Y-35284D01*
X46346Y-35321D01*
X46365Y-35359D01*
X46384Y-35434D01*
X46384Y-35490D01*
X46365Y-35565D01*
X46346Y-35603D01*
X46309Y-35640D01*
X46253Y-35659D01*
X46159Y-35659D01*
X46721Y-35265D02*
X46646Y-35265D01*
X46609Y-35284D01*
X46590Y-35303D01*
X46553Y-35359D01*
X46534Y-35434D01*
X46534Y-35584D01*
X46553Y-35621D01*
X46571Y-35640D01*
X46609Y-35659D01*
X46684Y-35659D01*
X46721Y-35640D01*
X46740Y-35621D01*
X46759Y-35584D01*
X46759Y-35490D01*
X46740Y-35453D01*
X46721Y-35434D01*
X46684Y-35415D01*
X46609Y-35415D01*
X46571Y-35434D01*
X46553Y-35453D01*
X46534Y-35490D01*
X47196Y-35659D02*
X47009Y-35659D01*
X47009Y-35265D01*
X47328Y-35453D02*
X47459Y-35453D01*
X47515Y-35659D02*
X47328Y-35659D01*
X47328Y-35265D01*
X47515Y-35265D01*
X47684Y-35659D02*
X47684Y-35265D01*
X47778Y-35265D01*
X47834Y-35284D01*
X47871Y-35321D01*
X47890Y-35359D01*
X47909Y-35434D01*
X47909Y-35490D01*
X47890Y-35565D01*
X47871Y-35603D01*
X47834Y-35640D01*
X47778Y-35659D01*
X47684Y-35659D01*
X44109Y-35659D02*
X44109Y-35265D01*
X44203Y-35265D01*
X44259Y-35284D01*
X44296Y-35321D01*
X44315Y-35359D01*
X44334Y-35434D01*
X44334Y-35490D01*
X44315Y-35565D01*
X44296Y-35603D01*
X44259Y-35640D01*
X44203Y-35659D01*
X44109Y-35659D01*
X44690Y-35265D02*
X44503Y-35265D01*
X44484Y-35453D01*
X44503Y-35434D01*
X44540Y-35415D01*
X44634Y-35415D01*
X44671Y-35434D01*
X44690Y-35453D01*
X44709Y-35490D01*
X44709Y-35584D01*
X44690Y-35621D01*
X44671Y-35640D01*
X44634Y-35659D01*
X44540Y-35659D01*
X44503Y-35640D01*
X44484Y-35621D01*
X45196Y-35659D02*
X45009Y-35659D01*
X45009Y-35265D01*
X45328Y-35453D02*
X45459Y-35453D01*
X45515Y-35659D02*
X45328Y-35659D01*
X45328Y-35265D01*
X45515Y-35265D01*
X45684Y-35659D02*
X45684Y-35265D01*
X45778Y-35265D01*
X45834Y-35284D01*
X45871Y-35321D01*
X45890Y-35359D01*
X45909Y-35434D01*
X45909Y-35490D01*
X45890Y-35565D01*
X45871Y-35603D01*
X45834Y-35640D01*
X45778Y-35659D01*
X45684Y-35659D01*
X42009Y-35659D02*
X42009Y-35265D01*
X42103Y-35265D01*
X42159Y-35284D01*
X42196Y-35321D01*
X42215Y-35359D01*
X42234Y-35434D01*
X42234Y-35490D01*
X42215Y-35565D01*
X42196Y-35603D01*
X42159Y-35640D01*
X42103Y-35659D01*
X42009Y-35659D01*
X42571Y-35396D02*
X42571Y-35659D01*
X42478Y-35246D02*
X42384Y-35528D01*
X42628Y-35528D01*
X43096Y-35659D02*
X42909Y-35659D01*
X42909Y-35265D01*
X43228Y-35453D02*
X43359Y-35453D01*
X43415Y-35659D02*
X43228Y-35659D01*
X43228Y-35265D01*
X43415Y-35265D01*
X43584Y-35659D02*
X43584Y-35265D01*
X43678Y-35265D01*
X43734Y-35284D01*
X43771Y-35321D01*
X43790Y-35359D01*
X43809Y-35434D01*
X43809Y-35490D01*
X43790Y-35565D01*
X43771Y-35603D01*
X43734Y-35640D01*
X43678Y-35659D01*
X43584Y-35659D01*
X39959Y-35659D02*
X39959Y-35265D01*
X40053Y-35265D01*
X40109Y-35284D01*
X40146Y-35321D01*
X40165Y-35359D01*
X40184Y-35434D01*
X40184Y-35490D01*
X40165Y-35565D01*
X40146Y-35603D01*
X40109Y-35640D01*
X40053Y-35659D01*
X39959Y-35659D01*
X40315Y-35265D02*
X40559Y-35265D01*
X40428Y-35415D01*
X40484Y-35415D01*
X40521Y-35434D01*
X40540Y-35453D01*
X40559Y-35490D01*
X40559Y-35584D01*
X40540Y-35621D01*
X40521Y-35640D01*
X40484Y-35659D01*
X40371Y-35659D01*
X40334Y-35640D01*
X40315Y-35621D01*
X41046Y-35659D02*
X40859Y-35659D01*
X40859Y-35265D01*
X41178Y-35453D02*
X41309Y-35453D01*
X41365Y-35659D02*
X41178Y-35659D01*
X41178Y-35265D01*
X41365Y-35265D01*
X41534Y-35659D02*
X41534Y-35265D01*
X41628Y-35265D01*
X41684Y-35284D01*
X41721Y-35321D01*
X41740Y-35359D01*
X41759Y-35434D01*
X41759Y-35490D01*
X41740Y-35565D01*
X41721Y-35603D01*
X41684Y-35640D01*
X41628Y-35659D01*
X41534Y-35659D01*
X37909Y-35659D02*
X37909Y-35265D01*
X38003Y-35265D01*
X38059Y-35284D01*
X38096Y-35321D01*
X38115Y-35359D01*
X38134Y-35434D01*
X38134Y-35490D01*
X38115Y-35565D01*
X38096Y-35603D01*
X38059Y-35640D01*
X38003Y-35659D01*
X37909Y-35659D01*
X38284Y-35303D02*
X38303Y-35284D01*
X38340Y-35265D01*
X38434Y-35265D01*
X38471Y-35284D01*
X38490Y-35303D01*
X38509Y-35340D01*
X38509Y-35378D01*
X38490Y-35434D01*
X38265Y-35659D01*
X38509Y-35659D01*
X38996Y-35659D02*
X38809Y-35659D01*
X38809Y-35265D01*
X39128Y-35453D02*
X39259Y-35453D01*
X39315Y-35659D02*
X39128Y-35659D01*
X39128Y-35265D01*
X39315Y-35265D01*
X39484Y-35659D02*
X39484Y-35265D01*
X39578Y-35265D01*
X39634Y-35284D01*
X39671Y-35321D01*
X39690Y-35359D01*
X39709Y-35434D01*
X39709Y-35490D01*
X39690Y-35565D01*
X39671Y-35603D01*
X39634Y-35640D01*
X39578Y-35659D01*
X39484Y-35659D01*
G54D20*
X50507Y-23883D02*
X50507Y-24450D01*
X50528Y-24516D01*
X50550Y-24550D01*
X50592Y-24583D01*
X50678Y-24583D01*
X50721Y-24550D01*
X50742Y-24516D01*
X50764Y-24450D01*
X50764Y-23883D01*
X51214Y-24583D02*
X50957Y-24583D01*
X51085Y-24583D02*
X51085Y-23883D01*
X51042Y-23983D01*
X51000Y-24050D01*
X50957Y-24083D01*
G54D15*
G54D20*
X43114Y-24533D02*
X43114Y-23833D01*
X43264Y-24333D01*
X43414Y-23833D01*
X43414Y-24533D01*
X43607Y-24500D02*
X43671Y-24533D01*
X43778Y-24533D01*
X43821Y-24500D01*
X43842Y-24466D01*
X43864Y-24400D01*
X43864Y-24333D01*
X43842Y-24266D01*
X43821Y-24233D01*
X43778Y-24200D01*
X43692Y-24166D01*
X43650Y-24133D01*
X43628Y-24100D01*
X43607Y-24033D01*
X43607Y-23966D01*
X43628Y-23900D01*
X43650Y-23866D01*
X43692Y-23833D01*
X43800Y-23833D01*
X43864Y-23866D01*
X44057Y-24533D02*
X44057Y-23833D01*
X44228Y-23833D01*
X44271Y-23866D01*
X44292Y-23900D01*
X44314Y-23966D01*
X44314Y-24066D01*
X44292Y-24133D01*
X44271Y-24166D01*
X44228Y-24200D01*
X44057Y-24200D01*
X44700Y-24066D02*
X44700Y-24533D01*
X44592Y-23800D02*
X44485Y-24300D01*
X44764Y-24300D01*
X44892Y-23833D02*
X45171Y-23833D01*
X45021Y-24100D01*
X45085Y-24100D01*
X45128Y-24133D01*
X45150Y-24166D01*
X45171Y-24233D01*
X45171Y-24400D01*
X45150Y-24466D01*
X45128Y-24500D01*
X45085Y-24533D01*
X44957Y-24533D01*
X44914Y-24500D01*
X44892Y-24466D01*
X45450Y-23833D02*
X45492Y-23833D01*
X45535Y-23866D01*
X45557Y-23900D01*
X45578Y-23966D01*
X45600Y-24100D01*
X45600Y-24266D01*
X45578Y-24400D01*
X45557Y-24466D01*
X45535Y-24500D01*
X45492Y-24533D01*
X45450Y-24533D01*
X45407Y-24500D01*
X45385Y-24466D01*
X45364Y-24400D01*
X45342Y-24266D01*
X45342Y-24100D01*
X45364Y-23966D01*
X45385Y-23900D01*
X45407Y-23866D01*
X45450Y-23833D01*
X46028Y-23866D02*
X45985Y-23833D01*
X45921Y-23833D01*
X45857Y-23866D01*
X45814Y-23933D01*
X45792Y-24000D01*
X45771Y-24133D01*
X45771Y-24233D01*
X45792Y-24366D01*
X45814Y-24433D01*
X45857Y-24500D01*
X45921Y-24533D01*
X45964Y-24533D01*
X46028Y-24500D01*
X46050Y-24466D01*
X46050Y-24233D01*
X45964Y-24233D01*
X46221Y-23900D02*
X46242Y-23866D01*
X46285Y-23833D01*
X46392Y-23833D01*
X46435Y-23866D01*
X46457Y-23900D01*
X46478Y-23966D01*
X46478Y-24033D01*
X46457Y-24133D01*
X46200Y-24533D01*
X46478Y-24533D01*
X46885Y-23833D02*
X46671Y-23833D01*
X46650Y-24166D01*
X46671Y-24133D01*
X46714Y-24100D01*
X46821Y-24100D01*
X46864Y-24133D01*
X46885Y-24166D01*
X46907Y-24233D01*
X46907Y-24400D01*
X46885Y-24466D01*
X46864Y-24500D01*
X46821Y-24533D01*
X46714Y-24533D01*
X46671Y-24500D01*
X46650Y-24466D01*
X47314Y-23833D02*
X47100Y-23833D01*
X47078Y-24166D01*
X47100Y-24133D01*
X47142Y-24100D01*
X47250Y-24100D01*
X47292Y-24133D01*
X47314Y-24166D01*
X47335Y-24233D01*
X47335Y-24400D01*
X47314Y-24466D01*
X47292Y-24500D01*
X47250Y-24533D01*
X47142Y-24533D01*
X47100Y-24500D01*
X47078Y-24466D01*
X47485Y-23833D02*
X47764Y-23833D01*
X47614Y-24100D01*
X47678Y-24100D01*
X47721Y-24133D01*
X47742Y-24166D01*
X47764Y-24233D01*
X47764Y-24400D01*
X47742Y-24466D01*
X47721Y-24500D01*
X47678Y-24533D01*
X47549Y-24533D01*
X47507Y-24500D01*
X47485Y-24466D01*
X47957Y-24533D02*
X47957Y-23833D01*
X48171Y-24533D02*
X48171Y-23833D01*
X48428Y-24533D01*
X48428Y-23833D01*
X48621Y-23900D02*
X48642Y-23866D01*
X48685Y-23833D01*
X48792Y-23833D01*
X48835Y-23866D01*
X48857Y-23900D01*
X48878Y-23966D01*
X48878Y-24033D01*
X48857Y-24133D01*
X48600Y-24533D01*
X48878Y-24533D01*
X49157Y-23833D02*
X49199Y-23833D01*
X49242Y-23866D01*
X49264Y-23900D01*
X49285Y-23966D01*
X49307Y-24100D01*
X49307Y-24266D01*
X49285Y-24400D01*
X49264Y-24466D01*
X49242Y-24500D01*
X49199Y-24533D01*
X49157Y-24533D01*
X49114Y-24500D01*
X49092Y-24466D01*
X49071Y-24400D01*
X49049Y-24266D01*
X49049Y-24100D01*
X49071Y-23966D01*
X49092Y-23900D01*
X49114Y-23866D01*
X49157Y-23833D01*
G54D15*
G54D19*
X51966Y-33022D02*
X51800Y-32760D01*
X51680Y-33022D02*
X51680Y-32472D01*
X51871Y-32472D01*
X51919Y-32498D01*
X51942Y-32525D01*
X51966Y-32577D01*
X51966Y-32655D01*
X51942Y-32708D01*
X51919Y-32734D01*
X51871Y-32760D01*
X51680Y-32760D01*
X52204Y-33022D02*
X52300Y-33022D01*
X52347Y-32996D01*
X52371Y-32970D01*
X52419Y-32891D01*
X52442Y-32786D01*
X52442Y-32577D01*
X52419Y-32525D01*
X52395Y-32498D01*
X52347Y-32472D01*
X52252Y-32472D01*
X52204Y-32498D01*
X52180Y-32525D01*
X52157Y-32577D01*
X52157Y-32708D01*
X52180Y-32760D01*
X52204Y-32786D01*
X52252Y-32813D01*
X52347Y-32813D01*
X52395Y-32786D01*
X52419Y-32760D01*
X52442Y-32708D01*
X53123Y-25766D02*
X53142Y-25785D01*
X53161Y-25842D01*
X53161Y-25880D01*
X53142Y-25938D01*
X53104Y-25976D01*
X53066Y-25995D01*
X52990Y-26014D01*
X52933Y-26014D01*
X52857Y-25995D01*
X52819Y-25976D01*
X52780Y-25938D01*
X52761Y-25880D01*
X52761Y-25842D01*
X52780Y-25785D01*
X52800Y-25766D01*
X53161Y-25385D02*
X53161Y-25614D01*
X53161Y-25499D02*
X52761Y-25499D01*
X52819Y-25538D01*
X52857Y-25576D01*
X52876Y-25614D01*
%LPC*%
G54D21*
X36200Y-34500D03*
X37200Y-34500D03*
G54D22*
X35500Y-28000D03*
X43500Y-28000D03*
G54D23*
X52050Y-30500D03*
G54D24*
X52050Y-29500D03*
X52050Y-28500D03*
X52050Y-27500D03*
G54D23*
X50000Y-30500D03*
G54D24*
X50000Y-29500D03*
X50000Y-28500D03*
X50000Y-27500D03*
G54D23*
X37000Y-23000D03*
G54D24*
X36000Y-23000D03*
X35000Y-23000D03*
X51250Y-33000D03*
X52250Y-33000D03*
X49000Y-33000D03*
X50000Y-33000D03*
X46750Y-33000D03*
X47750Y-33000D03*
X44500Y-33000D03*
X45500Y-33000D03*
X42250Y-33000D03*
X43250Y-33000D03*
X40000Y-33000D03*
X41000Y-33000D03*
X37750Y-33000D03*
X38750Y-33000D03*
X35500Y-33000D03*
X36500Y-33000D03*
G54D21*
X50600Y-34500D03*
X51600Y-34500D03*
X48500Y-34500D03*
X49500Y-34500D03*
X46450Y-34500D03*
X47450Y-34500D03*
X44400Y-34500D03*
X45400Y-34500D03*
X42350Y-34500D03*
X43350Y-34500D03*
X40300Y-34500D03*
X41300Y-34500D03*
X38250Y-34500D03*
X39250Y-34500D03*
G54D23*
X51700Y-22750D03*
G54D24*
X50700Y-22750D03*
X49700Y-22750D03*
X48700Y-22750D03*
X47700Y-22750D03*
X46700Y-22750D03*
X45700Y-22750D03*
X44700Y-22750D03*
X43700Y-22750D03*
X42700Y-22750D03*
X42700Y-25750D03*
X43700Y-25750D03*
X44700Y-25750D03*
X45700Y-25750D03*
X46700Y-25750D03*
X47700Y-25750D03*
X48700Y-25750D03*
X49700Y-25750D03*
X50700Y-25750D03*
X51700Y-25750D03*
X51950Y-31800D03*
X52950Y-31800D03*
X52850Y-23750D03*
X52850Y-24750D03*
G54D25*
X34850Y-24350D03*
X34900Y-31700D03*
M02*
