G04 (created by PCBNEW (2013-07-07 BZR 4022)-stable) date 06/07/2014 18:00:34*
%MOIN*%
G04 Gerber Fmt 3.4, Leading zero omitted, Abs format*
%FSLAX34Y34*%
G01*
G70*
G90*
G04 APERTURE LIST*
%ADD10C,0.00393701*%
%ADD11C,0.00590551*%
%ADD12C,0.005*%
%ADD13C,0.01*%
%ADD14C,0.006*%
%ADD15C,0.0026*%
%ADD16C,0.004*%
%ADD17C,0.015748*%
%ADD18C,0.015*%
%ADD19C,0.0001*%
%ADD20C,0.0059*%
%ADD21C,0.00492126*%
%ADD22C,0.008*%
%ADD23C,0.0035*%
%ADD24C,0.012*%
G04 APERTURE END LIST*
G54D10*
X29151Y-20795D02*
X29151Y-20559D01*
X29241Y-20559D01*
X29264Y-20570D01*
X29275Y-20581D01*
X29286Y-20604D01*
X29286Y-20638D01*
X29275Y-20660D01*
X29264Y-20671D01*
X29241Y-20683D01*
X29151Y-20683D01*
X29511Y-20795D02*
X29376Y-20795D01*
X29444Y-20795D02*
X29444Y-20559D01*
X29421Y-20593D01*
X29399Y-20615D01*
X29376Y-20626D01*
X29927Y-20773D02*
X29916Y-20784D01*
X29882Y-20795D01*
X29860Y-20795D01*
X29826Y-20784D01*
X29804Y-20761D01*
X29792Y-20739D01*
X29781Y-20694D01*
X29781Y-20660D01*
X29792Y-20615D01*
X29804Y-20593D01*
X29826Y-20570D01*
X29860Y-20559D01*
X29882Y-20559D01*
X29916Y-20570D01*
X29927Y-20581D01*
X30062Y-20795D02*
X30040Y-20784D01*
X30029Y-20773D01*
X30017Y-20750D01*
X30017Y-20683D01*
X30029Y-20660D01*
X30040Y-20649D01*
X30062Y-20638D01*
X30096Y-20638D01*
X30119Y-20649D01*
X30130Y-20660D01*
X30141Y-20683D01*
X30141Y-20750D01*
X30130Y-20773D01*
X30119Y-20784D01*
X30096Y-20795D01*
X30062Y-20795D01*
X30242Y-20795D02*
X30242Y-20638D01*
X30242Y-20660D02*
X30253Y-20649D01*
X30276Y-20638D01*
X30310Y-20638D01*
X30332Y-20649D01*
X30343Y-20671D01*
X30343Y-20795D01*
X30343Y-20671D02*
X30355Y-20649D01*
X30377Y-20638D01*
X30411Y-20638D01*
X30433Y-20649D01*
X30445Y-20671D01*
X30445Y-20795D01*
X30861Y-20795D02*
X30726Y-20795D01*
X30793Y-20795D02*
X30793Y-20559D01*
X30771Y-20593D01*
X30748Y-20615D01*
X30726Y-20626D01*
X30962Y-20671D02*
X31142Y-20671D01*
X31142Y-20739D02*
X30962Y-20739D01*
X31232Y-20559D02*
X31378Y-20559D01*
X31300Y-20649D01*
X31333Y-20649D01*
X31356Y-20660D01*
X31367Y-20671D01*
X31378Y-20694D01*
X31378Y-20750D01*
X31367Y-20773D01*
X31356Y-20784D01*
X31333Y-20795D01*
X31266Y-20795D01*
X31243Y-20784D01*
X31232Y-20773D01*
X31446Y-20559D02*
X31525Y-20795D01*
X31603Y-20559D01*
X31851Y-20581D02*
X31862Y-20570D01*
X31885Y-20559D01*
X31941Y-20559D01*
X31963Y-20570D01*
X31975Y-20581D01*
X31986Y-20604D01*
X31986Y-20626D01*
X31975Y-20660D01*
X31840Y-20795D01*
X31986Y-20795D01*
X32087Y-20671D02*
X32267Y-20671D01*
X32267Y-20739D02*
X32087Y-20739D01*
X32346Y-20559D02*
X32481Y-20559D01*
X32413Y-20795D02*
X32413Y-20559D01*
X32537Y-20559D02*
X32694Y-20795D01*
X32694Y-20559D02*
X32537Y-20795D01*
X32942Y-20559D02*
X33088Y-20559D01*
X33009Y-20649D01*
X33043Y-20649D01*
X33066Y-20660D01*
X33077Y-20671D01*
X33088Y-20694D01*
X33088Y-20750D01*
X33077Y-20773D01*
X33066Y-20784D01*
X33043Y-20795D01*
X32976Y-20795D01*
X32953Y-20784D01*
X32942Y-20773D01*
X33189Y-20671D02*
X33369Y-20671D01*
X33369Y-20739D02*
X33189Y-20739D01*
X33617Y-20795D02*
X33538Y-20683D01*
X33482Y-20795D02*
X33482Y-20559D01*
X33572Y-20559D01*
X33594Y-20570D01*
X33606Y-20581D01*
X33617Y-20604D01*
X33617Y-20638D01*
X33606Y-20660D01*
X33594Y-20671D01*
X33572Y-20683D01*
X33482Y-20683D01*
X33696Y-20559D02*
X33853Y-20795D01*
X33853Y-20559D02*
X33696Y-20795D01*
X34224Y-20638D02*
X34224Y-20795D01*
X34168Y-20548D02*
X34112Y-20716D01*
X34258Y-20716D01*
X34348Y-20671D02*
X34528Y-20671D01*
X34528Y-20739D02*
X34348Y-20739D01*
X34764Y-20570D02*
X34742Y-20559D01*
X34708Y-20559D01*
X34674Y-20570D01*
X34652Y-20593D01*
X34640Y-20615D01*
X34629Y-20660D01*
X34629Y-20694D01*
X34640Y-20739D01*
X34652Y-20761D01*
X34674Y-20784D01*
X34708Y-20795D01*
X34730Y-20795D01*
X34764Y-20784D01*
X34775Y-20773D01*
X34775Y-20694D01*
X34730Y-20694D01*
X34877Y-20795D02*
X34877Y-20559D01*
X35012Y-20795D01*
X35012Y-20559D01*
X35124Y-20795D02*
X35124Y-20559D01*
X35180Y-20559D01*
X35214Y-20570D01*
X35237Y-20593D01*
X35248Y-20615D01*
X35259Y-20660D01*
X35259Y-20694D01*
X35248Y-20739D01*
X35237Y-20761D01*
X35214Y-20784D01*
X35180Y-20795D01*
X35124Y-20795D01*
X28842Y-21165D02*
X28842Y-20929D01*
X28932Y-20929D01*
X28954Y-20940D01*
X28966Y-20951D01*
X28977Y-20974D01*
X28977Y-21008D01*
X28966Y-21030D01*
X28954Y-21041D01*
X28932Y-21053D01*
X28842Y-21053D01*
X29067Y-20951D02*
X29078Y-20940D01*
X29101Y-20929D01*
X29157Y-20929D01*
X29179Y-20940D01*
X29191Y-20951D01*
X29202Y-20974D01*
X29202Y-20996D01*
X29191Y-21030D01*
X29056Y-21165D01*
X29202Y-21165D01*
X29483Y-21165D02*
X29483Y-20929D01*
X29573Y-20929D01*
X29595Y-20940D01*
X29607Y-20951D01*
X29618Y-20974D01*
X29618Y-21008D01*
X29607Y-21030D01*
X29595Y-21041D01*
X29573Y-21053D01*
X29483Y-21053D01*
X29719Y-21165D02*
X29719Y-21008D01*
X29719Y-21053D02*
X29730Y-21030D01*
X29742Y-21019D01*
X29764Y-21008D01*
X29787Y-21008D01*
X29899Y-21165D02*
X29877Y-21154D01*
X29865Y-21143D01*
X29854Y-21120D01*
X29854Y-21053D01*
X29865Y-21030D01*
X29877Y-21019D01*
X29899Y-21008D01*
X29933Y-21008D01*
X29955Y-21019D01*
X29967Y-21030D01*
X29978Y-21053D01*
X29978Y-21120D01*
X29967Y-21143D01*
X29955Y-21154D01*
X29933Y-21165D01*
X29899Y-21165D01*
X30180Y-21008D02*
X30180Y-21199D01*
X30169Y-21221D01*
X30158Y-21233D01*
X30135Y-21244D01*
X30102Y-21244D01*
X30079Y-21233D01*
X30180Y-21154D02*
X30158Y-21165D01*
X30113Y-21165D01*
X30090Y-21154D01*
X30079Y-21143D01*
X30068Y-21120D01*
X30068Y-21053D01*
X30079Y-21030D01*
X30090Y-21019D01*
X30113Y-21008D01*
X30158Y-21008D01*
X30180Y-21019D01*
X30597Y-21165D02*
X30462Y-21165D01*
X30529Y-21165D02*
X30529Y-20929D01*
X30507Y-20963D01*
X30484Y-20985D01*
X30462Y-20996D01*
X30698Y-21041D02*
X30878Y-21041D01*
X30878Y-21109D02*
X30698Y-21109D01*
X30968Y-20929D02*
X31114Y-20929D01*
X31035Y-21019D01*
X31069Y-21019D01*
X31092Y-21030D01*
X31103Y-21041D01*
X31114Y-21064D01*
X31114Y-21120D01*
X31103Y-21143D01*
X31092Y-21154D01*
X31069Y-21165D01*
X31002Y-21165D01*
X30979Y-21154D01*
X30968Y-21143D01*
X31182Y-20929D02*
X31260Y-21165D01*
X31339Y-20929D01*
X31586Y-20951D02*
X31598Y-20940D01*
X31620Y-20929D01*
X31676Y-20929D01*
X31699Y-20940D01*
X31710Y-20951D01*
X31721Y-20974D01*
X31721Y-20996D01*
X31710Y-21030D01*
X31575Y-21165D01*
X31721Y-21165D01*
X31823Y-21041D02*
X32003Y-21041D01*
X32003Y-21109D02*
X31823Y-21109D01*
X32081Y-20929D02*
X32216Y-20929D01*
X32149Y-21165D02*
X32149Y-20929D01*
X32295Y-21041D02*
X32374Y-21041D01*
X32408Y-21165D02*
X32295Y-21165D01*
X32295Y-20929D01*
X32408Y-20929D01*
X32498Y-21154D02*
X32531Y-21165D01*
X32588Y-21165D01*
X32610Y-21154D01*
X32621Y-21143D01*
X32633Y-21120D01*
X32633Y-21098D01*
X32621Y-21075D01*
X32610Y-21064D01*
X32588Y-21053D01*
X32543Y-21041D01*
X32520Y-21030D01*
X32509Y-21019D01*
X32498Y-20996D01*
X32498Y-20974D01*
X32509Y-20951D01*
X32520Y-20940D01*
X32543Y-20929D01*
X32599Y-20929D01*
X32633Y-20940D01*
X32700Y-20929D02*
X32835Y-20929D01*
X32768Y-21165D02*
X32768Y-20929D01*
X33071Y-20929D02*
X33217Y-20929D01*
X33139Y-21019D01*
X33173Y-21019D01*
X33195Y-21030D01*
X33206Y-21041D01*
X33217Y-21064D01*
X33217Y-21120D01*
X33206Y-21143D01*
X33195Y-21154D01*
X33173Y-21165D01*
X33105Y-21165D01*
X33083Y-21154D01*
X33071Y-21143D01*
X33319Y-21041D02*
X33499Y-21041D01*
X33499Y-21109D02*
X33319Y-21109D01*
X33746Y-21165D02*
X33667Y-21053D01*
X33611Y-21165D02*
X33611Y-20929D01*
X33701Y-20929D01*
X33724Y-20940D01*
X33735Y-20951D01*
X33746Y-20974D01*
X33746Y-21008D01*
X33735Y-21030D01*
X33724Y-21041D01*
X33701Y-21053D01*
X33611Y-21053D01*
X33836Y-21154D02*
X33870Y-21165D01*
X33926Y-21165D01*
X33949Y-21154D01*
X33960Y-21143D01*
X33971Y-21120D01*
X33971Y-21098D01*
X33960Y-21075D01*
X33949Y-21064D01*
X33926Y-21053D01*
X33881Y-21041D01*
X33859Y-21030D01*
X33847Y-21019D01*
X33836Y-20996D01*
X33836Y-20974D01*
X33847Y-20951D01*
X33859Y-20940D01*
X33881Y-20929D01*
X33937Y-20929D01*
X33971Y-20940D01*
X34039Y-20929D02*
X34174Y-20929D01*
X34106Y-21165D02*
X34106Y-20929D01*
X33555Y-20869D02*
X34196Y-20869D01*
X34534Y-21008D02*
X34534Y-21165D01*
X34477Y-20918D02*
X34421Y-21086D01*
X34567Y-21086D01*
X34657Y-21041D02*
X34837Y-21041D01*
X34837Y-21109D02*
X34657Y-21109D01*
X35074Y-20940D02*
X35051Y-20929D01*
X35017Y-20929D01*
X34984Y-20940D01*
X34961Y-20963D01*
X34950Y-20985D01*
X34939Y-21030D01*
X34939Y-21064D01*
X34950Y-21109D01*
X34961Y-21131D01*
X34984Y-21154D01*
X35017Y-21165D01*
X35040Y-21165D01*
X35074Y-21154D01*
X35085Y-21143D01*
X35085Y-21064D01*
X35040Y-21064D01*
X35186Y-21165D02*
X35186Y-20929D01*
X35321Y-21165D01*
X35321Y-20929D01*
X35433Y-21165D02*
X35433Y-20929D01*
X35490Y-20929D01*
X35523Y-20940D01*
X35546Y-20963D01*
X35557Y-20985D01*
X35568Y-21030D01*
X35568Y-21064D01*
X35557Y-21109D01*
X35546Y-21131D01*
X35523Y-21154D01*
X35490Y-21165D01*
X35433Y-21165D01*
G54D11*
X20427Y-18562D02*
X20487Y-18562D01*
X20517Y-18577D01*
X20547Y-18607D01*
X20562Y-18667D01*
X20562Y-18772D01*
X20547Y-18832D01*
X20517Y-18862D01*
X20487Y-18877D01*
X20427Y-18877D01*
X20397Y-18862D01*
X20367Y-18832D01*
X20352Y-18772D01*
X20352Y-18667D01*
X20367Y-18607D01*
X20397Y-18577D01*
X20427Y-18562D01*
X20682Y-18862D02*
X20727Y-18877D01*
X20802Y-18877D01*
X20832Y-18862D01*
X20847Y-18847D01*
X20862Y-18817D01*
X20862Y-18787D01*
X20847Y-18757D01*
X20832Y-18742D01*
X20802Y-18727D01*
X20742Y-18712D01*
X20712Y-18697D01*
X20697Y-18682D01*
X20682Y-18652D01*
X20682Y-18622D01*
X20697Y-18592D01*
X20712Y-18577D01*
X20742Y-18562D01*
X20817Y-18562D01*
X20862Y-18577D01*
X20997Y-18877D02*
X20997Y-18562D01*
X20997Y-18712D02*
X21177Y-18712D01*
X21177Y-18877D02*
X21177Y-18562D01*
X21747Y-18847D02*
X21732Y-18862D01*
X21687Y-18877D01*
X21657Y-18877D01*
X21612Y-18862D01*
X21582Y-18832D01*
X21567Y-18802D01*
X21552Y-18742D01*
X21552Y-18697D01*
X21567Y-18637D01*
X21582Y-18607D01*
X21612Y-18577D01*
X21657Y-18562D01*
X21687Y-18562D01*
X21732Y-18577D01*
X21747Y-18592D01*
X22062Y-18847D02*
X22047Y-18862D01*
X22002Y-18877D01*
X21972Y-18877D01*
X21927Y-18862D01*
X21897Y-18832D01*
X21882Y-18802D01*
X21867Y-18742D01*
X21867Y-18697D01*
X21882Y-18637D01*
X21897Y-18607D01*
X21927Y-18577D01*
X21972Y-18562D01*
X22002Y-18562D01*
X22047Y-18577D01*
X22062Y-18592D01*
X22197Y-18877D02*
X22197Y-18562D01*
X22377Y-18877D01*
X22377Y-18562D01*
X22707Y-18847D02*
X22692Y-18862D01*
X22647Y-18877D01*
X22617Y-18877D01*
X22572Y-18862D01*
X22542Y-18832D01*
X22527Y-18802D01*
X22512Y-18742D01*
X22512Y-18697D01*
X22527Y-18637D01*
X22542Y-18607D01*
X22572Y-18577D01*
X22617Y-18562D01*
X22647Y-18562D01*
X22692Y-18577D01*
X22707Y-18592D01*
X23067Y-18592D02*
X23082Y-18577D01*
X23112Y-18562D01*
X23187Y-18562D01*
X23217Y-18577D01*
X23232Y-18592D01*
X23247Y-18622D01*
X23247Y-18652D01*
X23232Y-18697D01*
X23052Y-18877D01*
X23247Y-18877D01*
X23442Y-18562D02*
X23472Y-18562D01*
X23502Y-18577D01*
X23517Y-18592D01*
X23532Y-18622D01*
X23547Y-18682D01*
X23547Y-18757D01*
X23532Y-18817D01*
X23517Y-18847D01*
X23502Y-18862D01*
X23472Y-18877D01*
X23442Y-18877D01*
X23412Y-18862D01*
X23397Y-18847D01*
X23382Y-18817D01*
X23367Y-18757D01*
X23367Y-18682D01*
X23382Y-18622D01*
X23397Y-18592D01*
X23412Y-18577D01*
X23442Y-18562D01*
X23847Y-18877D02*
X23667Y-18877D01*
X23757Y-18877D02*
X23757Y-18562D01*
X23727Y-18607D01*
X23697Y-18637D01*
X23667Y-18652D01*
X24117Y-18667D02*
X24117Y-18877D01*
X24042Y-18547D02*
X23967Y-18772D01*
X24162Y-18772D01*
X20302Y-17767D02*
X20302Y-18022D01*
X20287Y-18052D01*
X20272Y-18067D01*
X20242Y-18082D01*
X20197Y-18082D01*
X20167Y-18067D01*
X20302Y-17962D02*
X20272Y-17977D01*
X20212Y-17977D01*
X20182Y-17962D01*
X20167Y-17947D01*
X20152Y-17917D01*
X20152Y-17827D01*
X20167Y-17797D01*
X20182Y-17782D01*
X20212Y-17767D01*
X20272Y-17767D01*
X20302Y-17782D01*
X20452Y-17977D02*
X20452Y-17767D01*
X20452Y-17662D02*
X20437Y-17677D01*
X20452Y-17692D01*
X20467Y-17677D01*
X20452Y-17662D01*
X20452Y-17692D01*
X20557Y-17767D02*
X20677Y-17767D01*
X20602Y-17662D02*
X20602Y-17932D01*
X20617Y-17962D01*
X20647Y-17977D01*
X20677Y-17977D01*
X20782Y-17977D02*
X20782Y-17662D01*
X20917Y-17977D02*
X20917Y-17812D01*
X20902Y-17782D01*
X20872Y-17767D01*
X20827Y-17767D01*
X20797Y-17782D01*
X20782Y-17797D01*
X21202Y-17767D02*
X21202Y-17977D01*
X21067Y-17767D02*
X21067Y-17932D01*
X21082Y-17962D01*
X21112Y-17977D01*
X21157Y-17977D01*
X21187Y-17962D01*
X21202Y-17947D01*
X21352Y-17977D02*
X21352Y-17662D01*
X21352Y-17782D02*
X21382Y-17767D01*
X21442Y-17767D01*
X21472Y-17782D01*
X21487Y-17797D01*
X21502Y-17827D01*
X21502Y-17917D01*
X21487Y-17947D01*
X21472Y-17962D01*
X21442Y-17977D01*
X21382Y-17977D01*
X21352Y-17962D01*
X21637Y-17947D02*
X21652Y-17962D01*
X21637Y-17977D01*
X21622Y-17962D01*
X21637Y-17947D01*
X21637Y-17977D01*
X21922Y-17962D02*
X21892Y-17977D01*
X21832Y-17977D01*
X21802Y-17962D01*
X21787Y-17947D01*
X21772Y-17917D01*
X21772Y-17827D01*
X21787Y-17797D01*
X21802Y-17782D01*
X21832Y-17767D01*
X21892Y-17767D01*
X21922Y-17782D01*
X22102Y-17977D02*
X22072Y-17962D01*
X22057Y-17947D01*
X22042Y-17917D01*
X22042Y-17827D01*
X22057Y-17797D01*
X22072Y-17782D01*
X22102Y-17767D01*
X22147Y-17767D01*
X22177Y-17782D01*
X22192Y-17797D01*
X22207Y-17827D01*
X22207Y-17917D01*
X22192Y-17947D01*
X22177Y-17962D01*
X22147Y-17977D01*
X22102Y-17977D01*
X22342Y-17977D02*
X22342Y-17767D01*
X22342Y-17797D02*
X22357Y-17782D01*
X22387Y-17767D01*
X22432Y-17767D01*
X22462Y-17782D01*
X22477Y-17812D01*
X22477Y-17977D01*
X22477Y-17812D02*
X22492Y-17782D01*
X22522Y-17767D01*
X22567Y-17767D01*
X22597Y-17782D01*
X22612Y-17812D01*
X22612Y-17977D01*
X22987Y-17647D02*
X22717Y-18052D01*
X23092Y-17977D02*
X23092Y-17767D01*
X23092Y-17797D02*
X23107Y-17782D01*
X23137Y-17767D01*
X23182Y-17767D01*
X23212Y-17782D01*
X23227Y-17812D01*
X23227Y-17977D01*
X23227Y-17812D02*
X23242Y-17782D01*
X23272Y-17767D01*
X23317Y-17767D01*
X23347Y-17782D01*
X23362Y-17812D01*
X23362Y-17977D01*
X23647Y-17977D02*
X23647Y-17812D01*
X23632Y-17782D01*
X23602Y-17767D01*
X23542Y-17767D01*
X23512Y-17782D01*
X23647Y-17962D02*
X23617Y-17977D01*
X23542Y-17977D01*
X23512Y-17962D01*
X23497Y-17932D01*
X23497Y-17902D01*
X23512Y-17872D01*
X23542Y-17857D01*
X23617Y-17857D01*
X23647Y-17842D01*
X23797Y-17977D02*
X23797Y-17767D01*
X23797Y-17827D02*
X23812Y-17797D01*
X23827Y-17782D01*
X23857Y-17767D01*
X23887Y-17767D01*
X23992Y-17977D02*
X23992Y-17662D01*
X24022Y-17857D02*
X24112Y-17977D01*
X24112Y-17767D02*
X23992Y-17887D01*
X24247Y-17767D02*
X24247Y-18037D01*
X24232Y-18067D01*
X24202Y-18082D01*
X24187Y-18082D01*
X24247Y-17662D02*
X24232Y-17677D01*
X24247Y-17692D01*
X24262Y-17677D01*
X24247Y-17662D01*
X24247Y-17692D01*
X24397Y-17977D02*
X24397Y-17662D01*
X24397Y-17782D02*
X24427Y-17767D01*
X24487Y-17767D01*
X24517Y-17782D01*
X24532Y-17797D01*
X24547Y-17827D01*
X24547Y-17917D01*
X24532Y-17947D01*
X24517Y-17962D01*
X24487Y-17977D01*
X24427Y-17977D01*
X24397Y-17962D01*
X19835Y-17177D02*
X19835Y-16862D01*
X19940Y-17087D01*
X20045Y-16862D01*
X20045Y-17177D01*
X20180Y-17162D02*
X20225Y-17177D01*
X20300Y-17177D01*
X20330Y-17162D01*
X20345Y-17147D01*
X20360Y-17117D01*
X20360Y-17087D01*
X20345Y-17057D01*
X20330Y-17042D01*
X20300Y-17027D01*
X20240Y-17012D01*
X20210Y-16997D01*
X20195Y-16982D01*
X20180Y-16952D01*
X20180Y-16922D01*
X20195Y-16892D01*
X20210Y-16877D01*
X20240Y-16862D01*
X20315Y-16862D01*
X20360Y-16877D01*
X20495Y-17177D02*
X20495Y-16862D01*
X20615Y-16862D01*
X20645Y-16877D01*
X20660Y-16892D01*
X20675Y-16922D01*
X20675Y-16967D01*
X20660Y-16997D01*
X20645Y-17012D01*
X20615Y-17027D01*
X20495Y-17027D01*
X20945Y-16967D02*
X20945Y-17177D01*
X20870Y-16847D02*
X20795Y-17072D01*
X20990Y-17072D01*
X21080Y-16862D02*
X21275Y-16862D01*
X21170Y-16982D01*
X21215Y-16982D01*
X21245Y-16997D01*
X21260Y-17012D01*
X21275Y-17042D01*
X21275Y-17117D01*
X21260Y-17147D01*
X21245Y-17162D01*
X21215Y-17177D01*
X21125Y-17177D01*
X21095Y-17162D01*
X21080Y-17147D01*
X21470Y-16862D02*
X21500Y-16862D01*
X21530Y-16877D01*
X21545Y-16892D01*
X21560Y-16922D01*
X21575Y-16982D01*
X21575Y-17057D01*
X21560Y-17117D01*
X21545Y-17147D01*
X21530Y-17162D01*
X21500Y-17177D01*
X21470Y-17177D01*
X21440Y-17162D01*
X21425Y-17147D01*
X21410Y-17117D01*
X21395Y-17057D01*
X21395Y-16982D01*
X21410Y-16922D01*
X21425Y-16892D01*
X21440Y-16877D01*
X21470Y-16862D01*
X21950Y-17177D02*
X21950Y-16862D01*
X22070Y-16862D01*
X22100Y-16877D01*
X22115Y-16892D01*
X22130Y-16922D01*
X22130Y-16967D01*
X22115Y-16997D01*
X22100Y-17012D01*
X22070Y-17027D01*
X21950Y-17027D01*
X22324Y-16862D02*
X22384Y-16862D01*
X22414Y-16877D01*
X22444Y-16907D01*
X22459Y-16967D01*
X22459Y-17072D01*
X22444Y-17132D01*
X22414Y-17162D01*
X22384Y-17177D01*
X22324Y-17177D01*
X22294Y-17162D01*
X22264Y-17132D01*
X22250Y-17072D01*
X22250Y-16967D01*
X22264Y-16907D01*
X22294Y-16877D01*
X22324Y-16862D01*
X22549Y-16862D02*
X22654Y-17177D01*
X22759Y-16862D01*
X23059Y-16862D02*
X23164Y-17177D01*
X23269Y-16862D01*
X23359Y-16892D02*
X23374Y-16877D01*
X23404Y-16862D01*
X23479Y-16862D01*
X23509Y-16877D01*
X23524Y-16892D01*
X23539Y-16922D01*
X23539Y-16952D01*
X23524Y-16997D01*
X23344Y-17177D01*
X23539Y-17177D01*
X23899Y-17162D02*
X23944Y-17177D01*
X24019Y-17177D01*
X24049Y-17162D01*
X24064Y-17147D01*
X24079Y-17117D01*
X24079Y-17087D01*
X24064Y-17057D01*
X24049Y-17042D01*
X24019Y-17027D01*
X23959Y-17012D01*
X23929Y-16997D01*
X23914Y-16982D01*
X23899Y-16952D01*
X23899Y-16922D01*
X23914Y-16892D01*
X23929Y-16877D01*
X23959Y-16862D01*
X24034Y-16862D01*
X24079Y-16877D01*
X24214Y-17177D02*
X24214Y-16862D01*
X24319Y-17087D01*
X24424Y-16862D01*
X24424Y-17177D01*
X24529Y-16862D02*
X24709Y-16862D01*
X24619Y-17177D02*
X24619Y-16862D01*
X18050Y-14200D02*
X17850Y-14200D01*
X18050Y-25500D02*
X17850Y-25500D01*
X36350Y-14200D02*
X36350Y-25500D01*
X18050Y-14200D02*
X36350Y-14200D01*
X17850Y-25500D02*
X17850Y-14200D01*
X36350Y-25500D02*
X18050Y-25500D01*
G54D12*
X29700Y-19650D02*
X32300Y-19650D01*
X32300Y-19650D02*
X32300Y-17850D01*
X32300Y-17850D02*
X29700Y-17850D01*
X29700Y-17850D02*
X29700Y-19650D01*
X32061Y-18150D02*
G75*
G03X32061Y-18150I-111J0D01*
G74*
G01*
X35650Y-22100D02*
X34750Y-22100D01*
X34750Y-22100D02*
X34750Y-22750D01*
X35650Y-23450D02*
X35650Y-24100D01*
X35650Y-24100D02*
X34750Y-24100D01*
X34750Y-24100D02*
X34750Y-23450D01*
X35650Y-22750D02*
X35650Y-22100D01*
X33650Y-22100D02*
X32750Y-22100D01*
X32750Y-22100D02*
X32750Y-22750D01*
X33650Y-23450D02*
X33650Y-24100D01*
X33650Y-24100D02*
X32750Y-24100D01*
X32750Y-24100D02*
X32750Y-23450D01*
X33650Y-22750D02*
X33650Y-22100D01*
X31700Y-22100D02*
X30800Y-22100D01*
X30800Y-22100D02*
X30800Y-22750D01*
X31700Y-23450D02*
X31700Y-24100D01*
X31700Y-24100D02*
X30800Y-24100D01*
X30800Y-24100D02*
X30800Y-23450D01*
X31700Y-22750D02*
X31700Y-22100D01*
X29650Y-22100D02*
X28750Y-22100D01*
X28750Y-22100D02*
X28750Y-22750D01*
X29650Y-23450D02*
X29650Y-24100D01*
X29650Y-24100D02*
X28750Y-24100D01*
X28750Y-24100D02*
X28750Y-23450D01*
X29650Y-22750D02*
X29650Y-22100D01*
X27650Y-22100D02*
X26750Y-22100D01*
X26750Y-22100D02*
X26750Y-22750D01*
X27650Y-23450D02*
X27650Y-24100D01*
X27650Y-24100D02*
X26750Y-24100D01*
X26750Y-24100D02*
X26750Y-23450D01*
X27650Y-22750D02*
X27650Y-22100D01*
X24150Y-23200D02*
X24150Y-24100D01*
X24150Y-24100D02*
X24800Y-24100D01*
X25500Y-23200D02*
X26150Y-23200D01*
X26150Y-23200D02*
X26150Y-24100D01*
X26150Y-24100D02*
X25500Y-24100D01*
X24800Y-23200D02*
X24150Y-23200D01*
X22000Y-23200D02*
X22000Y-24100D01*
X22000Y-24100D02*
X22650Y-24100D01*
X23350Y-23200D02*
X24000Y-23200D01*
X24000Y-23200D02*
X24000Y-24100D01*
X24000Y-24100D02*
X23350Y-24100D01*
X22650Y-23200D02*
X22000Y-23200D01*
X19850Y-23200D02*
X19850Y-24100D01*
X19850Y-24100D02*
X20500Y-24100D01*
X21200Y-23200D02*
X21850Y-23200D01*
X21850Y-23200D02*
X21850Y-24100D01*
X21850Y-24100D02*
X21200Y-24100D01*
X20500Y-23200D02*
X19850Y-23200D01*
G54D13*
X35100Y-15350D02*
X31100Y-15350D01*
X35100Y-14350D02*
X31100Y-14350D01*
X31100Y-14350D02*
X31100Y-15350D01*
X35100Y-15350D02*
X35100Y-14350D01*
X35100Y-16550D02*
X31100Y-16550D01*
X35100Y-15550D02*
X31100Y-15550D01*
X31100Y-15550D02*
X31100Y-16550D01*
X35100Y-16550D02*
X35100Y-15550D01*
G54D14*
X26900Y-16050D02*
X26900Y-15050D01*
X26900Y-15050D02*
X29900Y-15050D01*
X29900Y-15050D02*
X29900Y-16050D01*
X29900Y-16050D02*
X26900Y-16050D01*
X27900Y-15050D02*
X27900Y-16050D01*
G54D15*
X34711Y-24689D02*
X34789Y-24689D01*
X34789Y-24689D02*
X34789Y-24611D01*
X34711Y-24611D02*
X34789Y-24611D01*
X34711Y-24689D02*
X34711Y-24611D01*
X34927Y-24925D02*
X35064Y-24925D01*
X35064Y-24925D02*
X35064Y-24827D01*
X34927Y-24827D02*
X35064Y-24827D01*
X34927Y-24925D02*
X34927Y-24827D01*
X35064Y-24925D02*
X35104Y-24925D01*
X35104Y-24925D02*
X35104Y-24454D01*
X35064Y-24454D02*
X35104Y-24454D01*
X35064Y-24925D02*
X35064Y-24454D01*
X35064Y-24434D02*
X35104Y-24434D01*
X35104Y-24434D02*
X35104Y-24375D01*
X35064Y-24375D02*
X35104Y-24375D01*
X35064Y-24434D02*
X35064Y-24375D01*
X34396Y-24925D02*
X34436Y-24925D01*
X34436Y-24925D02*
X34436Y-24454D01*
X34396Y-24454D02*
X34436Y-24454D01*
X34396Y-24925D02*
X34396Y-24454D01*
X34396Y-24434D02*
X34436Y-24434D01*
X34436Y-24434D02*
X34436Y-24375D01*
X34396Y-24375D02*
X34436Y-24375D01*
X34396Y-24434D02*
X34396Y-24375D01*
X34927Y-24925D02*
X34986Y-24925D01*
X34986Y-24925D02*
X34986Y-24827D01*
X34927Y-24827D02*
X34986Y-24827D01*
X34927Y-24925D02*
X34927Y-24827D01*
G54D16*
X35360Y-24945D02*
X34140Y-24945D01*
X34140Y-24945D02*
X34140Y-24355D01*
X34140Y-24355D02*
X35360Y-24355D01*
X35360Y-24355D02*
X35360Y-24945D01*
X34534Y-24846D02*
G75*
G03X34966Y-24845I215J196D01*
G74*
G01*
X34534Y-24453D02*
G75*
G03X34533Y-24845I215J-196D01*
G74*
G01*
X34965Y-24453D02*
G75*
G03X34533Y-24454I-215J-196D01*
G74*
G01*
X34965Y-24846D02*
G75*
G03X34966Y-24454I-215J196D01*
G74*
G01*
G54D15*
X32711Y-24689D02*
X32789Y-24689D01*
X32789Y-24689D02*
X32789Y-24611D01*
X32711Y-24611D02*
X32789Y-24611D01*
X32711Y-24689D02*
X32711Y-24611D01*
X32927Y-24925D02*
X33064Y-24925D01*
X33064Y-24925D02*
X33064Y-24827D01*
X32927Y-24827D02*
X33064Y-24827D01*
X32927Y-24925D02*
X32927Y-24827D01*
X33064Y-24925D02*
X33104Y-24925D01*
X33104Y-24925D02*
X33104Y-24454D01*
X33064Y-24454D02*
X33104Y-24454D01*
X33064Y-24925D02*
X33064Y-24454D01*
X33064Y-24434D02*
X33104Y-24434D01*
X33104Y-24434D02*
X33104Y-24375D01*
X33064Y-24375D02*
X33104Y-24375D01*
X33064Y-24434D02*
X33064Y-24375D01*
X32396Y-24925D02*
X32436Y-24925D01*
X32436Y-24925D02*
X32436Y-24454D01*
X32396Y-24454D02*
X32436Y-24454D01*
X32396Y-24925D02*
X32396Y-24454D01*
X32396Y-24434D02*
X32436Y-24434D01*
X32436Y-24434D02*
X32436Y-24375D01*
X32396Y-24375D02*
X32436Y-24375D01*
X32396Y-24434D02*
X32396Y-24375D01*
X32927Y-24925D02*
X32986Y-24925D01*
X32986Y-24925D02*
X32986Y-24827D01*
X32927Y-24827D02*
X32986Y-24827D01*
X32927Y-24925D02*
X32927Y-24827D01*
G54D16*
X33360Y-24945D02*
X32140Y-24945D01*
X32140Y-24945D02*
X32140Y-24355D01*
X32140Y-24355D02*
X33360Y-24355D01*
X33360Y-24355D02*
X33360Y-24945D01*
X32534Y-24846D02*
G75*
G03X32966Y-24845I215J196D01*
G74*
G01*
X32534Y-24453D02*
G75*
G03X32533Y-24845I215J-196D01*
G74*
G01*
X32965Y-24453D02*
G75*
G03X32533Y-24454I-215J-196D01*
G74*
G01*
X32965Y-24846D02*
G75*
G03X32966Y-24454I-215J196D01*
G74*
G01*
G54D15*
X30711Y-24689D02*
X30789Y-24689D01*
X30789Y-24689D02*
X30789Y-24611D01*
X30711Y-24611D02*
X30789Y-24611D01*
X30711Y-24689D02*
X30711Y-24611D01*
X30927Y-24925D02*
X31064Y-24925D01*
X31064Y-24925D02*
X31064Y-24827D01*
X30927Y-24827D02*
X31064Y-24827D01*
X30927Y-24925D02*
X30927Y-24827D01*
X31064Y-24925D02*
X31104Y-24925D01*
X31104Y-24925D02*
X31104Y-24454D01*
X31064Y-24454D02*
X31104Y-24454D01*
X31064Y-24925D02*
X31064Y-24454D01*
X31064Y-24434D02*
X31104Y-24434D01*
X31104Y-24434D02*
X31104Y-24375D01*
X31064Y-24375D02*
X31104Y-24375D01*
X31064Y-24434D02*
X31064Y-24375D01*
X30396Y-24925D02*
X30436Y-24925D01*
X30436Y-24925D02*
X30436Y-24454D01*
X30396Y-24454D02*
X30436Y-24454D01*
X30396Y-24925D02*
X30396Y-24454D01*
X30396Y-24434D02*
X30436Y-24434D01*
X30436Y-24434D02*
X30436Y-24375D01*
X30396Y-24375D02*
X30436Y-24375D01*
X30396Y-24434D02*
X30396Y-24375D01*
X30927Y-24925D02*
X30986Y-24925D01*
X30986Y-24925D02*
X30986Y-24827D01*
X30927Y-24827D02*
X30986Y-24827D01*
X30927Y-24925D02*
X30927Y-24827D01*
G54D16*
X31360Y-24945D02*
X30140Y-24945D01*
X30140Y-24945D02*
X30140Y-24355D01*
X30140Y-24355D02*
X31360Y-24355D01*
X31360Y-24355D02*
X31360Y-24945D01*
X30534Y-24846D02*
G75*
G03X30966Y-24845I215J196D01*
G74*
G01*
X30534Y-24453D02*
G75*
G03X30533Y-24845I215J-196D01*
G74*
G01*
X30965Y-24453D02*
G75*
G03X30533Y-24454I-215J-196D01*
G74*
G01*
X30965Y-24846D02*
G75*
G03X30966Y-24454I-215J196D01*
G74*
G01*
G54D15*
X28711Y-24689D02*
X28789Y-24689D01*
X28789Y-24689D02*
X28789Y-24611D01*
X28711Y-24611D02*
X28789Y-24611D01*
X28711Y-24689D02*
X28711Y-24611D01*
X28927Y-24925D02*
X29064Y-24925D01*
X29064Y-24925D02*
X29064Y-24827D01*
X28927Y-24827D02*
X29064Y-24827D01*
X28927Y-24925D02*
X28927Y-24827D01*
X29064Y-24925D02*
X29104Y-24925D01*
X29104Y-24925D02*
X29104Y-24454D01*
X29064Y-24454D02*
X29104Y-24454D01*
X29064Y-24925D02*
X29064Y-24454D01*
X29064Y-24434D02*
X29104Y-24434D01*
X29104Y-24434D02*
X29104Y-24375D01*
X29064Y-24375D02*
X29104Y-24375D01*
X29064Y-24434D02*
X29064Y-24375D01*
X28396Y-24925D02*
X28436Y-24925D01*
X28436Y-24925D02*
X28436Y-24454D01*
X28396Y-24454D02*
X28436Y-24454D01*
X28396Y-24925D02*
X28396Y-24454D01*
X28396Y-24434D02*
X28436Y-24434D01*
X28436Y-24434D02*
X28436Y-24375D01*
X28396Y-24375D02*
X28436Y-24375D01*
X28396Y-24434D02*
X28396Y-24375D01*
X28927Y-24925D02*
X28986Y-24925D01*
X28986Y-24925D02*
X28986Y-24827D01*
X28927Y-24827D02*
X28986Y-24827D01*
X28927Y-24925D02*
X28927Y-24827D01*
G54D16*
X29360Y-24945D02*
X28140Y-24945D01*
X28140Y-24945D02*
X28140Y-24355D01*
X28140Y-24355D02*
X29360Y-24355D01*
X29360Y-24355D02*
X29360Y-24945D01*
X28534Y-24846D02*
G75*
G03X28966Y-24845I215J196D01*
G74*
G01*
X28534Y-24453D02*
G75*
G03X28533Y-24845I215J-196D01*
G74*
G01*
X28965Y-24453D02*
G75*
G03X28533Y-24454I-215J-196D01*
G74*
G01*
X28965Y-24846D02*
G75*
G03X28966Y-24454I-215J196D01*
G74*
G01*
G54D15*
X26711Y-24689D02*
X26789Y-24689D01*
X26789Y-24689D02*
X26789Y-24611D01*
X26711Y-24611D02*
X26789Y-24611D01*
X26711Y-24689D02*
X26711Y-24611D01*
X26927Y-24925D02*
X27064Y-24925D01*
X27064Y-24925D02*
X27064Y-24827D01*
X26927Y-24827D02*
X27064Y-24827D01*
X26927Y-24925D02*
X26927Y-24827D01*
X27064Y-24925D02*
X27104Y-24925D01*
X27104Y-24925D02*
X27104Y-24454D01*
X27064Y-24454D02*
X27104Y-24454D01*
X27064Y-24925D02*
X27064Y-24454D01*
X27064Y-24434D02*
X27104Y-24434D01*
X27104Y-24434D02*
X27104Y-24375D01*
X27064Y-24375D02*
X27104Y-24375D01*
X27064Y-24434D02*
X27064Y-24375D01*
X26396Y-24925D02*
X26436Y-24925D01*
X26436Y-24925D02*
X26436Y-24454D01*
X26396Y-24454D02*
X26436Y-24454D01*
X26396Y-24925D02*
X26396Y-24454D01*
X26396Y-24434D02*
X26436Y-24434D01*
X26436Y-24434D02*
X26436Y-24375D01*
X26396Y-24375D02*
X26436Y-24375D01*
X26396Y-24434D02*
X26396Y-24375D01*
X26927Y-24925D02*
X26986Y-24925D01*
X26986Y-24925D02*
X26986Y-24827D01*
X26927Y-24827D02*
X26986Y-24827D01*
X26927Y-24925D02*
X26927Y-24827D01*
G54D16*
X27360Y-24945D02*
X26140Y-24945D01*
X26140Y-24945D02*
X26140Y-24355D01*
X26140Y-24355D02*
X27360Y-24355D01*
X27360Y-24355D02*
X27360Y-24945D01*
X26534Y-24846D02*
G75*
G03X26966Y-24845I215J196D01*
G74*
G01*
X26534Y-24453D02*
G75*
G03X26533Y-24845I215J-196D01*
G74*
G01*
X26965Y-24453D02*
G75*
G03X26533Y-24454I-215J-196D01*
G74*
G01*
X26965Y-24846D02*
G75*
G03X26966Y-24454I-215J196D01*
G74*
G01*
G54D15*
X24711Y-24689D02*
X24789Y-24689D01*
X24789Y-24689D02*
X24789Y-24611D01*
X24711Y-24611D02*
X24789Y-24611D01*
X24711Y-24689D02*
X24711Y-24611D01*
X24927Y-24925D02*
X25064Y-24925D01*
X25064Y-24925D02*
X25064Y-24827D01*
X24927Y-24827D02*
X25064Y-24827D01*
X24927Y-24925D02*
X24927Y-24827D01*
X25064Y-24925D02*
X25104Y-24925D01*
X25104Y-24925D02*
X25104Y-24454D01*
X25064Y-24454D02*
X25104Y-24454D01*
X25064Y-24925D02*
X25064Y-24454D01*
X25064Y-24434D02*
X25104Y-24434D01*
X25104Y-24434D02*
X25104Y-24375D01*
X25064Y-24375D02*
X25104Y-24375D01*
X25064Y-24434D02*
X25064Y-24375D01*
X24396Y-24925D02*
X24436Y-24925D01*
X24436Y-24925D02*
X24436Y-24454D01*
X24396Y-24454D02*
X24436Y-24454D01*
X24396Y-24925D02*
X24396Y-24454D01*
X24396Y-24434D02*
X24436Y-24434D01*
X24436Y-24434D02*
X24436Y-24375D01*
X24396Y-24375D02*
X24436Y-24375D01*
X24396Y-24434D02*
X24396Y-24375D01*
X24927Y-24925D02*
X24986Y-24925D01*
X24986Y-24925D02*
X24986Y-24827D01*
X24927Y-24827D02*
X24986Y-24827D01*
X24927Y-24925D02*
X24927Y-24827D01*
G54D16*
X25360Y-24945D02*
X24140Y-24945D01*
X24140Y-24945D02*
X24140Y-24355D01*
X24140Y-24355D02*
X25360Y-24355D01*
X25360Y-24355D02*
X25360Y-24945D01*
X24534Y-24846D02*
G75*
G03X24966Y-24845I215J196D01*
G74*
G01*
X24534Y-24453D02*
G75*
G03X24533Y-24845I215J-196D01*
G74*
G01*
X24965Y-24453D02*
G75*
G03X24533Y-24454I-215J-196D01*
G74*
G01*
X24965Y-24846D02*
G75*
G03X24966Y-24454I-215J196D01*
G74*
G01*
G54D15*
X22711Y-24689D02*
X22789Y-24689D01*
X22789Y-24689D02*
X22789Y-24611D01*
X22711Y-24611D02*
X22789Y-24611D01*
X22711Y-24689D02*
X22711Y-24611D01*
X22927Y-24925D02*
X23064Y-24925D01*
X23064Y-24925D02*
X23064Y-24827D01*
X22927Y-24827D02*
X23064Y-24827D01*
X22927Y-24925D02*
X22927Y-24827D01*
X23064Y-24925D02*
X23104Y-24925D01*
X23104Y-24925D02*
X23104Y-24454D01*
X23064Y-24454D02*
X23104Y-24454D01*
X23064Y-24925D02*
X23064Y-24454D01*
X23064Y-24434D02*
X23104Y-24434D01*
X23104Y-24434D02*
X23104Y-24375D01*
X23064Y-24375D02*
X23104Y-24375D01*
X23064Y-24434D02*
X23064Y-24375D01*
X22396Y-24925D02*
X22436Y-24925D01*
X22436Y-24925D02*
X22436Y-24454D01*
X22396Y-24454D02*
X22436Y-24454D01*
X22396Y-24925D02*
X22396Y-24454D01*
X22396Y-24434D02*
X22436Y-24434D01*
X22436Y-24434D02*
X22436Y-24375D01*
X22396Y-24375D02*
X22436Y-24375D01*
X22396Y-24434D02*
X22396Y-24375D01*
X22927Y-24925D02*
X22986Y-24925D01*
X22986Y-24925D02*
X22986Y-24827D01*
X22927Y-24827D02*
X22986Y-24827D01*
X22927Y-24925D02*
X22927Y-24827D01*
G54D16*
X23360Y-24945D02*
X22140Y-24945D01*
X22140Y-24945D02*
X22140Y-24355D01*
X22140Y-24355D02*
X23360Y-24355D01*
X23360Y-24355D02*
X23360Y-24945D01*
X22534Y-24846D02*
G75*
G03X22966Y-24845I215J196D01*
G74*
G01*
X22534Y-24453D02*
G75*
G03X22533Y-24845I215J-196D01*
G74*
G01*
X22965Y-24453D02*
G75*
G03X22533Y-24454I-215J-196D01*
G74*
G01*
X22965Y-24846D02*
G75*
G03X22966Y-24454I-215J196D01*
G74*
G01*
G54D15*
X20711Y-24689D02*
X20789Y-24689D01*
X20789Y-24689D02*
X20789Y-24611D01*
X20711Y-24611D02*
X20789Y-24611D01*
X20711Y-24689D02*
X20711Y-24611D01*
X20927Y-24925D02*
X21064Y-24925D01*
X21064Y-24925D02*
X21064Y-24827D01*
X20927Y-24827D02*
X21064Y-24827D01*
X20927Y-24925D02*
X20927Y-24827D01*
X21064Y-24925D02*
X21104Y-24925D01*
X21104Y-24925D02*
X21104Y-24454D01*
X21064Y-24454D02*
X21104Y-24454D01*
X21064Y-24925D02*
X21064Y-24454D01*
X21064Y-24434D02*
X21104Y-24434D01*
X21104Y-24434D02*
X21104Y-24375D01*
X21064Y-24375D02*
X21104Y-24375D01*
X21064Y-24434D02*
X21064Y-24375D01*
X20396Y-24925D02*
X20436Y-24925D01*
X20436Y-24925D02*
X20436Y-24454D01*
X20396Y-24454D02*
X20436Y-24454D01*
X20396Y-24925D02*
X20396Y-24454D01*
X20396Y-24434D02*
X20436Y-24434D01*
X20436Y-24434D02*
X20436Y-24375D01*
X20396Y-24375D02*
X20436Y-24375D01*
X20396Y-24434D02*
X20396Y-24375D01*
X20927Y-24925D02*
X20986Y-24925D01*
X20986Y-24925D02*
X20986Y-24827D01*
X20927Y-24827D02*
X20986Y-24827D01*
X20927Y-24925D02*
X20927Y-24827D01*
G54D16*
X21360Y-24945D02*
X20140Y-24945D01*
X20140Y-24945D02*
X20140Y-24355D01*
X20140Y-24355D02*
X21360Y-24355D01*
X21360Y-24355D02*
X21360Y-24945D01*
X20534Y-24846D02*
G75*
G03X20966Y-24845I215J196D01*
G74*
G01*
X20534Y-24453D02*
G75*
G03X20533Y-24845I215J-196D01*
G74*
G01*
X20965Y-24453D02*
G75*
G03X20533Y-24454I-215J-196D01*
G74*
G01*
X20965Y-24846D02*
G75*
G03X20966Y-24454I-215J196D01*
G74*
G01*
G54D17*
X28100Y-19750D02*
X26550Y-19750D01*
X28350Y-20000D02*
X26450Y-20000D01*
X28350Y-17400D02*
X26450Y-17400D01*
X28100Y-17700D02*
X26600Y-17700D01*
G54D18*
X28350Y-20200D02*
X28350Y-20700D01*
X28100Y-20450D02*
X28600Y-20450D01*
X28100Y-17700D02*
X28100Y-19700D01*
X28350Y-17450D02*
X28350Y-19950D01*
X25885Y-18700D02*
G75*
G03X25885Y-18700I-3535J0D01*
G74*
G01*
X26651Y-18700D02*
G75*
G03X26651Y-18700I-4301J0D01*
G74*
G01*
G54D12*
X33350Y-17800D02*
X32450Y-17800D01*
X32450Y-17800D02*
X32450Y-18450D01*
X33350Y-19150D02*
X33350Y-19800D01*
X33350Y-19800D02*
X32450Y-19800D01*
X32450Y-19800D02*
X32450Y-19150D01*
X33350Y-18450D02*
X33350Y-17800D01*
X34400Y-17800D02*
X33500Y-17800D01*
X33500Y-17800D02*
X33500Y-18450D01*
X34400Y-19150D02*
X34400Y-19800D01*
X34400Y-19800D02*
X33500Y-19800D01*
X33500Y-19800D02*
X33500Y-19150D01*
X34400Y-18450D02*
X34400Y-17800D01*
G54D19*
G36*
X21434Y-21461D02*
X21447Y-21454D01*
X21474Y-21437D01*
X21514Y-21411D01*
X21560Y-21380D01*
X21607Y-21348D01*
X21646Y-21322D01*
X21673Y-21305D01*
X21684Y-21299D01*
X21690Y-21301D01*
X21712Y-21312D01*
X21744Y-21329D01*
X21763Y-21338D01*
X21793Y-21351D01*
X21807Y-21354D01*
X21810Y-21350D01*
X21821Y-21327D01*
X21838Y-21288D01*
X21860Y-21237D01*
X21886Y-21177D01*
X21913Y-21112D01*
X21940Y-21046D01*
X21966Y-20984D01*
X21990Y-20927D01*
X22008Y-20881D01*
X22020Y-20849D01*
X22025Y-20835D01*
X22023Y-20832D01*
X22009Y-20818D01*
X21983Y-20799D01*
X21927Y-20753D01*
X21872Y-20684D01*
X21838Y-20606D01*
X21827Y-20519D01*
X21836Y-20439D01*
X21868Y-20362D01*
X21922Y-20292D01*
X21988Y-20240D01*
X22064Y-20208D01*
X22150Y-20197D01*
X22232Y-20206D01*
X22311Y-20237D01*
X22381Y-20290D01*
X22410Y-20324D01*
X22451Y-20395D01*
X22474Y-20470D01*
X22476Y-20489D01*
X22473Y-20572D01*
X22448Y-20652D01*
X22405Y-20723D01*
X22344Y-20781D01*
X22336Y-20787D01*
X22308Y-20808D01*
X22289Y-20822D01*
X22274Y-20834D01*
X22380Y-21089D01*
X22397Y-21129D01*
X22426Y-21198D01*
X22451Y-21258D01*
X22472Y-21306D01*
X22486Y-21338D01*
X22492Y-21351D01*
X22493Y-21351D01*
X22502Y-21353D01*
X22521Y-21346D01*
X22557Y-21329D01*
X22580Y-21317D01*
X22607Y-21304D01*
X22619Y-21299D01*
X22630Y-21304D01*
X22656Y-21321D01*
X22693Y-21347D01*
X22739Y-21377D01*
X22782Y-21407D01*
X22822Y-21433D01*
X22851Y-21452D01*
X22865Y-21459D01*
X22867Y-21459D01*
X22880Y-21452D01*
X22903Y-21433D01*
X22937Y-21400D01*
X22986Y-21352D01*
X22994Y-21345D01*
X23034Y-21304D01*
X23067Y-21269D01*
X23089Y-21245D01*
X23097Y-21234D01*
X23097Y-21234D01*
X23089Y-21220D01*
X23071Y-21191D01*
X23045Y-21151D01*
X23013Y-21103D01*
X22928Y-20981D01*
X22975Y-20866D01*
X22989Y-20830D01*
X23007Y-20787D01*
X23020Y-20757D01*
X23027Y-20743D01*
X23040Y-20739D01*
X23071Y-20731D01*
X23117Y-20722D01*
X23172Y-20712D01*
X23224Y-20702D01*
X23271Y-20693D01*
X23305Y-20687D01*
X23320Y-20684D01*
X23324Y-20681D01*
X23327Y-20674D01*
X23329Y-20658D01*
X23330Y-20629D01*
X23331Y-20584D01*
X23331Y-20519D01*
X23331Y-20512D01*
X23330Y-20450D01*
X23329Y-20401D01*
X23327Y-20369D01*
X23325Y-20356D01*
X23325Y-20356D01*
X23310Y-20352D01*
X23277Y-20345D01*
X23230Y-20336D01*
X23174Y-20325D01*
X23170Y-20325D01*
X23114Y-20314D01*
X23068Y-20304D01*
X23035Y-20297D01*
X23021Y-20292D01*
X23018Y-20288D01*
X23007Y-20266D01*
X22991Y-20232D01*
X22972Y-20190D01*
X22954Y-20146D01*
X22938Y-20106D01*
X22928Y-20077D01*
X22925Y-20063D01*
X22925Y-20063D01*
X22933Y-20050D01*
X22952Y-20021D01*
X22980Y-19981D01*
X23012Y-19933D01*
X23015Y-19929D01*
X23047Y-19882D01*
X23073Y-19842D01*
X23090Y-19814D01*
X23097Y-19801D01*
X23097Y-19800D01*
X23086Y-19786D01*
X23062Y-19759D01*
X23027Y-19723D01*
X22986Y-19682D01*
X22973Y-19669D01*
X22927Y-19624D01*
X22895Y-19595D01*
X22875Y-19579D01*
X22866Y-19575D01*
X22865Y-19576D01*
X22851Y-19584D01*
X22821Y-19604D01*
X22781Y-19631D01*
X22733Y-19664D01*
X22730Y-19666D01*
X22682Y-19698D01*
X22643Y-19725D01*
X22615Y-19743D01*
X22603Y-19750D01*
X22601Y-19750D01*
X22582Y-19745D01*
X22548Y-19733D01*
X22507Y-19717D01*
X22463Y-19700D01*
X22423Y-19683D01*
X22394Y-19669D01*
X22380Y-19661D01*
X22379Y-19661D01*
X22374Y-19644D01*
X22366Y-19608D01*
X22356Y-19560D01*
X22345Y-19502D01*
X22343Y-19493D01*
X22333Y-19436D01*
X22324Y-19390D01*
X22317Y-19358D01*
X22314Y-19344D01*
X22306Y-19343D01*
X22278Y-19341D01*
X22236Y-19339D01*
X22185Y-19339D01*
X22132Y-19339D01*
X22080Y-19340D01*
X22036Y-19342D01*
X22004Y-19344D01*
X21990Y-19347D01*
X21990Y-19348D01*
X21985Y-19365D01*
X21977Y-19400D01*
X21967Y-19449D01*
X21956Y-19507D01*
X21954Y-19518D01*
X21944Y-19574D01*
X21934Y-19620D01*
X21927Y-19651D01*
X21924Y-19664D01*
X21919Y-19666D01*
X21896Y-19677D01*
X21858Y-19692D01*
X21811Y-19711D01*
X21703Y-19755D01*
X21571Y-19664D01*
X21559Y-19656D01*
X21511Y-19623D01*
X21472Y-19597D01*
X21444Y-19580D01*
X21433Y-19573D01*
X21432Y-19574D01*
X21419Y-19585D01*
X21393Y-19610D01*
X21357Y-19645D01*
X21315Y-19686D01*
X21284Y-19717D01*
X21248Y-19754D01*
X21225Y-19779D01*
X21212Y-19795D01*
X21207Y-19805D01*
X21209Y-19812D01*
X21217Y-19825D01*
X21237Y-19854D01*
X21264Y-19895D01*
X21296Y-19941D01*
X21323Y-19981D01*
X21352Y-20025D01*
X21370Y-20057D01*
X21377Y-20072D01*
X21375Y-20079D01*
X21366Y-20105D01*
X21350Y-20144D01*
X21330Y-20191D01*
X21284Y-20296D01*
X21215Y-20309D01*
X21174Y-20317D01*
X21115Y-20328D01*
X21059Y-20339D01*
X20972Y-20356D01*
X20969Y-20675D01*
X20983Y-20681D01*
X20996Y-20685D01*
X21028Y-20692D01*
X21074Y-20701D01*
X21128Y-20711D01*
X21175Y-20720D01*
X21221Y-20729D01*
X21255Y-20735D01*
X21270Y-20738D01*
X21273Y-20743D01*
X21285Y-20766D01*
X21302Y-20802D01*
X21320Y-20845D01*
X21339Y-20890D01*
X21355Y-20931D01*
X21367Y-20963D01*
X21371Y-20979D01*
X21365Y-20991D01*
X21347Y-21019D01*
X21321Y-21058D01*
X21290Y-21104D01*
X21258Y-21151D01*
X21231Y-21190D01*
X21212Y-21219D01*
X21205Y-21232D01*
X21209Y-21241D01*
X21227Y-21263D01*
X21262Y-21299D01*
X21314Y-21351D01*
X21323Y-21359D01*
X21364Y-21399D01*
X21399Y-21431D01*
X21423Y-21453D01*
X21434Y-21461D01*
X21434Y-21461D01*
G37*
G54D18*
X19408Y-15050D02*
G75*
G03X19408Y-15050I-708J0D01*
G74*
G01*
X19408Y-24650D02*
G75*
G03X19408Y-24650I-708J0D01*
G74*
G01*
G54D20*
X29060Y-17312D02*
X29060Y-17567D01*
X29075Y-17597D01*
X29090Y-17612D01*
X29120Y-17627D01*
X29180Y-17627D01*
X29210Y-17612D01*
X29225Y-17597D01*
X29240Y-17567D01*
X29240Y-17312D01*
X29555Y-17627D02*
X29375Y-17627D01*
X29465Y-17627D02*
X29465Y-17312D01*
X29435Y-17357D01*
X29405Y-17387D01*
X29375Y-17402D01*
G54D21*
X29550Y-18729D02*
X29550Y-18532D01*
X29615Y-18673D01*
X29681Y-18532D01*
X29681Y-18729D01*
X29765Y-18720D02*
X29793Y-18729D01*
X29840Y-18729D01*
X29859Y-18720D01*
X29868Y-18710D01*
X29878Y-18692D01*
X29878Y-18673D01*
X29868Y-18654D01*
X29859Y-18645D01*
X29840Y-18635D01*
X29803Y-18626D01*
X29784Y-18617D01*
X29775Y-18607D01*
X29765Y-18589D01*
X29765Y-18570D01*
X29775Y-18551D01*
X29784Y-18542D01*
X29803Y-18532D01*
X29850Y-18532D01*
X29878Y-18542D01*
X29962Y-18729D02*
X29962Y-18532D01*
X30037Y-18532D01*
X30056Y-18542D01*
X30065Y-18551D01*
X30075Y-18570D01*
X30075Y-18598D01*
X30065Y-18617D01*
X30056Y-18626D01*
X30037Y-18635D01*
X29962Y-18635D01*
X30243Y-18598D02*
X30243Y-18729D01*
X30196Y-18523D02*
X30150Y-18664D01*
X30271Y-18664D01*
X30328Y-18532D02*
X30450Y-18532D01*
X30384Y-18607D01*
X30412Y-18607D01*
X30431Y-18617D01*
X30440Y-18626D01*
X30450Y-18645D01*
X30450Y-18692D01*
X30440Y-18710D01*
X30431Y-18720D01*
X30412Y-18729D01*
X30356Y-18729D01*
X30337Y-18720D01*
X30328Y-18710D01*
X30571Y-18532D02*
X30590Y-18532D01*
X30609Y-18542D01*
X30618Y-18551D01*
X30628Y-18570D01*
X30637Y-18607D01*
X30637Y-18654D01*
X30628Y-18692D01*
X30618Y-18710D01*
X30609Y-18720D01*
X30590Y-18729D01*
X30571Y-18729D01*
X30553Y-18720D01*
X30543Y-18710D01*
X30534Y-18692D01*
X30525Y-18654D01*
X30525Y-18607D01*
X30534Y-18570D01*
X30543Y-18551D01*
X30553Y-18542D01*
X30571Y-18532D01*
X30825Y-18542D02*
X30806Y-18532D01*
X30778Y-18532D01*
X30750Y-18542D01*
X30731Y-18560D01*
X30721Y-18579D01*
X30712Y-18617D01*
X30712Y-18645D01*
X30721Y-18682D01*
X30731Y-18701D01*
X30750Y-18720D01*
X30778Y-18729D01*
X30796Y-18729D01*
X30825Y-18720D01*
X30834Y-18710D01*
X30834Y-18645D01*
X30796Y-18645D01*
X30909Y-18551D02*
X30918Y-18542D01*
X30937Y-18532D01*
X30984Y-18532D01*
X31003Y-18542D01*
X31012Y-18551D01*
X31021Y-18570D01*
X31021Y-18589D01*
X31012Y-18617D01*
X30900Y-18729D01*
X31021Y-18729D01*
X31199Y-18532D02*
X31106Y-18532D01*
X31096Y-18626D01*
X31106Y-18617D01*
X31124Y-18607D01*
X31171Y-18607D01*
X31190Y-18617D01*
X31199Y-18626D01*
X31209Y-18645D01*
X31209Y-18692D01*
X31199Y-18710D01*
X31190Y-18720D01*
X31171Y-18729D01*
X31124Y-18729D01*
X31106Y-18720D01*
X31096Y-18710D01*
X31387Y-18532D02*
X31293Y-18532D01*
X31284Y-18626D01*
X31293Y-18617D01*
X31312Y-18607D01*
X31359Y-18607D01*
X31378Y-18617D01*
X31387Y-18626D01*
X31396Y-18645D01*
X31396Y-18692D01*
X31387Y-18710D01*
X31378Y-18720D01*
X31359Y-18729D01*
X31312Y-18729D01*
X31293Y-18720D01*
X31284Y-18710D01*
X31462Y-18532D02*
X31584Y-18532D01*
X31518Y-18607D01*
X31546Y-18607D01*
X31565Y-18617D01*
X31574Y-18626D01*
X31584Y-18645D01*
X31584Y-18692D01*
X31574Y-18710D01*
X31565Y-18720D01*
X31546Y-18729D01*
X31490Y-18729D01*
X31471Y-18720D01*
X31462Y-18710D01*
X31668Y-18729D02*
X31668Y-18532D01*
X31762Y-18729D02*
X31762Y-18532D01*
X31874Y-18729D01*
X31874Y-18532D01*
X31959Y-18551D02*
X31968Y-18542D01*
X31987Y-18532D01*
X32034Y-18532D01*
X32052Y-18542D01*
X32062Y-18551D01*
X32071Y-18570D01*
X32071Y-18589D01*
X32062Y-18617D01*
X31949Y-18729D01*
X32071Y-18729D01*
X32193Y-18532D02*
X32212Y-18532D01*
X32231Y-18542D01*
X32240Y-18551D01*
X32249Y-18570D01*
X32259Y-18607D01*
X32259Y-18654D01*
X32249Y-18692D01*
X32240Y-18710D01*
X32231Y-18720D01*
X32212Y-18729D01*
X32193Y-18729D01*
X32174Y-18720D01*
X32165Y-18710D01*
X32156Y-18692D01*
X32146Y-18654D01*
X32146Y-18607D01*
X32156Y-18570D01*
X32165Y-18551D01*
X32174Y-18542D01*
X32193Y-18532D01*
G54D12*
X35321Y-23150D02*
X35178Y-23250D01*
X35321Y-23321D02*
X35021Y-23321D01*
X35021Y-23207D01*
X35035Y-23178D01*
X35050Y-23164D01*
X35078Y-23150D01*
X35121Y-23150D01*
X35150Y-23164D01*
X35164Y-23178D01*
X35178Y-23207D01*
X35178Y-23321D01*
X35150Y-22978D02*
X35135Y-23007D01*
X35121Y-23021D01*
X35092Y-23035D01*
X35078Y-23035D01*
X35050Y-23021D01*
X35035Y-23007D01*
X35021Y-22978D01*
X35021Y-22921D01*
X35035Y-22892D01*
X35050Y-22878D01*
X35078Y-22864D01*
X35092Y-22864D01*
X35121Y-22878D01*
X35135Y-22892D01*
X35150Y-22921D01*
X35150Y-22978D01*
X35164Y-23007D01*
X35178Y-23021D01*
X35207Y-23035D01*
X35264Y-23035D01*
X35292Y-23021D01*
X35307Y-23007D01*
X35321Y-22978D01*
X35321Y-22921D01*
X35307Y-22892D01*
X35292Y-22878D01*
X35264Y-22864D01*
X35207Y-22864D01*
X35178Y-22878D01*
X35164Y-22892D01*
X35150Y-22921D01*
X33321Y-23150D02*
X33178Y-23250D01*
X33321Y-23321D02*
X33021Y-23321D01*
X33021Y-23207D01*
X33035Y-23178D01*
X33050Y-23164D01*
X33078Y-23150D01*
X33121Y-23150D01*
X33150Y-23164D01*
X33164Y-23178D01*
X33178Y-23207D01*
X33178Y-23321D01*
X33021Y-23050D02*
X33021Y-22850D01*
X33321Y-22978D01*
X31371Y-23150D02*
X31228Y-23250D01*
X31371Y-23321D02*
X31071Y-23321D01*
X31071Y-23207D01*
X31085Y-23178D01*
X31100Y-23164D01*
X31128Y-23150D01*
X31171Y-23150D01*
X31200Y-23164D01*
X31214Y-23178D01*
X31228Y-23207D01*
X31228Y-23321D01*
X31071Y-22892D02*
X31071Y-22950D01*
X31085Y-22978D01*
X31100Y-22992D01*
X31142Y-23021D01*
X31200Y-23035D01*
X31314Y-23035D01*
X31342Y-23021D01*
X31357Y-23007D01*
X31371Y-22978D01*
X31371Y-22921D01*
X31357Y-22892D01*
X31342Y-22878D01*
X31314Y-22864D01*
X31242Y-22864D01*
X31214Y-22878D01*
X31200Y-22892D01*
X31185Y-22921D01*
X31185Y-22978D01*
X31200Y-23007D01*
X31214Y-23021D01*
X31242Y-23035D01*
X29321Y-23150D02*
X29178Y-23250D01*
X29321Y-23321D02*
X29021Y-23321D01*
X29021Y-23207D01*
X29035Y-23178D01*
X29050Y-23164D01*
X29078Y-23150D01*
X29121Y-23150D01*
X29150Y-23164D01*
X29164Y-23178D01*
X29178Y-23207D01*
X29178Y-23321D01*
X29021Y-22878D02*
X29021Y-23021D01*
X29164Y-23035D01*
X29150Y-23021D01*
X29135Y-22992D01*
X29135Y-22921D01*
X29150Y-22892D01*
X29164Y-22878D01*
X29192Y-22864D01*
X29264Y-22864D01*
X29292Y-22878D01*
X29307Y-22892D01*
X29321Y-22921D01*
X29321Y-22992D01*
X29307Y-23021D01*
X29292Y-23035D01*
X27321Y-23150D02*
X27178Y-23250D01*
X27321Y-23321D02*
X27021Y-23321D01*
X27021Y-23207D01*
X27035Y-23178D01*
X27050Y-23164D01*
X27078Y-23150D01*
X27121Y-23150D01*
X27150Y-23164D01*
X27164Y-23178D01*
X27178Y-23207D01*
X27178Y-23321D01*
X27121Y-22892D02*
X27321Y-22892D01*
X27007Y-22964D02*
X27221Y-23035D01*
X27221Y-22850D01*
X25100Y-23771D02*
X25000Y-23628D01*
X24928Y-23771D02*
X24928Y-23471D01*
X25042Y-23471D01*
X25071Y-23485D01*
X25085Y-23500D01*
X25100Y-23528D01*
X25100Y-23571D01*
X25085Y-23600D01*
X25071Y-23614D01*
X25042Y-23628D01*
X24928Y-23628D01*
X25200Y-23471D02*
X25385Y-23471D01*
X25285Y-23585D01*
X25328Y-23585D01*
X25357Y-23600D01*
X25371Y-23614D01*
X25385Y-23642D01*
X25385Y-23714D01*
X25371Y-23742D01*
X25357Y-23757D01*
X25328Y-23771D01*
X25242Y-23771D01*
X25214Y-23757D01*
X25200Y-23742D01*
X22950Y-23771D02*
X22850Y-23628D01*
X22778Y-23771D02*
X22778Y-23471D01*
X22892Y-23471D01*
X22921Y-23485D01*
X22935Y-23500D01*
X22950Y-23528D01*
X22950Y-23571D01*
X22935Y-23600D01*
X22921Y-23614D01*
X22892Y-23628D01*
X22778Y-23628D01*
X23064Y-23500D02*
X23078Y-23485D01*
X23107Y-23471D01*
X23178Y-23471D01*
X23207Y-23485D01*
X23221Y-23500D01*
X23235Y-23528D01*
X23235Y-23557D01*
X23221Y-23600D01*
X23050Y-23771D01*
X23235Y-23771D01*
X20800Y-23771D02*
X20700Y-23628D01*
X20628Y-23771D02*
X20628Y-23471D01*
X20742Y-23471D01*
X20771Y-23485D01*
X20785Y-23500D01*
X20800Y-23528D01*
X20800Y-23571D01*
X20785Y-23600D01*
X20771Y-23614D01*
X20742Y-23628D01*
X20628Y-23628D01*
X21085Y-23771D02*
X20914Y-23771D01*
X21000Y-23771D02*
X21000Y-23471D01*
X20971Y-23514D01*
X20942Y-23542D01*
X20914Y-23557D01*
G54D22*
X35254Y-15061D02*
X35254Y-14661D01*
X35407Y-14661D01*
X35445Y-14680D01*
X35464Y-14700D01*
X35483Y-14738D01*
X35483Y-14795D01*
X35464Y-14833D01*
X35445Y-14852D01*
X35407Y-14871D01*
X35254Y-14871D01*
X35635Y-14700D02*
X35654Y-14680D01*
X35692Y-14661D01*
X35788Y-14661D01*
X35826Y-14680D01*
X35845Y-14700D01*
X35864Y-14738D01*
X35864Y-14776D01*
X35845Y-14833D01*
X35616Y-15061D01*
X35864Y-15061D01*
X35254Y-16211D02*
X35254Y-15811D01*
X35407Y-15811D01*
X35445Y-15830D01*
X35464Y-15850D01*
X35483Y-15888D01*
X35483Y-15945D01*
X35464Y-15983D01*
X35445Y-16002D01*
X35407Y-16021D01*
X35254Y-16021D01*
X35864Y-16211D02*
X35635Y-16211D01*
X35750Y-16211D02*
X35750Y-15811D01*
X35711Y-15869D01*
X35673Y-15907D01*
X35635Y-15926D01*
G54D14*
X27966Y-14842D02*
X28023Y-14861D01*
X28119Y-14861D01*
X28157Y-14842D01*
X28176Y-14823D01*
X28195Y-14785D01*
X28195Y-14747D01*
X28176Y-14709D01*
X28157Y-14690D01*
X28119Y-14671D01*
X28042Y-14652D01*
X28004Y-14633D01*
X27985Y-14614D01*
X27966Y-14576D01*
X27966Y-14538D01*
X27985Y-14500D01*
X28004Y-14480D01*
X28042Y-14461D01*
X28138Y-14461D01*
X28195Y-14480D01*
X28328Y-14461D02*
X28423Y-14861D01*
X28500Y-14576D01*
X28576Y-14861D01*
X28671Y-14461D01*
X29033Y-14861D02*
X28804Y-14861D01*
X28919Y-14861D02*
X28919Y-14461D01*
X28880Y-14519D01*
X28842Y-14557D01*
X28804Y-14576D01*
G54D23*
X33978Y-24221D02*
X33978Y-23921D01*
X34050Y-23921D01*
X34092Y-23935D01*
X34121Y-23964D01*
X34135Y-23992D01*
X34150Y-24050D01*
X34150Y-24092D01*
X34135Y-24150D01*
X34121Y-24178D01*
X34092Y-24207D01*
X34050Y-24221D01*
X33978Y-24221D01*
X34321Y-24050D02*
X34292Y-24035D01*
X34278Y-24021D01*
X34264Y-23992D01*
X34264Y-23978D01*
X34278Y-23950D01*
X34292Y-23935D01*
X34321Y-23921D01*
X34378Y-23921D01*
X34407Y-23935D01*
X34421Y-23950D01*
X34435Y-23978D01*
X34435Y-23992D01*
X34421Y-24021D01*
X34407Y-24035D01*
X34378Y-24050D01*
X34321Y-24050D01*
X34292Y-24064D01*
X34278Y-24078D01*
X34264Y-24107D01*
X34264Y-24164D01*
X34278Y-24192D01*
X34292Y-24207D01*
X34321Y-24221D01*
X34378Y-24221D01*
X34407Y-24207D01*
X34421Y-24192D01*
X34435Y-24164D01*
X34435Y-24107D01*
X34421Y-24078D01*
X34407Y-24064D01*
X34378Y-24050D01*
X34557Y-25371D02*
X34414Y-25371D01*
X34414Y-25071D01*
X34657Y-25214D02*
X34757Y-25214D01*
X34800Y-25371D02*
X34657Y-25371D01*
X34657Y-25071D01*
X34800Y-25071D01*
X34928Y-25371D02*
X34928Y-25071D01*
X35000Y-25071D01*
X35042Y-25085D01*
X35071Y-25114D01*
X35085Y-25142D01*
X35100Y-25200D01*
X35100Y-25242D01*
X35085Y-25300D01*
X35071Y-25328D01*
X35042Y-25357D01*
X35000Y-25371D01*
X34928Y-25371D01*
X31978Y-24221D02*
X31978Y-23921D01*
X32050Y-23921D01*
X32092Y-23935D01*
X32121Y-23964D01*
X32135Y-23992D01*
X32150Y-24050D01*
X32150Y-24092D01*
X32135Y-24150D01*
X32121Y-24178D01*
X32092Y-24207D01*
X32050Y-24221D01*
X31978Y-24221D01*
X32250Y-23921D02*
X32450Y-23921D01*
X32321Y-24221D01*
X32557Y-25371D02*
X32414Y-25371D01*
X32414Y-25071D01*
X32657Y-25214D02*
X32757Y-25214D01*
X32800Y-25371D02*
X32657Y-25371D01*
X32657Y-25071D01*
X32800Y-25071D01*
X32928Y-25371D02*
X32928Y-25071D01*
X33000Y-25071D01*
X33042Y-25085D01*
X33071Y-25114D01*
X33085Y-25142D01*
X33100Y-25200D01*
X33100Y-25242D01*
X33085Y-25300D01*
X33071Y-25328D01*
X33042Y-25357D01*
X33000Y-25371D01*
X32928Y-25371D01*
X29928Y-24221D02*
X29928Y-23921D01*
X30000Y-23921D01*
X30042Y-23935D01*
X30071Y-23964D01*
X30085Y-23992D01*
X30100Y-24050D01*
X30100Y-24092D01*
X30085Y-24150D01*
X30071Y-24178D01*
X30042Y-24207D01*
X30000Y-24221D01*
X29928Y-24221D01*
X30357Y-23921D02*
X30300Y-23921D01*
X30271Y-23935D01*
X30257Y-23950D01*
X30228Y-23992D01*
X30214Y-24050D01*
X30214Y-24164D01*
X30228Y-24192D01*
X30242Y-24207D01*
X30271Y-24221D01*
X30328Y-24221D01*
X30357Y-24207D01*
X30371Y-24192D01*
X30385Y-24164D01*
X30385Y-24092D01*
X30371Y-24064D01*
X30357Y-24050D01*
X30328Y-24035D01*
X30271Y-24035D01*
X30242Y-24050D01*
X30228Y-24064D01*
X30214Y-24092D01*
X30557Y-25371D02*
X30414Y-25371D01*
X30414Y-25071D01*
X30657Y-25214D02*
X30757Y-25214D01*
X30800Y-25371D02*
X30657Y-25371D01*
X30657Y-25071D01*
X30800Y-25071D01*
X30928Y-25371D02*
X30928Y-25071D01*
X31000Y-25071D01*
X31042Y-25085D01*
X31071Y-25114D01*
X31085Y-25142D01*
X31100Y-25200D01*
X31100Y-25242D01*
X31085Y-25300D01*
X31071Y-25328D01*
X31042Y-25357D01*
X31000Y-25371D01*
X30928Y-25371D01*
X27928Y-24221D02*
X27928Y-23921D01*
X28000Y-23921D01*
X28042Y-23935D01*
X28071Y-23964D01*
X28085Y-23992D01*
X28100Y-24050D01*
X28100Y-24092D01*
X28085Y-24150D01*
X28071Y-24178D01*
X28042Y-24207D01*
X28000Y-24221D01*
X27928Y-24221D01*
X28371Y-23921D02*
X28228Y-23921D01*
X28214Y-24064D01*
X28228Y-24050D01*
X28257Y-24035D01*
X28328Y-24035D01*
X28357Y-24050D01*
X28371Y-24064D01*
X28385Y-24092D01*
X28385Y-24164D01*
X28371Y-24192D01*
X28357Y-24207D01*
X28328Y-24221D01*
X28257Y-24221D01*
X28228Y-24207D01*
X28214Y-24192D01*
X28557Y-25371D02*
X28414Y-25371D01*
X28414Y-25071D01*
X28657Y-25214D02*
X28757Y-25214D01*
X28800Y-25371D02*
X28657Y-25371D01*
X28657Y-25071D01*
X28800Y-25071D01*
X28928Y-25371D02*
X28928Y-25071D01*
X29000Y-25071D01*
X29042Y-25085D01*
X29071Y-25114D01*
X29085Y-25142D01*
X29100Y-25200D01*
X29100Y-25242D01*
X29085Y-25300D01*
X29071Y-25328D01*
X29042Y-25357D01*
X29000Y-25371D01*
X28928Y-25371D01*
X25978Y-24221D02*
X25978Y-23921D01*
X26050Y-23921D01*
X26092Y-23935D01*
X26121Y-23964D01*
X26135Y-23992D01*
X26150Y-24050D01*
X26150Y-24092D01*
X26135Y-24150D01*
X26121Y-24178D01*
X26092Y-24207D01*
X26050Y-24221D01*
X25978Y-24221D01*
X26407Y-24021D02*
X26407Y-24221D01*
X26335Y-23907D02*
X26264Y-24121D01*
X26450Y-24121D01*
X26557Y-25371D02*
X26414Y-25371D01*
X26414Y-25071D01*
X26657Y-25214D02*
X26757Y-25214D01*
X26800Y-25371D02*
X26657Y-25371D01*
X26657Y-25071D01*
X26800Y-25071D01*
X26928Y-25371D02*
X26928Y-25071D01*
X27000Y-25071D01*
X27042Y-25085D01*
X27071Y-25114D01*
X27085Y-25142D01*
X27100Y-25200D01*
X27100Y-25242D01*
X27085Y-25300D01*
X27071Y-25328D01*
X27042Y-25357D01*
X27000Y-25371D01*
X26928Y-25371D01*
X24178Y-24221D02*
X24178Y-23921D01*
X24250Y-23921D01*
X24292Y-23935D01*
X24321Y-23964D01*
X24335Y-23992D01*
X24350Y-24050D01*
X24350Y-24092D01*
X24335Y-24150D01*
X24321Y-24178D01*
X24292Y-24207D01*
X24250Y-24221D01*
X24178Y-24221D01*
X24450Y-23921D02*
X24635Y-23921D01*
X24535Y-24035D01*
X24578Y-24035D01*
X24607Y-24050D01*
X24621Y-24064D01*
X24635Y-24092D01*
X24635Y-24164D01*
X24621Y-24192D01*
X24607Y-24207D01*
X24578Y-24221D01*
X24492Y-24221D01*
X24464Y-24207D01*
X24450Y-24192D01*
X24557Y-25371D02*
X24414Y-25371D01*
X24414Y-25071D01*
X24657Y-25214D02*
X24757Y-25214D01*
X24800Y-25371D02*
X24657Y-25371D01*
X24657Y-25071D01*
X24800Y-25071D01*
X24928Y-25371D02*
X24928Y-25071D01*
X25000Y-25071D01*
X25042Y-25085D01*
X25071Y-25114D01*
X25085Y-25142D01*
X25100Y-25200D01*
X25100Y-25242D01*
X25085Y-25300D01*
X25071Y-25328D01*
X25042Y-25357D01*
X25000Y-25371D01*
X24928Y-25371D01*
X22778Y-24221D02*
X22778Y-23921D01*
X22850Y-23921D01*
X22892Y-23935D01*
X22921Y-23964D01*
X22935Y-23992D01*
X22950Y-24050D01*
X22950Y-24092D01*
X22935Y-24150D01*
X22921Y-24178D01*
X22892Y-24207D01*
X22850Y-24221D01*
X22778Y-24221D01*
X23064Y-23950D02*
X23078Y-23935D01*
X23107Y-23921D01*
X23178Y-23921D01*
X23207Y-23935D01*
X23221Y-23950D01*
X23235Y-23978D01*
X23235Y-24007D01*
X23221Y-24050D01*
X23050Y-24221D01*
X23235Y-24221D01*
X22557Y-25371D02*
X22414Y-25371D01*
X22414Y-25071D01*
X22657Y-25214D02*
X22757Y-25214D01*
X22800Y-25371D02*
X22657Y-25371D01*
X22657Y-25071D01*
X22800Y-25071D01*
X22928Y-25371D02*
X22928Y-25071D01*
X23000Y-25071D01*
X23042Y-25085D01*
X23071Y-25114D01*
X23085Y-25142D01*
X23100Y-25200D01*
X23100Y-25242D01*
X23085Y-25300D01*
X23071Y-25328D01*
X23042Y-25357D01*
X23000Y-25371D01*
X22928Y-25371D01*
X20628Y-24171D02*
X20628Y-23871D01*
X20700Y-23871D01*
X20742Y-23885D01*
X20771Y-23914D01*
X20785Y-23942D01*
X20800Y-24000D01*
X20800Y-24042D01*
X20785Y-24100D01*
X20771Y-24128D01*
X20742Y-24157D01*
X20700Y-24171D01*
X20628Y-24171D01*
X21085Y-24171D02*
X20914Y-24171D01*
X21000Y-24171D02*
X21000Y-23871D01*
X20971Y-23914D01*
X20942Y-23942D01*
X20914Y-23957D01*
X20557Y-25371D02*
X20414Y-25371D01*
X20414Y-25071D01*
X20657Y-25214D02*
X20757Y-25214D01*
X20800Y-25371D02*
X20657Y-25371D01*
X20657Y-25071D01*
X20800Y-25071D01*
X20928Y-25371D02*
X20928Y-25071D01*
X21000Y-25071D01*
X21042Y-25085D01*
X21071Y-25114D01*
X21085Y-25142D01*
X21100Y-25200D01*
X21100Y-25242D01*
X21085Y-25300D01*
X21071Y-25328D01*
X21042Y-25357D01*
X21000Y-25371D01*
X20928Y-25371D01*
G54D24*
X26928Y-16828D02*
X27014Y-16857D01*
X27042Y-16885D01*
X27071Y-16942D01*
X27071Y-17028D01*
X27042Y-17085D01*
X27014Y-17114D01*
X26957Y-17142D01*
X26728Y-17142D01*
X26728Y-16542D01*
X26928Y-16542D01*
X26985Y-16571D01*
X27014Y-16600D01*
X27042Y-16657D01*
X27042Y-16714D01*
X27014Y-16771D01*
X26985Y-16800D01*
X26928Y-16828D01*
X26728Y-16828D01*
X27242Y-16542D02*
X27585Y-16542D01*
X27414Y-17142D02*
X27414Y-16542D01*
X28100Y-17142D02*
X27757Y-17142D01*
X27928Y-17142D02*
X27928Y-16542D01*
X27871Y-16628D01*
X27814Y-16685D01*
X27757Y-16714D01*
X26642Y-20292D02*
X27014Y-20292D01*
X26814Y-20521D01*
X26900Y-20521D01*
X26957Y-20550D01*
X26985Y-20578D01*
X27014Y-20635D01*
X27014Y-20778D01*
X26985Y-20835D01*
X26957Y-20864D01*
X26900Y-20892D01*
X26728Y-20892D01*
X26671Y-20864D01*
X26642Y-20835D01*
X27185Y-20292D02*
X27385Y-20892D01*
X27585Y-20292D01*
G54D12*
X32992Y-18850D02*
X33007Y-18864D01*
X33021Y-18907D01*
X33021Y-18935D01*
X33007Y-18978D01*
X32978Y-19007D01*
X32950Y-19021D01*
X32892Y-19035D01*
X32850Y-19035D01*
X32792Y-19021D01*
X32764Y-19007D01*
X32735Y-18978D01*
X32721Y-18935D01*
X32721Y-18907D01*
X32735Y-18864D01*
X32750Y-18850D01*
X33021Y-18564D02*
X33021Y-18735D01*
X33021Y-18650D02*
X32721Y-18650D01*
X32764Y-18678D01*
X32792Y-18707D01*
X32807Y-18735D01*
X34071Y-18850D02*
X33928Y-18950D01*
X34071Y-19021D02*
X33771Y-19021D01*
X33771Y-18907D01*
X33785Y-18878D01*
X33800Y-18864D01*
X33828Y-18850D01*
X33871Y-18850D01*
X33900Y-18864D01*
X33914Y-18878D01*
X33928Y-18907D01*
X33928Y-19021D01*
X34071Y-18707D02*
X34071Y-18650D01*
X34057Y-18621D01*
X34042Y-18607D01*
X34000Y-18578D01*
X33942Y-18564D01*
X33828Y-18564D01*
X33800Y-18578D01*
X33785Y-18592D01*
X33771Y-18621D01*
X33771Y-18678D01*
X33785Y-18707D01*
X33800Y-18721D01*
X33828Y-18735D01*
X33900Y-18735D01*
X33928Y-18721D01*
X33942Y-18707D01*
X33957Y-18678D01*
X33957Y-18621D01*
X33942Y-18592D01*
X33928Y-18578D01*
X33900Y-18564D01*
M02*
