G04 (created by PCBNEW (2013-07-07 BZR 4022)-stable) date 06/07/2014 18:00:34*
%MOIN*%
G04 Gerber Fmt 3.4, Leading zero omitted, Abs format*
%FSLAX34Y34*%
G01*
G70*
G90*
G04 APERTURE LIST*
%ADD10C,0.00393701*%
%ADD11C,0.00590551*%
%ADD12R,0.032248X0.073648*%
%ADD13R,0.095748X0.075748*%
%ADD14R,0.075748X0.095748*%
%ADD15R,0.075748X0.075748*%
%ADD16C,0.075748*%
%ADD17R,0.078648X0.086648*%
%ADD18C,0.105748*%
%ADD19C,0.115748*%
G04 APERTURE END LIST*
G54D10*
G54D11*
X18050Y-14200D02*
X17850Y-14200D01*
X18050Y-25500D02*
X17850Y-25500D01*
X36350Y-14200D02*
X36350Y-25500D01*
X18050Y-14200D02*
X36350Y-14200D01*
X17850Y-25500D02*
X17850Y-14200D01*
X36350Y-25500D02*
X18050Y-25500D01*
G54D12*
X31128Y-17648D03*
X30872Y-17648D03*
X30616Y-17648D03*
X30360Y-17648D03*
X31892Y-19850D03*
X31896Y-17648D03*
X31640Y-17648D03*
X31384Y-17648D03*
X30104Y-19852D03*
X30360Y-19852D03*
X30616Y-19852D03*
X30872Y-19852D03*
X31128Y-19852D03*
X31384Y-19852D03*
X30104Y-17648D03*
X31640Y-19850D03*
X32152Y-17648D03*
X29848Y-17648D03*
X29848Y-19852D03*
X32152Y-19852D03*
G54D13*
X35200Y-22450D03*
X35200Y-23750D03*
X33200Y-22450D03*
X33200Y-23750D03*
X31250Y-22450D03*
X31250Y-23750D03*
X29200Y-22450D03*
X29200Y-23750D03*
X27200Y-22450D03*
X27200Y-23750D03*
G54D14*
X24500Y-23650D03*
X25800Y-23650D03*
X22350Y-23650D03*
X23650Y-23650D03*
X20200Y-23650D03*
X21500Y-23650D03*
G54D15*
X31600Y-14850D03*
G54D16*
X32600Y-14850D03*
X33600Y-14850D03*
X34600Y-14850D03*
G54D15*
X31600Y-16050D03*
G54D16*
X32600Y-16050D03*
X33600Y-16050D03*
X34600Y-16050D03*
G54D15*
X27400Y-15550D03*
G54D16*
X28400Y-15550D03*
X29400Y-15550D03*
G54D17*
X34191Y-24650D03*
X35309Y-24650D03*
X32191Y-24650D03*
X33309Y-24650D03*
X30191Y-24650D03*
X31309Y-24650D03*
X28191Y-24650D03*
X29309Y-24650D03*
X26191Y-24650D03*
X27309Y-24650D03*
X24191Y-24650D03*
X25309Y-24650D03*
X22191Y-24650D03*
X23309Y-24650D03*
X20191Y-24650D03*
X21309Y-24650D03*
G54D18*
X19350Y-18700D03*
X27350Y-18700D03*
G54D13*
X32900Y-18150D03*
X32900Y-19450D03*
X33950Y-18150D03*
X33950Y-19450D03*
G54D19*
X18700Y-15050D03*
X18700Y-24650D03*
M02*
