G04 (created by PCBNEW (2013-07-07 BZR 4022)-stable) date 06/07/2014 18:00:34*
%MOIN*%
G04 Gerber Fmt 3.4, Leading zero omitted, Abs format*
%FSLAX34Y34*%
G01*
G70*
G90*
G04 APERTURE LIST*
%ADD10C,0.00393701*%
%ADD11C,0.011811*%
%ADD12C,0.00590551*%
G04 APERTURE END LIST*
G54D10*
G54D11*
X30733Y-22439D02*
X30733Y-21848D01*
X30537Y-22270D01*
X30340Y-21848D01*
X30340Y-22439D01*
X30087Y-22410D02*
X30002Y-22439D01*
X29862Y-22439D01*
X29805Y-22410D01*
X29777Y-22382D01*
X29749Y-22326D01*
X29749Y-22270D01*
X29777Y-22214D01*
X29805Y-22185D01*
X29862Y-22157D01*
X29974Y-22129D01*
X30030Y-22101D01*
X30058Y-22073D01*
X30087Y-22017D01*
X30087Y-21960D01*
X30058Y-21904D01*
X30030Y-21876D01*
X29974Y-21848D01*
X29834Y-21848D01*
X29749Y-21876D01*
X29496Y-22439D02*
X29496Y-21848D01*
X29271Y-21848D01*
X29215Y-21876D01*
X29187Y-21904D01*
X29159Y-21960D01*
X29159Y-22045D01*
X29187Y-22101D01*
X29215Y-22129D01*
X29271Y-22157D01*
X29496Y-22157D01*
X28652Y-22045D02*
X28652Y-22439D01*
X28793Y-21820D02*
X28934Y-22242D01*
X28568Y-22242D01*
X28399Y-21848D02*
X28034Y-21848D01*
X28231Y-22073D01*
X28146Y-22073D01*
X28090Y-22101D01*
X28062Y-22129D01*
X28034Y-22185D01*
X28034Y-22326D01*
X28062Y-22382D01*
X28090Y-22410D01*
X28146Y-22439D01*
X28315Y-22439D01*
X28371Y-22410D01*
X28399Y-22382D01*
X27668Y-21848D02*
X27612Y-21848D01*
X27556Y-21876D01*
X27528Y-21904D01*
X27499Y-21960D01*
X27471Y-22073D01*
X27471Y-22214D01*
X27499Y-22326D01*
X27528Y-22382D01*
X27556Y-22410D01*
X27612Y-22439D01*
X27668Y-22439D01*
X27724Y-22410D01*
X27753Y-22382D01*
X27781Y-22326D01*
X27809Y-22214D01*
X27809Y-22073D01*
X27781Y-21960D01*
X27753Y-21904D01*
X27724Y-21876D01*
X27668Y-21848D01*
X26768Y-22439D02*
X26768Y-21848D01*
X26543Y-21848D01*
X26487Y-21876D01*
X26459Y-21904D01*
X26431Y-21960D01*
X26431Y-22045D01*
X26459Y-22101D01*
X26487Y-22129D01*
X26543Y-22157D01*
X26768Y-22157D01*
X26065Y-21848D02*
X25953Y-21848D01*
X25897Y-21876D01*
X25840Y-21932D01*
X25812Y-22045D01*
X25812Y-22242D01*
X25840Y-22354D01*
X25897Y-22410D01*
X25953Y-22439D01*
X26065Y-22439D01*
X26121Y-22410D01*
X26178Y-22354D01*
X26206Y-22242D01*
X26206Y-22045D01*
X26178Y-21932D01*
X26121Y-21876D01*
X26065Y-21848D01*
X25643Y-21848D02*
X25447Y-22439D01*
X25250Y-21848D01*
X24687Y-21848D02*
X24490Y-22439D01*
X24294Y-21848D01*
X24125Y-21904D02*
X24097Y-21876D01*
X24041Y-21848D01*
X23900Y-21848D01*
X23844Y-21876D01*
X23816Y-21904D01*
X23787Y-21960D01*
X23787Y-22017D01*
X23816Y-22101D01*
X24153Y-22439D01*
X23787Y-22439D01*
X31113Y-22990D02*
X31113Y-23468D01*
X31141Y-23524D01*
X31169Y-23552D01*
X31226Y-23580D01*
X31310Y-23580D01*
X31366Y-23552D01*
X31113Y-23355D02*
X31169Y-23383D01*
X31282Y-23383D01*
X31338Y-23355D01*
X31366Y-23327D01*
X31394Y-23271D01*
X31394Y-23102D01*
X31366Y-23046D01*
X31338Y-23018D01*
X31282Y-22990D01*
X31169Y-22990D01*
X31113Y-23018D01*
X30832Y-23383D02*
X30832Y-22990D01*
X30832Y-22793D02*
X30860Y-22821D01*
X30832Y-22849D01*
X30804Y-22821D01*
X30832Y-22793D01*
X30832Y-22849D01*
X30635Y-22990D02*
X30410Y-22990D01*
X30551Y-22793D02*
X30551Y-23299D01*
X30523Y-23355D01*
X30466Y-23383D01*
X30410Y-23383D01*
X30213Y-23383D02*
X30213Y-22793D01*
X29960Y-23383D02*
X29960Y-23074D01*
X29988Y-23018D01*
X30044Y-22990D01*
X30129Y-22990D01*
X30185Y-23018D01*
X30213Y-23046D01*
X29426Y-22990D02*
X29426Y-23383D01*
X29679Y-22990D02*
X29679Y-23299D01*
X29651Y-23355D01*
X29594Y-23383D01*
X29510Y-23383D01*
X29454Y-23355D01*
X29426Y-23327D01*
X29145Y-23383D02*
X29145Y-22793D01*
X29145Y-23018D02*
X29088Y-22990D01*
X28976Y-22990D01*
X28920Y-23018D01*
X28891Y-23046D01*
X28863Y-23102D01*
X28863Y-23271D01*
X28891Y-23327D01*
X28920Y-23355D01*
X28976Y-23383D01*
X29088Y-23383D01*
X29145Y-23355D01*
X28610Y-23327D02*
X28582Y-23355D01*
X28610Y-23383D01*
X28638Y-23355D01*
X28610Y-23327D01*
X28610Y-23383D01*
X28076Y-23355D02*
X28132Y-23383D01*
X28245Y-23383D01*
X28301Y-23355D01*
X28329Y-23327D01*
X28357Y-23271D01*
X28357Y-23102D01*
X28329Y-23046D01*
X28301Y-23018D01*
X28245Y-22990D01*
X28132Y-22990D01*
X28076Y-23018D01*
X27738Y-23383D02*
X27795Y-23355D01*
X27823Y-23327D01*
X27851Y-23271D01*
X27851Y-23102D01*
X27823Y-23046D01*
X27795Y-23018D01*
X27738Y-22990D01*
X27654Y-22990D01*
X27598Y-23018D01*
X27570Y-23046D01*
X27542Y-23102D01*
X27542Y-23271D01*
X27570Y-23327D01*
X27598Y-23355D01*
X27654Y-23383D01*
X27738Y-23383D01*
X27289Y-23383D02*
X27289Y-22990D01*
X27289Y-23046D02*
X27260Y-23018D01*
X27204Y-22990D01*
X27120Y-22990D01*
X27064Y-23018D01*
X27035Y-23074D01*
X27035Y-23383D01*
X27035Y-23074D02*
X27007Y-23018D01*
X26951Y-22990D01*
X26867Y-22990D01*
X26810Y-23018D01*
X26782Y-23074D01*
X26782Y-23383D01*
X26079Y-22765D02*
X26585Y-23524D01*
X25882Y-23383D02*
X25882Y-22990D01*
X25882Y-23046D02*
X25854Y-23018D01*
X25798Y-22990D01*
X25714Y-22990D01*
X25657Y-23018D01*
X25629Y-23074D01*
X25629Y-23383D01*
X25629Y-23074D02*
X25601Y-23018D01*
X25545Y-22990D01*
X25461Y-22990D01*
X25404Y-23018D01*
X25376Y-23074D01*
X25376Y-23383D01*
X24842Y-23383D02*
X24842Y-23074D01*
X24870Y-23018D01*
X24926Y-22990D01*
X25039Y-22990D01*
X25095Y-23018D01*
X24842Y-23355D02*
X24898Y-23383D01*
X25039Y-23383D01*
X25095Y-23355D01*
X25123Y-23299D01*
X25123Y-23243D01*
X25095Y-23187D01*
X25039Y-23158D01*
X24898Y-23158D01*
X24842Y-23130D01*
X24561Y-23383D02*
X24561Y-22990D01*
X24561Y-23102D02*
X24533Y-23046D01*
X24505Y-23018D01*
X24448Y-22990D01*
X24392Y-22990D01*
X24195Y-23383D02*
X24195Y-22793D01*
X24139Y-23158D02*
X23970Y-23383D01*
X23970Y-22990D02*
X24195Y-23215D01*
X23717Y-22990D02*
X23717Y-23496D01*
X23745Y-23552D01*
X23801Y-23580D01*
X23830Y-23580D01*
X23717Y-22793D02*
X23745Y-22821D01*
X23717Y-22849D01*
X23689Y-22821D01*
X23717Y-22793D01*
X23717Y-22849D01*
X23436Y-23383D02*
X23436Y-22793D01*
X23436Y-23018D02*
X23380Y-22990D01*
X23267Y-22990D01*
X23211Y-23018D01*
X23183Y-23046D01*
X23155Y-23102D01*
X23155Y-23271D01*
X23183Y-23327D01*
X23211Y-23355D01*
X23267Y-23383D01*
X23380Y-23383D01*
X23436Y-23355D01*
X30466Y-23738D02*
X30354Y-23738D01*
X30298Y-23766D01*
X30241Y-23822D01*
X30213Y-23935D01*
X30213Y-24131D01*
X30241Y-24244D01*
X30298Y-24300D01*
X30354Y-24328D01*
X30466Y-24328D01*
X30523Y-24300D01*
X30579Y-24244D01*
X30607Y-24131D01*
X30607Y-23935D01*
X30579Y-23822D01*
X30523Y-23766D01*
X30466Y-23738D01*
X29988Y-24300D02*
X29904Y-24328D01*
X29763Y-24328D01*
X29707Y-24300D01*
X29679Y-24272D01*
X29651Y-24216D01*
X29651Y-24160D01*
X29679Y-24103D01*
X29707Y-24075D01*
X29763Y-24047D01*
X29876Y-24019D01*
X29932Y-23991D01*
X29960Y-23963D01*
X29988Y-23906D01*
X29988Y-23850D01*
X29960Y-23794D01*
X29932Y-23766D01*
X29876Y-23738D01*
X29735Y-23738D01*
X29651Y-23766D01*
X29398Y-24328D02*
X29398Y-23738D01*
X29398Y-24019D02*
X29060Y-24019D01*
X29060Y-24328D02*
X29060Y-23738D01*
X27992Y-24272D02*
X28020Y-24300D01*
X28104Y-24328D01*
X28160Y-24328D01*
X28245Y-24300D01*
X28301Y-24244D01*
X28329Y-24188D01*
X28357Y-24075D01*
X28357Y-23991D01*
X28329Y-23878D01*
X28301Y-23822D01*
X28245Y-23766D01*
X28160Y-23738D01*
X28104Y-23738D01*
X28020Y-23766D01*
X27992Y-23794D01*
X27401Y-24272D02*
X27429Y-24300D01*
X27514Y-24328D01*
X27570Y-24328D01*
X27654Y-24300D01*
X27710Y-24244D01*
X27738Y-24188D01*
X27767Y-24075D01*
X27767Y-23991D01*
X27738Y-23878D01*
X27710Y-23822D01*
X27654Y-23766D01*
X27570Y-23738D01*
X27514Y-23738D01*
X27429Y-23766D01*
X27401Y-23794D01*
X27148Y-24328D02*
X27148Y-23738D01*
X26810Y-24328D01*
X26810Y-23738D01*
X26192Y-24272D02*
X26220Y-24300D01*
X26304Y-24328D01*
X26361Y-24328D01*
X26445Y-24300D01*
X26501Y-24244D01*
X26529Y-24188D01*
X26557Y-24075D01*
X26557Y-23991D01*
X26529Y-23878D01*
X26501Y-23822D01*
X26445Y-23766D01*
X26361Y-23738D01*
X26304Y-23738D01*
X26220Y-23766D01*
X26192Y-23794D01*
X25517Y-23794D02*
X25489Y-23766D01*
X25433Y-23738D01*
X25292Y-23738D01*
X25236Y-23766D01*
X25208Y-23794D01*
X25179Y-23850D01*
X25179Y-23906D01*
X25208Y-23991D01*
X25545Y-24328D01*
X25179Y-24328D01*
X24814Y-23738D02*
X24758Y-23738D01*
X24701Y-23766D01*
X24673Y-23794D01*
X24645Y-23850D01*
X24617Y-23963D01*
X24617Y-24103D01*
X24645Y-24216D01*
X24673Y-24272D01*
X24701Y-24300D01*
X24758Y-24328D01*
X24814Y-24328D01*
X24870Y-24300D01*
X24898Y-24272D01*
X24926Y-24216D01*
X24954Y-24103D01*
X24954Y-23963D01*
X24926Y-23850D01*
X24898Y-23794D01*
X24870Y-23766D01*
X24814Y-23738D01*
X24055Y-24328D02*
X24392Y-24328D01*
X24223Y-24328D02*
X24223Y-23738D01*
X24280Y-23822D01*
X24336Y-23878D01*
X24392Y-23906D01*
X23548Y-23935D02*
X23548Y-24328D01*
X23689Y-23710D02*
X23830Y-24131D01*
X23464Y-24131D01*
G54D12*
X18050Y-14200D02*
X17850Y-14200D01*
X18050Y-25500D02*
X17850Y-25500D01*
X36350Y-14200D02*
X36350Y-25500D01*
X18050Y-14200D02*
X36350Y-14200D01*
X17850Y-25500D02*
X17850Y-14200D01*
X36350Y-25500D02*
X18050Y-25500D01*
M02*
